<?xml version="1.0" encoding="utf-8"?>
<!-- Generator: Adobe Illustrator 25.4.1, SVG Export Plug-In . SVG Version: 6.00 Build 0)  -->
<svg version="1.1" id="Layer_1" xmlns="http://www.w3.org/2000/svg" xmlns:xlink="http://www.w3.org/1999/xlink" x="0px" y="0px"
	 viewBox="0 0 496 1080" style="enable-background:new 0 0 496 1080;" xml:space="preserve">
<g>
	<g>
		<path d="M27.9,1033.5c2.4,1.2,4.7,2.6,7.2,3.7c5,2.3,10.3,1.4,15.5,1.1c5.6-0.3,11.2-1.4,16.7-2.3c3.3-0.6,6.6-1.6,9.9-2.3
			c4-0.8,8-1.6,12-2.2c6.2-1,10.8-4.9,15.6-8.6c4.1-3.1,8.4-6,12.1-9.5c2.9-2.7,5.1-6.1,7.6-9.2c5.2-6.5,10.3-12.9,15.4-19.4
			c2-2.6,3.8-5.5,6.1-7.8c2.9-3,0.8-5.7,0.3-8.6c-0.3-1.9-0.1-3.8,0.2-5.6c0.6,2.4,1,4.9,2,7.1c1.8,4.2,6.2,3.7,9,1.4
			c2.6-2.2,5.2-4.3,7.7-6.6s3.6-5.3,4.8-9c-3.5,2-6.4,3.6-9.4,5.3c-0.8-0.4-1.8-0.9-3.5-1.9c1.6-1.4,3-2.6,4.4-3.8
			c0.4-0.3,0.8-0.6,1.2-0.6c5-0.1,7.3-1.9,8.9-7.2c0.5,0.7,0.9,1.3,1.4,2.1c3.4-9.2,7-18.3,3.1-28.2c-2.2-5.6-6.2-6.7-11.2-4.9
			c-1.5,0.5-2.4,2.8-3.6,4.3c0.6,0.5,1.3,1.4,1.9,1.4c0.9-0.1,1.8-0.8,2.5-1.3c2.6-2.1,5-0.9,7.1,0.7c1.8,1.4,2.5,5.5,1.5,7.5
			c-0.6,1.1-1.5,2-2.1,3.1c-0.5,1-0.8,2.1-1.5,3.8c-0.6-2.7-1.1-5.1-1.6-7.5c-3.6,1.9-4.6,5.1-3.6,9.5c0.4,1.6,0.7,3.2,0.9,4.9
			c0.2,1.6,0,3.3,0,5.7c-1.6-2.6-2.8-2.5-4.2-0.7c-0.5,0.6-1.7,0.9-2.5,0.8c-2.6-0.5-4,1.3-3.7,3.1c0.6,3.2-0.9,4.5-3.5,5.5
			c-1.2,0.4-2.3,1.2-4.2,2.1c2-4.2,3.9-7.5,5.2-11.1c0.9-2.4,1.3-5,1.6-7.6c0.4-3.9,0.6-7.7,1-12.2c-3.1-0.1-6.4-0.4-9.6-0.3
			c-5.3,0.1-10.6,0.1-15.9,0.6c-3.7,0.4-4.9-0.5-6.5-4.3c-4.5-10.3-10.1-20.1-15.3-30c-0.5-0.9-1.8-1.7-2.9-2
			c-6.5-1.9-13-3.6-19.5-5.4c-1.3-0.4-2.5-1-3.6-1.8c-4.6-3.3-10-2.8-15.2-3.9c-11-2.3-19.1-9.2-23.3-20c-0.8-2.1-1.3-4.2-1.9-6.4
			c-0.8-2.9-4.4-3.3-7.2-1c-5.7,4.8-9.1,11.2-11.8,17.9c-3.7,9.1-5.9,18.6-7.6,28.2c-0.5,2.6-0.7,5.4,2.7,6.8c1.2,0.5,2,2.2,2.6,3.5
			c3.3,7.5,0.6,13.9-3.6,20.2c-4.5,6.9-8.7,14-12.8,21.1c-1.3,2.2-2,4.8-2.7,7.3c-1.3,4.8,1.1,8.1,6.5,9.2c-1.3-5.5,4.2-6.6,6.6-9.9
			c-3.5-5.3,0.3-9.6,2.7-13.6c4.4-7.3,9.5-14.2,14.3-21.2c1.8-2.5,3.6-5,5.5-7.7c-0.8-0.6-1.8-1.1-2.4-1.9c-0.9-1.3-2.3-3-2.1-4.3
			c0.1-1.3,1.9-3.2,3.1-3.4c4.6-0.5,9.3-0.5,14-0.5c4.3,0,8.5,0.3,12.8,0.3c0.8,0,1.7-0.8,3.2-1.5c-2.4-1.4-4.3-2.4-6.7-3.7
			c5.1-0.3,9.5-0.2,13.4,2.7c5,3.6,10.2,7.1,15.2,10.6c0.4,0.3,0.6,0.7,1.2,1.3c-7.1-1.8-13.8-3.9-20.6-5.2s-13.7-2-21,1.6
			c4.7,3.7,10.3,3.1,15.6,5.7c-4.9-0.2-6.6,0.7-7.8,3.9c4.3,1.8,8.7,2.8,13.3,2.3c1.7-0.2,3-0.9,4.2,1c0.4,0.6,1.9,0.5,3.7,0.9
			c-1.1-1.5-1.9-2.4-3-3.8c3.6,1.4,6,3.3,7.6,6.2c0.9,1.7-0.3,2.2-1.9,2.3c-1.2,0-2.3,0.3-3.5,0.4c-4.6,0.6-9.2,1.5-13.8,1.9
			c-3,0.2-4.4-2.4-4.8-4.7c-0.5-3.5-2.6-3.6-5.2-3.6c-3.8,0-5.3-1.7-4.6-5.4c2,0.8,3.9,3.7,6,0.3c-1.7-2.6-4.8-3.5-7.8-2.1
			c-2.2,1-3.8,4.6-2.5,7c1.7,3.2,0.6,3.8-2.5,4c-1.5,0.1-3,1.3-4.3,2.3c-6,4.7-10.3,10.7-11.2,18.5c-0.4,3.7,2.9,7.2,6.4,8.3
			c2.1,0.6,4.2,1.6,6,2.7c2.8,1.7,2.5,4.8,0.7,6.6c-1.6,1.6-4,2.4-6.1,3.6c-0.2-0.2-0.5-0.4-0.7-0.6c0.2-1.6,0.4-3.2,0.7-4.7
			c0.5-2.4-0.6-3.9-3-4c-2.1-0.1-4.2-0.3-6.2,0.1c-1.8,0.3-3.6,1.4-5.3,2.6c3.2,2.9,8.3-0.2,10.9,4.1c-4.3,0.7-8.4,1.4-12.9,2.2
			c4.9,7.5,5.8,10.2,4.7,13.3c-0.9-2.7-1.6-5.5-2.7-8.1c-1.1-2.8-3.3-4.3-6.4-4.8c-2.7-0.4-5.4-1.3-7.7-2.6c-3.4-1.9-4.2-5-3.2-8.7
			c2-7,6-13,9.7-19.1c2.5-4.2,5.4-8.2,8.1-12.4c1.1-1.8,1.3-3.3-1.1-4.4c-3.2-1.5-4.8-3.9-3.7-8.1c1,0.9,1.9,1.6,2.9,2.5
			c2.1-1.9,2.4-3.6,0.5-6c-2.7-3.6-3.3-7.7-2.1-12.2c1.8-7.1,2.9-14.4,5-21.4c1.4-4.6,3.7-8.9,5.9-13.3c2.3-4.7,4.9-9.2,7.6-13.7
			c0.8-1.4,2.1-2.4,3.1-3.7c0.5-0.7,1.1-1.7,1.1-2.5c-0.2-4.2,2.2-7.4,5.4-8.8c9.5-4.2,19.3-8,29.1-11.3c6.8-2.2,14.1-3.4,21.2-4.8
			c2.9-0.6,5.8-0.6,8.8-0.7c6.7-0.3,13.4-0.9,20.1-0.5c13.1,0.9,26.4,0.6,38.9,5.3c5,1.9,9.4,5.2,14,8.2c14,9.2,22.9,22.4,29.6,37.5
			c3.2,7.2,4.1,14.5,4.6,22.1c0.3,6,0.7,12,0.6,18c-0.1,8.4-1.6,16.6-5.2,24.3c-5,10.6-10,21.2-14.9,31.8c-4,8.6-8.1,17.1-11.6,25.8
			c-2.1,5-1.9,10.4-0.6,15.8c1.2,4.6,2,9.3,2.6,14c0.4,3-0.7,5.9-3.1,7.8c-4.6,3.5-9.4,6.8-14.2,10.1c-6.7,4.6-13.3,9.3-20.2,13.6
			c-8,5-16.1,10.1-24.6,14.2c-5.8,2.8-12.5,2.8-18.2-1c-2.1-1.4-3.7-3.9-4.9-6.2c-3.3-6.3-6.1-12.7-9.3-19.1
			c-3.6-7.2-2.7-5.8-10-4.8c-8,1.1-15.9,2.4-23.9,3.4c-3.8,0.5-7.6,0.7-11.4,0.6c-4.6-0.1-8.5-2.3-12.1-5.1
			C28.1,1034.3,28.1,1033.8,27.9,1033.5C28,1033.5,27.9,1033.5,27.9,1033.5z M56.5,857.1c2.5,5.6,4.7,10.7,9.6,14.3
			C65.3,864.7,62.2,859.9,56.5,857.1z M54.4,867.8c0.8,5.2,6.7,10.9,11.7,10.6C61.9,874.6,57.4,870.6,54.4,867.8z M84.5,881.2
			c0-0.2,0-0.4,0-0.6c-5-4.3-9.9-8.6-14.9-13c-0.2,0.2-0.4,0.4-0.7,0.6c3.8,4,7.4,8.1,11.4,12C81.1,881.1,83,880.9,84.5,881.2z
			 M63.9,930.1c3.9,0,7.4,0,11,0c0-0.4,0.1-0.8,0.1-1.3c-3-1.1-6-2.2-9.1-3.1c-0.3-0.1-1.1,0.6-1.3,1.1
			C64.2,927.8,64.2,928.9,63.9,930.1z"/>
		<path d="M26.9,463.2c4.3,3.4,9.4,2.9,14.3,2.4c2-0.2,3.9-1.4,5.9-2c2.6-0.7,4.5,0.3,5.6,3.2c-2,0.9-4,1.8-6.1,2.6
			c-2.4,1.1-4.6,0.5-7-0.6c-3-1.3-6.3-2.1-9.8-3.3c-0.4,4.7-0.7,8.4-1,12.2c-0.2,3.5-0.2,7-0.3,10.4c-0.2,5.2,1.1,7.3,6.3,7.1
			c7.3-0.3,14,2.6,21,2.9c5.5,0.3,11.1-0.7,16.5-1.7c7.7-1.4,15.4-3,22.9-5c13.5-3.5,26.9-7.8,39.9-13.1c4.6-1.8,9.1-3.6,13.6-5.6
			c5.6-2.6,8.2-7.3,9.6-13.3c2.1-9.1,1.1-17.6-2.6-25.9c-0.4-1-1.8-2.1-2.9-2.2c-5-0.5-6.7-4.1-7.1-7.5c-0.2-2.2,0-4.5,0.5-6.9
			c0.1,0.8,0.4,1.7,0.3,2.5c-0.5,3.3,0.8,6.3,3.5,7.7c3.1,1.6,6.3,1.4,8.6-1.4c3.4-4.2,6.4-8.7,9.8-13.3c-4.1-0.5-6.3,5.2-11,2.3
			c2-1.9,3.1-4.3,6.6-4.5c2-0.1,4.6-1.9,5.7-3.7c2.6-4.1,4.7-8.7,6.7-13.2c2.5-5.6,1.6-11.4-0.4-16.8s-9.5-5.1-12.9-2.9
			c-3.1,2.1-6.1,4.6-8.9,7.1c-2,1.8-4,3-7,3c-6.6,0.1-13.1,0.7-19.7,1.1c-2.1,0.1-3.8-1.4-3.9-4.1c-0.4-8.5,0.2-16.9,3.4-25
			c3.3-8.3,6.7-16.7,6.7-26c0-3.5,0.9-7.1,1.6-10.6c1.8-8.7-4.3-17.8-12.9-18.4c-3.5-0.2-7,1.2-10.5,1.7c-6.1,0.8-12.1,1.5-18.2,2.2
			c-12,1.4-23.1-2.8-34.4-5.5c-1.2-0.3-2.1-1.6-3.2-2.5c0.8-0.7,1.5-1.6,2.4-2.1c7-4.4,14.8-6.8,22.8-9.1
			c11.7-3.4,23.5-4.5,35.5-4.6c5.2,0,10.4-0.7,15.7-0.5c18.6,0.6,36.6,4.3,53,13.6c3.1,1.7,5.5,4.7,7.9,7.4
			c4.9,5.3,8.7,11.4,12,17.8c4,7.8,7,15.8,8.5,24.6c1.2,7.1,2.4,14.2,2.3,21.5c-0.1,6.7-1.8,13-4.5,19.1
			c-6.7,15.2-14,30.2-19.9,45.7c-4.3,11.3-7.3,23.3-9.7,35.1c-1.1,5.2,0.7,11,1.3,16.6c0.3,2.7,1,5.3,1.4,8c0.4,2.1-0.8,3.3-2.5,4.5
			c-7.4,5.6-16.1,8.2-24.5,11.8c-4.9,2.1-9.7,4.4-14.5,6.7c-9.8,4.7-19.4,9.6-29.3,14c-4.7,2.1-9.8,3.4-14.8,4.8
			c-3,0.8-6-1.2-7.6-4.6c-3.1-6.6-5.9-13.5-10.7-19.1c-5-5.9-11.2-9.2-19.2-9c-5.8,0.2-11.6,0.2-17.3-2c-3-1.2-6.8-0.3-10.3-0.3
			c-4.8,0-7.4-2.4-7.1-7.2c0.4-6.6,1.3-13.2,1.5-19.8C28.8,467.6,27.5,465.4,26.9,463.2L26.9,463.2z"/>
		<path d="M39.5,64.8C38,58.2,40,52.5,44,47.2c4.8-6.5,11.7-10.1,18.7-12.9c9.4-3.7,19.1-6.8,28.8-9.4c6-1.6,12.3-1.9,18.4-2.7
			c3.7-0.5,7.4-1.2,11-1.1c6.4,0.1,12.9,1,19.3,0.9c7.4-0.1,14.4,1.3,21.2,3.8c12.7,4.8,25.3,10.4,34.4,21c4.6,5.3,7.8,12,11.3,18.2
			c3.9,6.9,4,14.8,5.2,22.5c1.3,9-0.2,17.8-0.7,26.7c-0.1,1.9,0.2,3.2,2,4.4c2.8,1.8,3.7,5,3.9,8.1c0.5,6.8-0.9,13.2-4,19.5
			c-4.3,8.7-9.4,16.9-14.5,25.1c-5.3,8.8-9.9,18-14.7,27.1c-4.3,8.3-9.3,16-16.1,22.4c-9.5,8.8-19.2,17.4-29.2,25.7
			c-8.9,7.3-18.3,14.2-27.5,21.1c-4.7,3.5-7.2,3.3-11-1.2c-3-3.5-5.1-7.7-7.5-11.7c-2.4-4-4.8-8-6.9-12.1c-1.3-2.6-3.2-2.9-5.8-2.9
			c-4.2,0-8.5-0.4-12.7-0.6c-4-0.2-8.1-0.8-12.1-0.5c-7.9,0.7-11.1-1.7-12.5-9.6c-0.8-4.9-1.9-9.9-3-14.8c-0.2-1.1-0.8-2.2-1.3-3.3
			c0.3-0.1,0.7-0.2,1-0.3c0.9,3,1.9,5.9,2.6,9c0.9,4,1.6,8.2,2.4,12.2c0.8,3.7,3.1,5.6,6.8,5.5c2.8-0.1,5.7-0.6,8.5-0.5
			c3.6,0.1,7.2,0.6,10.7,1.2c8.1,1.2,15.7-0.4,22.6-4.6c8.4-5.1,16.7-10.6,24.7-16.3c7.7-5.5,15.1-11.6,22.7-17.3
			c6.1-4.6,12.4-9,18.6-13.5c4-3,8-5.9,11.7-9.2c4.1-3.6,7.1-8,7.9-13.6c0.1-0.6,0.7-1.1,1.4-2.2c0.4,3.8,0.6,6.7,1,9.7
			c0.3,2.2,1,4.2,3.3,5c2.8,1,6.2,1.7,8.3-0.7c3.9-4.4,7.2-9.3,11.1-14.3c-5.1-0.7-8.4,5.2-13.3,1.9c2.3-2.2,4.3-4.2,7.8-4.1
			c3.4,0.1,5.8-2.3,7.8-4.5c0.7-0.3,1.9-0.5,2.1-1c2.6-6.1,6.2-12,6.6-18.8c0.2-3-0.5-6.2-1.3-9.2c-0.9-3.1-5-5.3-8.5-4.9
			c-3.8,0.4-7.6,0.2-11.6,1.5c-5.1,1.7-10.7,1.9-16,2.6c-5,0.7-10,1.2-15.1,1.8c-0.6,0.1-1.1,0-2.1,0c-0.2-3.4-0.2-6.6-0.5-9.8
			c-0.9-7.9-1.6-15.9-2.9-23.8c-0.8-5.1-1.9-10.3-3.7-15.2c-3.3-8.8-9.4-15.4-17.4-20.3c-7.5-4.6-15.8-5.3-24.3-5.9
			c-12.1-0.8-23.3,2.5-34.4,6.5c-7.9,2.9-16,5.7-24.1,8C48.7,67.1,43.9,66.3,39.5,64.8L39.5,64.8z M70.7,48.6
			c-1.6,0.7-2.6,1.3-3.6,1.7c-0.9,0.4-2,0.5-3.4,0.9c-1.2,3.1-0.6,6.9,1.7,8.4c0.3-1.1,0.6-2.2,1-3.7c2.1,3.4,2.2,3.4,8.4-0.4
			c-0.2-1.7-0.4-3.5-0.6-5.7C72.2,51,70.9,51.2,70.7,48.6z M84.5,45.4c-0.9,0.3-2.1,0.4-2.9,0.9c-1.4,0.9-3.4,1.9-3.8,3.3
			c-1.1,3.5,1,5.4,4.6,4.4c0.6-0.2,1.5,0,1.9-0.4c0.7-0.7,1.5-1.7,1.4-2.6C85.5,49.1,84.9,47.1,84.5,45.4z M96.5,44.6
			c-2.3,0-4.5-0.4-6.5,0.2c-0.5,0.2-0.1,3.4-0.1,5.2C96.3,50.1,96.7,49.8,96.5,44.6z M59,51.7c-2.4,2.3-2.6,4.6-0.7,8.1
			C58.5,56.9,58.7,54.5,59,51.7z"/>
		<path d="M24.2,674.4c0,5-0.5,10.1,0.1,15c0.8,6.5,2.2,13,3.8,19.3c2.1,8.8,4.6,17.6,6.8,26.4c1.4,5.5,2,11.2,3.7,16.7
			c2,6.4,6,11.2,12.7,13.4c8.7,2.8,17.6,3.8,26.6,1.4c9.3-2.5,18.5-5.3,27.8-7.8c2.4-0.7,4.9-0.9,7.4-1.2
			c10.8-1.5,21.6-3.6,31.7-7.7c6.6-2.7,10-8.5,12.4-15.1c3.1-8.7,4.4-17.8,5.9-26.9c0.6-3.5,1.6-6.9,3-10.3
			c-0.2,1.2-0.4,2.5-0.6,3.7c-0.8,5.6,2.6,9.6,8.3,10c2.7,0.2,4.8-0.5,6.5-2.7c3-3.9,6.1-7.7,9.1-11.6c-0.1-0.2-0.3-0.5-0.4-0.7
			c-1.7,0.5-3.4,0.9-5,1.6c-3.5,1.4-3.5,1.4-7-0.3c2-1.4,3.7-2.6,5.5-3.9c3.6,1.7,7.6-0.2,10.7-5.3c0.1,0.7,0.3,1.2,0.5,2.4
			c0.9-1.5,1.7-2.5,2.3-3.7c2.3-5,4.7-9.9,6.6-15.1c0.7-1.8,0.1-4,0.3-6c0.3-2.3,1.5-4.7,1-6.7c-0.5-2.2-2.5-4.1-3.9-6.1
			c-0.6,0.4-1.4,0.7-1.6,1.2c-0.9,2.1-2.5,2.4-4.5,2.3c-3.8-0.1-5.4,1.9-5,5.1c2.7-0.1,5.5-0.9,8-0.3c3.2,0.8,4.5,6.9,2.4,9.5
			c-1.6,1.9-3.4,3.6-5.3,5.7c0.3-1.4,0.7-2.6,0.6-3.8c0-1.1-0.6-2.1-0.9-3.2c-0.9,0.5-2,0.8-2.6,1.5c-0.8,0.9-1.2,2.1-1.7,3.3
			c-0.5,1-0.9,1.9-1.5,3.1c1.2,1.5,1.3,7.5-0.2,10c-1.2-2.3-2.5-2.7-4.2-0.6c-0.3,0.3-1.2,0.5-1.6,0.3c-2.6-1.2-4.1,0.3-4.5,2.4
			c-0.6,3-2.3,4.2-5.2,4.6c-1.2,0.1-2.3,0.6-4,1.1c1.6-2.3,3-4,3.9-5.8c0.5-1.1,0.5-2.7,0.2-3.9c-0.7-3.1-3.1-2.1-5.2-1.7
			c-0.9-2.6,0.5-3.9,2.5-4.4c5.1-1.4,8.8-4,10.7-9.3c1-2.9,3.6-5.4,5.8-8.4c-1.5-0.5-2.6-1-3.7-1.1c-10-0.7-19.9-1.2-29.9-1.9
			c-0.8-0.1-2.1-0.9-2.2-1.6c-0.4-2.4-0.5-4.9-0.7-7.3c-1-10.3,2.2-19.8,4.6-29.6c2.1-8.4,2.7-17,1.4-25.6
			c-0.7-4.8-1.3-9.6-1.8-14.5c-0.1-1.4,0.4-2.8,0.7-4.5c-5.8-0.8-11.4-2.2-16.9-2.3c-8.1-0.1-16.3,0.5-24.4,1.1
			c-5,0.3-10.1,0.9-15.1,1.8c-8,1.5-15.9,3.1-23.8,5.1c-6.2,1.6-12.2,3.8-18.2,5.8c-3.8,1.2-7.4,1.6-11.3-0.1
			c-1.3-0.6-3.8,0.8-5.3,1.9c-6.5,4.8-9.7,11.7-11.4,19.2c-2.1,9.2-3.7,18.6-5.4,27.9c-0.2,1.2,0,2.5,0,4.2
			c9.1-1.8,16.8,2.3,24.5,5.2c3.7,1.4,7,4,8.9,8c2.3,4.7-0.5,9.4-5.9,9.5c-0.7-3.5-4.9-6.5-8.3-5.7c-0.6,0.2-1.3,1.3-1.5,2.1
			c-0.7,2.5-2.7,3.8-4.8,4.1c-1.5,0.2-3.2-1-5-1.7c-1.6,1.5-0.2,3.2,3.9,3.6c1.3,0.1,2.6,0,3.9,0.7c-3.2,0.5-6.5,1-10,1.5
			c0,0-0.3-0.4-0.8-1.1c-0.8,1.1-1.4,2.1-2.1,3c-0.2,0-0.4-0.1-0.6-0.1c0-1.3,0.2-2.7,0-4c-0.3-2.4-0.7-4.8-1.4-7
			c-1.2-3.5,0.8-5.9,5.4-6.1c1.9-0.1,3.8,0,6.4,0c-4.9-4.1-9.2-3.8-12.5,0.3c-0.6-0.9-1.5-1.8-1.9-2.9c-0.6-1.6-1.5-3.3-1.3-4.9
			c0.7-4.7,1.9-9.3,2.8-13.9c1.5-7.5,2.9-15,4.2-22.6c0.3-1.9-0.3-3.9-0.6-5.8c-1.6-14.2,2.6-26.1,14.4-34.7c4-2.9,8-5.8,12.2-8.5
			c6.8-4.4,14.5-6.3,22.2-8.2c9.5-2.3,19.2-2.8,28.9-2.3c13.6,0.7,26.6,4.1,39,9.6c0.4,0.2,0.7,0.5,1.8,1.3
			c-5.5-1.8-10.1-3.3-14.8-4.9c2,4.7,4.3,8.6,9.5,9.9c0.4-1,0.8-2.1,1.3-3.2c1.6,0.3,3.5,0.8,5.3,1c0.9,0.1,2.1,0.3,2.6-0.2
			c2-1.7,2.9-0.4,4.1,1c0.4,0.4,1,1,1.5,1c4.8-0.3,8.2,2.9,12.1,4.8c3.4,1.6,6.5,3.9,9.5,6.2c2.1,1.6,3.6,3.9,5.5,5.9
			c0.5,0.6,1.2,1.3,1.9,1.5c7.4,1.7,11.9,7,15.8,12.9c5.6,8.5,8.6,18,10.2,28.1c1.4,8.7,1.6,17.5,0.9,26.2
			c-0.4,5.6-2.5,11.1-3.8,16.6c-0.8,3.4-1.5,6.8-2.6,10.1c-1.4,4.2-3,8.3-4.5,12.5c-3.3,9.5-9.5,17.1-16.1,24.4
			c-4.8,5.3-8.5,11.3-10.8,18.1c-3.6,10.8-9.1,20.2-16.8,28.6c-11.1,12.1-24,21.8-38.1,30.1c-5.7,3.3-11.5,6.4-17,10
			c-7.3,4.8-14.4,3.3-21-0.8c-2.8-1.8-4.1-5.7-6.1-8.7c-4.1-6.3-6.7-13.2-9.1-20.2c-0.3-0.9-1.6-1.7-2.7-2.1
			c-4.6-1.6-9.5-2.6-13.9-4.6c-6.6-3.1-9.4-9-10.7-16s-3.2-13.9-4.9-20.9c-2.8-10.1-5.8-20.3-8-30.6c-1.5-7.3-1.1-14.7-0.4-22.1
			C23.6,674.4,23.9,674.4,24.2,674.4z M194.3,609.7c0.2,0,0.4,0,0.6,0c-0.1-2.6,0-5.3-0.5-7.9c-1.1-5.2-1.3-5.1-5.2-1.5
			c-0.2,0.2-0.5,0.2-0.3,0.1c-1.7-1.2-3.3-2.3-5-3.5c-2.5,1.4-8.9,0-11.9-3.5c1.5,4.2-0.1,8.5,3.8,11.3c0.5-1.1,0.9-2,1.3-3
			c1.8,0.4,3.6,2.6,4.9-0.4c0,0,0.9,0.2,1.2,0.5c1.9,1.8,3.8,3.1,6.1,1.6C191.1,605.6,192.7,607.7,194.3,609.7z M79.8,568.4
			c-1.4-4.5-4.4-5.2-7.9-1.6c-0.3,0.3-0.8,0.4-1.3,0.6c-1.1,0.3-2.1,0.5-3.7,0.9c1.6,1.6,1.9,4.6,4.1,2.8c2.4-2,3.9-1.1,5.2,0.1
			C77.4,570.2,78.5,569.4,79.8,568.4z M98.1,564c0,0.3,0,0.6,0.1,1c2.9-0.5,5.9-1,8.8-1.5c0.2-0.5,0.5-0.3,0.8,0s0.7,0.5,1.1,0.9
			C108.6,559.6,104.7,559.3,98.1,564z M53.6,575.2c0.7,2.6,1.9,3.4,3.6,2.3c0.6-0.4,1.3-1.9,1-2.3C56.4,572,55.5,576.2,53.6,575.2z
			 M96.2,563.6c-2.1-0.2-3.8-0.4-5.7-0.6C91.7,566.7,93.3,566.8,96.2,563.6z"/>
		<path d="M66.6,166.5c0-2.4,0.6-4.7-0.1-6.4c-0.8-1.9-8.4-2-9.7-0.3c-0.4,0.5-0.1,1.8,0.3,2.4c0.4,0.7,1.4,1,2,1.6
			c2,1.8,1.6,4.2-0.8,4.2c-4.7,0.1-9.6-0.1-14.2-1c-4.3-0.8-4.4-3.5-0.7-7.6c1.1-1.2,2.4-2.4,3.8-3.2c4.8-2.7,6.3-7.7,7.7-12.3
			c2.4-8.2,6.1-15.6,10.6-22.8c1.4-2.2,2.8-4.9,3-7.4c0.6-8,5.7-11.5,12.6-12.5c11-1.5,21.4-5.1,31.9-8.4c4.5-1.5,8.9-0.9,12.7,2.1
			c2.6,2,4.7,4.6,7.1,6.9c1.8,1.8,3.7,3.4,5.2,5.4c0.6,0.7,0.5,2.3,0.1,3.4c-0.5,1.3-1.5,2.5-2.3,3.7c-1.7,2.4-4.2,2.2-5.8-0.3
			c-1.9-3.1-3.8-6.3-6.2-9c-2.8-3.2-6.9-3.7-10.9-3.2c-4.9,0.6-9.9,1.1-14.6,2.4c-7,2-13.8,4.6-19.1,10c-1.8,1.8-3.3,3.7-2.2,6.7
			c0.7,2.1-0.6,3.7-2.7,4.5c-8,3.1-11.9,9.2-14,17.3c-1.5,5.9,2.1,11.3,7.3,13.6c1.9,0.9,4,1.7,5.5,3c0.7,0.7,0.8,3.1,0.1,3.9
			C71.5,165.7,69,167,66.6,166.5z"/>
		<path d="M63.5,369.1c4.8,0.1,9.8,0,14.3,2.3c6.5,3.2,12.9,6.6,19.3,9.8c0.7,0.3,1.4,0.6,2.1,0.8c-0.1,0.3-0.1,0.6-0.2,0.9
			c-3.2-0.5-6.4-1-9.5-1.6c-6.1-1.2-12-3.4-18.1-3.6c-6.2-0.3-12.8,0.4-18.1,4.3c-4.6,3.4-3.7,9.7-0.1,13c0.4,0.4,1.2,1.2,1.1,1.4
			c-0.4,0.7-1.1,1.8-1.7,1.8c-9,0-11.5,6.5-13.4,13.5c-0.7,2.5-1,5.1-1.3,7.7c-0.3,2.9,1.1,4.9,3.7,6.3c1.6,0.8,3.3,1.7,4.7,2.8
			c3,2.3,2.9,5.9-0.5,7.6c-2.5,1.3-5.4,1.7-8.1,2.6c-1-3.5,3.4-6.4-0.4-8.8c-2.2-1.4-4.8-1-7.7,0.5c1.3,1.6,2.5,3,3.4,4.5
			c0.4,0.6,0.7,1.8,0.4,2.4s-1.5,1.3-2,1.1c-1.9-0.7-2.5,0.5-2.8,1.7c-1,3.4-1.7,6.8-2.6,10.2c-0.3-0.1-0.6-0.1-0.9-0.2
			c0.3-1.5,0.6-3.1,1-4.6c0.3-1.2,0.8-2.4,1.2-3.6c0.9-3.2,0.6-3.5-2.6-3.8c-3.4-0.3-6.9-0.8-9.7-1.1c-0.2-1.9-0.4-3.1-0.4-4.3
			c0.1-1.5-0.1-3.7,0.8-4.4c4.4-3.7,6.3-8.7,7.9-13.7c2.5-7.5,6.6-13.9,12.4-19.1c3.8-3.4,5.8-7.4,6.8-12.2
			c1.1-5.5,5.1-7.9,10.7-6.9c4.9,0.9,9.9,1.1,14.7-0.6c0.9-0.3,1.5-1.4,2.2-2.2c-0.7-0.7-1.4-1.5-2.2-2c-1.5-0.7-3-1.1-4.6-1.6
			C63.5,369.6,63.5,369.4,63.5,369.1z"/>
		<path d="M126.2,651c-2.5,3.8-4.9,1.5-7.5,0.3c-2.3-1.1-4.7-2.3-7.2-3c-5.3-1.4-9.9,1-14.6,3.1c11.6-0.6,20.4,6.5,30.5,9.8
			c0,0.4-0.1,0.9-0.1,1.3c-2.4,0-4.8,0.3-7.2,0.1c-2.1-0.2-3.6-0.1-3.4,2.1c-2.9,0.6-5.7,1.1-8.5,1.6c-0.1-0.3-0.2-0.6-0.3-0.9
			c2.1-0.9,4.2-1.8,7-3c-2.5-1.5-4.5-2.8-6.6-3.7c-0.6-0.3-2.1,0.4-2.4,1c-2.7,5.1-6.9,5.6-10.2,1c-0.2-0.2-0.5-0.3-1.4-0.3
			c0.3,1.4,0.7,2.8,1,4.2c-0.1,0.2-0.3,0.5-0.4,0.7c-0.8-0.6-1.6-1.3-2.5-1.9c-0.5-0.3-1.1-0.5-1.6-0.5c-1.1,0-2.1,0.2-2.5-0.4
			c-0.8-1.3-1.2-3-2.3-3.7c-3.1-2.1-6.6-3.7-9.8-5.7c-4.5-2.8-4.1-5.4-0.1-8.5c3.9-2.9,8.2-2,12.3-2.6c6.5-0.9,13.1-0.7,19.6-1.4
			c4.9-0.5,8.4,2.2,11.9,4.7C122.2,646.8,124.1,649.1,126.2,651z"/>
		<path d="M39.4,64.7c-0.1,1.4-0.1,2.9-0.4,4.3c-0.9,5.3-2.2,10.6-2.8,16c-0.9,7.8-4.4,14.3-8.9,20.6c-1.1,1.5-1.6,3.4-2.4,5.1
			c0.2,0.2,0.4,0.3,0.7,0.5c1.9-0.9,3.6-2.1,5.6-2.7c1.3-0.4,3.2-0.4,4.2,0.3c4.6,3.3,9,6.8,13.4,10.3c1,0.9,1.7,2.2,2.5,3.4
			c-0.3,0.4-0.6,0.7-0.9,1.1c-2.5-1.1-5.1-2.1-7.4-3.4c-3.6-2-7.1-4.4-10.7-6.3c-2.7-1.4-4.9,0.6-7.8,1.7c1.3,3.5,2.6,6.8,3.9,10.5
			c2.3-1,4.3-1.5,5.8-2.5c4.8-3.1,9.4-0.9,14,0.4c0.4,0.1,1,1.2,0.9,1.6c-0.3,0.8-0.9,2.1-1.5,2.2c-1.7,0.4-2,1.2-2,2.7
			c0,2.5-4.4,5.7-6.3,4.3c-2.3-1.7-4.4-0.3-6.9-0.8c1.4,4.4-0.1,8.1-1.3,12.1c-1.3,4.3-0.9,9.2-1.2,13.7c-1.3-4.4-1.7-9,0.2-13.6
			c1.5-3.7,2.7-7.5,1.2-11.6c-0.6-1.6-1.4-2.6-3.4-2.5c-1.3,0.1-2.7-0.5-4.7-0.9c1.2-0.9,1.9-1.4,2.5-1.8c-1-0.8-2-1.5-3-2.3
			c0.2-0.3,0.3-0.5,0.5-0.8c1.3,0.1,2.7,0.3,4.8,0.5c-1.2-2.3-2.3-3.8-2.9-5.5c-2.6-6.8-1.9-12.9,2.8-18.8
			c4.1-5.1,6.2-11.3,7.1-17.9c0.7-5.6,1.5-11.2,2.5-16.7C37.6,66.8,38.7,65.8,39.4,64.7C39.5,64.8,39.4,64.7,39.4,64.7z"/>
		<path d="M129.1,124c0.4,2.7-0.5,4-2.8,3.9c-4.1-0.3-8.1-0.9-12.2-1c-2.7-0.1-5.5,0.2-6.7,2.8c-2.7,0-5.2,0.1-7.7,0
			c-1.6-0.1-3.4-0.1-4.9-0.7c-1.4-0.6-2.5-2-3.9-3.1c-2.6,2.4-6.6,2.5-8.8,0.1c0.5-1.8,1-3.3,1.5-4.8c0.8-2.9,6.1-6.8,9.7-7
			c4.3-0.2,8.4,0.5,12.4,2.3c2.7,1.2,5.8,1.8,8.8,2.3c2.4,1.9,4.6,4.4,8.3,4.3c0.3,0,0.9,0.1,1,0.3
			C124.9,126.8,126.8,125.7,129.1,124z M101.4,127.1c3.3-0.6,6.1-1.1,8.8-1.5C103.6,121.1,102.7,121.2,101.4,127.1z"/>
		<path d="M207.2,140.5c-0.2-2.8-0.3-5-0.5-7.2c-0.5-0.1-1.1-0.2-1.6-0.3c-1,2-1.9,4-2.9,5.9c-0.5,1.1-1.2,2-1.9,3.1
			c2.1,1.8,2.7,6.1,1.5,8.6c-2,0.5-3.3,0.7-4.6,1.1c-0.6,0.2-1.4,0.8-1.8,0.6c-3.4-1.2-4.8,0.8-4.9,3.6c0,2.4-1.2,3-3,3.6
			s-3.5,1.3-5.6,1.4c0.8-1.1,1.7-2.1,2.2-3.3c0.7-1.7,0.8-3.5,1.5-5.2s1.6-3.6,2.9-4.9c2.5-2.5,4.2-5.4,5.2-8.9
			c1.1-3.8,3-7.5,4.6-11.2c0.2-0.5,1-0.9,1.7-1.1c1.2-0.4,2.6-0.4,3.7-0.8c3.1-1.2,5.6-0.9,7.4,1.2c1.4,1.6,1.6,6.5,0.3,8.4
			c-0.7,1-1.5,1.8-2.2,2.7C208.7,138.5,208.1,139.3,207.2,140.5z"/>
		<path d="M170.9,391.1c-0.3-1.7-0.4-3-0.7-4.3c-0.1-0.6-0.6-1.6-1-1.6c-0.6,0-1.5,0.4-1.9,0.9c-1.7,2.3-2.2,4.8-1.7,7.7
			c0.5,3.1,0.8,6.3,1.1,8.5c-1.9,0.5-3.2,1-4.5,1.1c-4.5,0.3-6.2,2.8-7.1,7.1c-0.3,1.5-3.7,2.4-5.7,3.5c-0.2-0.3-0.4-0.6-0.7-0.8
			c0.6-1,1.7-2,1.8-3.1c0.6-7.7,6-13.6,7.3-21c1-5.4,4.6-9.1,9.4-11.5c2.1-1,4.6-1.1,6.5,0.8c1.6,1.6,1.8,6.5,0.5,8.4
			C173.2,388.1,172.2,389.3,170.9,391.1z"/>
		<path d="M92,726.2c-0.8,0.2-1,0.4-1.2,0.4c-8.5,0.2-16.9,0.3-25.4,0.6c-5.9,0.2-11.6-0.3-17.3-2.3c-2-0.7-4.3-0.4-6.4-0.8
			c-1.7-0.3-2.1-1.6-0.7-2.7c2.4-1.8,4.9-3.4,7.5-4.8c0.8-0.4,2.3-0.2,3.1,0.3c2.3,1.7,4.6,1.1,7.2,0.8c2.8-0.3,5.8-0.1,8.5,0.6
			c7.2,1.8,14.3,3.9,21.4,6C89.7,724.7,90.6,725.5,92,726.2z"/>
		<path d="M73.7,398.9c-1.8-2.6-3.6-5.2-5.3-7.7c0,0,0.2,0.6,0,1.1c-0.3,0.8-0.9,1.5-1.4,2.3c-1.6-1.7-3.8-3.2-4.6-5.2
			c-0.7-1.7,0.2-4.1,0.4-6.1c2.1-0.2,4.4-0.8,6.6-0.5c2.6,0.3,5.1,1.3,7.7,2c2.2,0.6,4.4,1.5,6.7,1.8c3.5,0.4,7,0.3,10.4,0.6
			c0.6,0.1,1.6,1.1,1.5,1.7c0,0.7-0.8,1.7-1.4,2c-3.4,1.7-6.9,3.4-10.4,4.9c-2.5,1-4.7,3-7.8,1.8C75.6,397.5,74.8,398.3,73.7,398.9z
			 M75.6,395c2.5,1.1,7.8-0.3,10.3-2.8c-2.8-2.8-7.7-4-10.3-2.6C75.6,391.3,75.6,393,75.6,395z"/>
		<path d="M43.9,686.1c0.7,1,0.9,1.1,0.9,1.3c0.7,6.3,3.2,8.1,9.1,5.8c4-1.6,7.3-1.1,10.5,1.6c1.3,1,2.7,1.9,4.1,2.7
			c3.2,1.6,6,0.1,8.7-1.9c0.8,3.4-1.7,4.9-3.5,6.5c-1.5,1.3-3.2,1-5.1-0.2c-3.8-2.5-8-1.9-12.3-0.9c-3.2,0.7-6.7,0.4-10,0
			c-2.3-0.3-4.7-4-4.4-6.4C42.4,691.8,43.2,689.3,43.9,686.1z"/>
		<path d="M28,1033.5c-3.2-0.5-6.4-4.4-6.1-8.4c0.4-5.1,1.3-10.2,2.1-15.3c0.4-2.5,0.7-4.8-1.8-6.8c-1-0.8-1.6-3.3-1.2-4.7
			c0.9-2.8,2.1-5.4,0.1-8.1c3.8-1.7,7-0.8,10.3,0.5c2.7,1.1,5.8,1.4,8.7,1.9c3.1,0.5,6.2,0.8,9.3,1c1.6,0.1,3.3-0.2,5-0.4
			c0.1,0.3,0.2,0.6,0.3,0.9c-1.5,0.7-2.9,1.4-4.4,2.1c-1.9,1-4.1,1.6-5.5,3.1c-4.8,5.1-10.9,5.1-17.1,5.3c-0.5,0-1,0-1.5,0
			c-0.2,0-0.3,0.1,0,0c-1.1,5.6-2.3,10.9-3.1,16.2C22.3,1025.8,23.4,1030.4,28,1033.5C27.9,1033.5,28,1033.5,28,1033.5z M45.5,995.9
			c-0.4-0.4-0.6-0.7-0.9-0.7c-6.5-0.3-12.9-0.7-19.4-0.6c-2.6,0-2.9,2.7-3,4.6c-0.1,1.1,0.7,2.8,1.5,3.3c1.2,0.6,2.9,0.5,4.4,0.4
			c2.4-0.3,4.8-0.7,7.1-1.2C39.2,1000.7,42.5,998.7,45.5,995.9z"/>
		<path d="M37.6,198c-0.3-2.9,2.3-5.7,5.8-5.9c9-0.5,17.9,0.1,26.8,2.6c3.3,0.9,7.1-0.2,10.7-0.3c0.9,0,1.8,0.4,2.6,0.6
			c-0.5,0.7-1,1.9-1.6,2c-2.4,0.5-5.1,1.4-7.4,0.9c-6.4-1.3-12.7-1.1-19.2,0c-2,0.4-4.4,0-6.3-0.7c-3.6-1.3-6.9-1.7-10.2,0.6
			C38.4,198.1,37.9,197.9,37.6,198z"/>
		<path d="M16.2,415.7c2.7-7.9,6.8-14.9,12-21.3c0.7-0.8,1.3-1.7,2-2.5c2.3-2.9,1.7-4.4-2.1-5s-5.2-2.1-5.4-6
			c1.4,0.7,2.7,1.4,4.7,2.3c-1.1-1.7-1.8-2.8-2.1-3.2c0.5-1.9,1.4-3.6,1-4.2c-0.9-1.1-2.3-3.1-4.2-0.9c-2.9-3.3-0.7-6.3,0.4-9.4
			c-0.4,2.2-0.8,4.4-1.2,6.5c5.7,0,8.8,3.6,11.8,7c1.3,1.4,2.2,3.2,3,5c0.3,0.8,0.2,2.3-0.3,2.9C27.8,395.6,21.6,405.4,16.2,415.7z"
			/>
		<path d="M66,737.9c-6.1-2-11.5-1.3-17,1.8c2.8-3.4,6.1-6.6,0.8-10.5c2.7,0.5,5.5,1.4,8.2,1.5c2.8,0.1,5.7-0.7,8.9-1.1
			C66.7,732.4,62.3,734.5,66,737.9z"/>
		<path d="M26.9,463.2c0.1-1.6-0.2-3.4,0.5-4.7c1.1-2.1,1.8-4,0-5.7c12.1-0.6,24-0.6,32.2,10.6c-1.6-1-3.3-1.8-4.7-2.9
			c-4.1-3.4-9.1-3.4-14-4c-2.4-0.3-4.8-0.5-7.3-0.6c-4.2-0.2-4.5,0.1-5.8,4.3C27.4,461.1,27.1,462.2,26.9,463.2L26.9,463.2z"/>
		<path d="M42.7,206.4c10.7,2.7,21,2,31.1-3c0.4,4.2-2.4,4.3-4.4,5.3c-5.8,2.8-11.9,1.2-17.9,1.2c-2.4,0-4.9-0.3-7.3-0.6
			c-0.7-0.1-1.3-1-2-1.5C42.5,207.3,42.6,206.9,42.7,206.4z"/>
		<path d="M71.9,450.8c-4.7-5.6-9.5-11.3-14.2-17.1c-2.8-3.4-2.4-7.4-0.9-11.3c0.3,1.9,0.4,3.9,0.8,5.8c0.9,4.8,4.1,8.3,7.4,11.6
			c3,3,5.6,6.2,6.8,10.4C71.8,450.5,71.9,450.8,71.9,450.8z"/>
		<path d="M31.7,320.7c-4.8,11.8-6.5,24.2-7.5,36.9C24.2,344.7,26,332.3,31.7,320.7z"/>
		<path d="M34.6,175.2C37,182,36.5,190,35.4,198c-0.3,0-0.5,0-0.8,0C34.6,190.1,34.6,182.2,34.6,175.2z"/>
		<path d="M52.5,299.9c-2.9,2.3-5.9,4.6-8.8,6.8c-0.2-0.2-0.3-0.5-0.5-0.7c3-2.3,5.9-4.5,8.9-6.8C52.2,299.5,52.4,299.7,52.5,299.9z
			"/>
	</g>
	<path d="M234,0v1080h262V0H234z M482.6,100.9v37c0,1.6-0.9,2-2.1,0.9l-4.7-4.7c-1.1-1.1-2.1-3.4-2.1-5v-4.9c0-1.6,0.6-3.6,1.4-4.4
		s1.6-1.7,1.9-2.1c0,0,0,0,0-0.4c0-0.4,0-0.4,0-0.4c-0.2-0.4-1.1-1.3-1.9-2.1c-0.8-0.8-1.4-1.8-1.4-3.4v-1.7c0-1.6,0.9-3.9,2.1-5
		l4.7-4.7C481.6,98.9,482.6,99.2,482.6,100.9z M445,962.8l-0.3,0.3c-1.1,1.1-3,1.1-4.2,0l-0.3-0.3c-1.1-1.1-2.1-3.4-2.1-5v-8.8
		c0-1.6,0.9-3.9,2.1-5l0.3-0.3c1.1-1.1,3-1.1,4.2,0l0.3,0.3c1.1,1.1,2.1,3.4,2.1,5v8.8C447.1,959.4,446.1,961.7,445,962.8z
		 M447.1,973.6c0,0.9-0.9,2.5-2.1,3.6l-0.3,0.3c-1.1,1.1-3,1.1-4.2,0l-0.3-0.3c-1.1-1.1-2.1-2.8-2.1-3.6c0-0.9,0.9-2.5,2.1-3.6
		l0.3-0.3c1.1-1.1,3-1.1,4.2,0l0.3,0.3C446.1,971.1,447.1,972.8,447.1,973.6z M445,906.1l-0.5,0.5c-1.1,1.1-3,1.1-4.2,0l0,0
		c-1.1-1.1-2.1-2.9-2.1-3.9s0.9-2.7,2.1-3.9l0,0c1.1-1.1,3-1.1,4.2,0l0.5,0.5c1.1,1.1,2.1,2.7,2.1,3.4S446.1,905,445,906.1z
		 M445,891.7l-0.5,0.5c-1.1,1.1-3,1.1-4.2,0l0,0c-1.1-1.1-2.1-3.4-2.1-5v-4.6c0-1.6,0.9-3.9,2.1-5l0,0c1.1-1.1,3-1.1,4.2,0l0.5,0.5
		c1.1,1.1,2.1,3.4,2.1,5v3.7C447.1,888.3,446.1,890.5,445,891.7z M440.3,253.9L440.3,253.9c1.2-1.2,3.1-1.2,4.2,0l0.5,0.5
		c1.1,1.1,2.1,2.7,2.1,3.4s-0.9,2.3-2.1,3.4l-0.5,0.5c-1.1,1.1-3,1.1-4.2,0l0,0c-1.1-1.1-2.1-2.9-2.1-3.9S439.2,255,440.3,253.9z
		 M438.2,242.1v-4.6c0-1.6,0.9-3.9,2.1-5l0,0c1.1-1.1,3-1.1,4.2,0l0.5,0.5c1.1,1.1,2.1,3.4,2.1,5v3.7c0,1.6-0.9,3.9-2.1,5l-0.5,0.5
		c-1.1,1.1-3,1.1-4.2,0l0,0C439.2,246,438.2,243.7,438.2,242.1z M440.4,576.4c1.1-1.1,3-1.1,4.2,0l0.5,0.5c1.1,1.1,2.1,3.4,2.1,5
		v3.7c0,1.6-0.9,3.9-2.1,5l-0.5,0.5c-1.1,1.1-3,1.1-4.2,0l0,0c-1.1-1.1-2.1-3.4-2.1-5v-4.6C438.2,579.9,439.2,577.6,440.4,576.4
		L440.4,576.4z M440.3,597.9L440.3,597.9c1.2-1.2,3.1-1.2,4.2,0l0.5,0.5c1.1,1.1,2.1,2.7,2.1,3.4s-0.9,2.3-2.1,3.4l-0.5,0.5
		c-1.1,1.1-3,1.1-4.2,0l0,0c-1.1-1.1-2.1-2.9-2.1-3.9S439.2,599,440.3,597.9z M472,762.5l-19.8-1.4c-1.6-0.1-3.9-1.1-5-2.3l-1.1-1.1
		c-1.1-1.1-1.3-2.9-0.2-3.9c1-1,3.2-1.7,4.8-1.6l21.7,1.5c1.6,0.1,3.9,1.1,5,2.3l0.1,0.1c1.1,1.1,1.1,3,0,4.2l-0.4,0.4
		C475.9,761.8,473.6,762.6,472,762.5z M472.6,833.1l5.4,5.4c1.1,1.1,0.8,2-0.9,1.9l-25.2-1.8c-1.6-0.1-3.9-1.1-5-2.3l-0.4-0.4
		c-1.1-1.1-1.1-3,0-4.2l0.1-0.1c1.1-1.1,3.4-2,5-1.9l15.9,1.1C469.2,830.9,471.5,831.9,472.6,833.1z M477.1,681.3l-25.2-1.8
		c-1.6-0.1-3.9-1.1-5-2.3l-0.4-0.4c-1.1-1.1-1.1-3,0-4.2l0.1-0.1c1.1-1.1,3.4-2,5-1.9l15.9,1.1c1.6,0.1,3.9,1.1,5,2.3l5.4,5.4
		C479.1,680.6,478.8,681.4,477.1,681.3z M452,614.5c-1.6-0.1-3.9-1.1-5-2.3l-0.4-0.4c-1.1-1.1-1.1-3,0-4.2l0.1-0.1
		c1.1-1.1,3.4-2,5-1.9l16,1.1c1.6,0.1,3.9,1.1,5,2.3l5.4,5.4c1.1,1.1,0.8,2-0.9,1.9L452,614.5z M478.5,572.3l-4.1,4.1
		c-1.1,1.1-3.4,2-5,1.9L452,577c-1.6-0.1-3.9-1.1-5-2.3l-0.4-0.4c-1.1-1.1-1.1-3,0-4.2l0.1-0.1c1.1-1.1,3.4-2,5-1.9l25.8,1.8
		C479.2,570.1,479.6,571.1,478.5,572.3z M477.1,536.3l-25.2-1.8c-1.6-0.1-3.9-1.1-5-2.3l-0.4-0.4c-1.1-1.1-1.1-3,0-4.2l0.1-0.1
		c1.1-1.1,3.4-2,5-1.9l15.9,1.1c1.6,0.1,3.9,1.1,5,2.3l5.4,5.4C479.1,535.6,478.8,536.4,477.1,536.3z M451.9,476.5
		c-1.6-0.1-3.9-1.1-5-2.3l-0.4-0.4c-1.1-1.1-1.1-3,0-4.2l0.1-0.1c1.1-1.1,3.4-2,5-1.9l15.9,1.1c1.6,0.1,3.9,1.1,5,2.3l5.4,5.4
		c1.1,1.1,0.8,2-0.9,1.9L451.9,476.5z M451.9,409.5c-1.6-0.1-3.9-1.1-5-2.3l-0.4-0.4c-1.1-1.1-1.1-3,0-4.2l0.1-0.1
		c1.1-1.1,3.4-2,5-1.9l15.9,1.1c1.6,0.1,3.9,1.1,5,2.3l5.4,5.4c1.1,1.1,0.8,2-0.9,1.9L451.9,409.5z M469.2,373.3l-17.3-1.2
		c-1.6-0.1-3.9-1.1-5-2.3l-0.4-0.4c-1.1-1.1-1.1-3,0-4.2l0.1-0.1c1.1-1.1,3.4-2,5-1.9l25.8,1.8c1.6,0.1,2,1.1,0.9,2.3l-4.1,4.1
		C473.1,372.6,470.8,373.4,469.2,373.3z M477.1,328.3l-25.2-1.8c-1.6-0.1-3.9-1.1-5-2.3l-0.4-0.4c-1.1-1.1-1.1-3,0-4.2l0.1-0.1
		c1.1-1.1,3.4-2,5-1.9l15.9,1.1c1.6,0.1,3.9,1.1,5,2.3l5.4,5.4C479.1,327.6,478.8,328.4,477.1,328.3z M452,270.5
		c-1.6-0.1-3.9-1.1-5-2.3l-0.4-0.4c-1.1-1.1-1.1-3,0-4.2l0.1-0.1c1.1-1.1,3.4-2,5-1.9l16,1.1c1.6,0.1,3.9,1.1,5,2.3l5.4,5.4
		c1.1,1.1,0.8,2-0.9,1.9L452,270.5z M478.5,228.3l-4.1,4.1c-1.1,1.1-3.4,2-5,1.9L452,233c-1.6-0.1-3.9-1.1-5-2.3l-0.4-0.4
		c-1.1-1.1-1.1-3,0-4.2l0.1-0.1c1.1-1.1,3.4-2,5-1.9l25.8,1.8C479.2,226.1,479.6,227.1,478.5,228.3z M445.7,177.8
		c1-1,3.2-1.7,4.8-1.6l21.7,1.5c1.6,0.1,3.9,1.1,5,2.3l0.1,0.1c1.1,1.1,1.1,3,0,4.2l-0.4,0.4c-1.1,1.1-3.4,2-5,1.9l-19.8-1.4
		c-1.6-0.1-3.9-1.1-5-2.3l-1.1-1.1C444.8,180.5,444.7,178.8,445.7,177.8z M477.1,142.3l-25.2-1.8c-1.6-0.1-3.9-1.1-5-2.3l-0.4-0.4
		c-1.1-1.1-1.1-3,0-4.2l0.1-0.1c1.1-1.1,3.4-2,5-1.9l15.9,1.1c1.6,0.1,3.9,1.1,5,2.3l5.4,5.4C479.1,141.6,478.8,142.4,477.1,142.3z
		 M469.2,104.3l-17.3-1.2c-1.6-0.1-3.9-1.1-5-2.3l-0.4-0.4c-1.1-1.1-1.1-3,0-4.2l0.1-0.1c1.1-1.1,3.4-2,5-1.9l25.8,1.8
		c1.6,0.1,2,1.1,0.9,2.3l-4.1,4.1C473.1,103.6,470.8,104.4,469.2,104.3z M477.3,72.1L452,70.4c-1.6-0.1-3.9-1.1-5-2.3l-0.4-0.4
		c-1.1-1.1-1.1-3,0-4.2l0.1-0.1c1.1-1.1,3.4-2,5-1.9l16,1.1c1.6,0.1,3.9,1.1,5,2.3l5.4,5.4C479.3,71.4,478.9,72.3,477.3,72.1z
		 M445,61l-0.5,0.5c-1.1,1.1-3,1.1-4.2,0l0,0c-1.1-1.1-2.1-2.9-2.1-3.9c0-1,0.9-2.7,2.1-3.9l0,0c1.1-1.1,3-1.1,4.2,0l0.5,0.5
		c1.1,1.1,2.1,2.7,2.1,3.4C447.1,58.3,446.1,59.8,445,61z M438.3,63.5c1.1,1.1,1.3,2.9,0.2,3.9c-1,1-3.2,1.8-4.8,1.6l-23.1-1.6
		c-1.6-0.1-2-1.1-0.9-2.3l4.1-4.1c1.1-1.1,3.4-2,5-1.9l13.3,0.9c1.6,0.1,3.9,1.1,5,2.3L438.3,63.5z M409.6,91.3l22.5,1.6
		c1.6,0.1,3.9,1.1,5,2.3l1.1,1.1c1.1,1.1,1.2,2.9,0.2,3.9c-1,1-3.2,1.8-4.8,1.6l-14.6-1c-1.6-0.1-3.9-1.1-5-2.3l-5.4-5.4
		C407.6,92,408,91.2,409.6,91.3z M432.1,130.3c1.6,0.1,3.9,1.1,5,2.3l1.1,1.1c1.1,1.1,1.2,2.9,0.2,3.9s-3.2,1.8-4.8,1.6l-23.1-1.6
		c-1.6-0.1-2-1.1-0.9-2.3l4.1-4.1c1.1-1.1,3.4-2,5-1.9L432.1,130.3z M416.3,175.7c1-1,3.2-1.8,4.8-1.6l13,0.9c1.6,0.1,3.9,1.1,5,2.3
		l0.2,0.2c1.1,1.1,1.1,3,0,4.2L439,182c-1.1,1.1-3.4,2-5,1.9l-11.4-0.8c-1.6-0.1-3.9-1.1-5-2.3l-1.1-1.1
		C415.4,178.5,415.3,176.7,416.3,175.7z M432.1,222.8c1.6,0.1,3.9,1.1,5,2.3l1.1,1.1c1.1,1.1,1.3,2.9,0.2,3.9c-1,1-3.2,1.8-4.8,1.6
		l-14.6-1c-1.6-0.1-3.9-1.1-5-2.3l-5.4-5.4c-1.1-1.1-0.8-2,0.9-1.9L432.1,222.8z M432.1,260.3c1.6,0.1,3.9,1.1,5,2.3l1.1,1.1
		c1.1,1.1,1.3,2.9,0.2,3.9s-3.2,1.8-4.8,1.6l-23.1-1.6c-1.6-0.1-2-1.1-0.9-2.3l4.1-4.1c1.1-1.1,3.4-2,5-1.9L432.1,260.3z
		 M409.7,321.4l4.1-4.1c1.1-1.1,3.4-2,5-1.9l13.2,0.9c1.6,0.1,3.9,1.1,5,2.3l1.1,1.1c1.1,1.1,1.2,2.9,0.2,3.9s-3.2,1.8-4.8,1.6
		l-23.1-1.6C409,323.5,408.6,322.5,409.7,321.4z M409.6,360.3l22.5,1.6c1.6,0.1,3.9,1.1,5,2.3l1.1,1.1c1.1,1.1,1.2,2.9,0.2,3.9
		c-1,1-3.2,1.8-4.8,1.6l-14.6-1c-1.6-0.1-3.9-1.1-5-2.3l-5.4-5.4C407.6,361,408,360.2,409.6,360.3z M409.7,404.4l4.1-4.1
		c1.1-1.1,3.4-2,5-1.9l13.2,0.9c1.6,0.1,3.9,1.1,5,2.3l1.1,1.1c1.1,1.1,1.2,2.9,0.2,3.9s-3.2,1.8-4.8,1.6l-23.1-1.6
		C409,406.5,408.6,405.5,409.7,404.4z M432.1,466.3c1.6,0.1,3.9,1.1,5,2.3l1.1,1.1c1.1,1.1,1.2,2.9,0.2,3.9s-3.2,1.8-4.8,1.6
		l-23.1-1.6c-1.6-0.1-2-1.1-0.9-2.3l4.1-4.1c1.1-1.1,3.4-2,5-1.9L432.1,466.3z M409.7,529.4l4.1-4.1c1.1-1.1,3.4-2,5-1.9l13.2,0.9
		c1.6,0.1,3.9,1.1,5,2.3l1.1,1.1c1.1,1.1,1.2,2.9,0.2,3.9s-3.2,1.8-4.8,1.6l-23.1-1.6C409,531.5,408.6,530.5,409.7,529.4z
		 M409.6,565.2l22.6,1.6c1.6,0.1,3.9,1.1,5,2.3l1.1,1.1c1.1,1.1,1.3,2.9,0.2,3.9c-1,1-3.2,1.8-4.8,1.6l-14.6-1
		c-1.6-0.1-3.9-1.1-5-2.3l-5.4-5.4C407.6,565.9,408,565.1,409.6,565.2z M432.1,604.3c1.6,0.1,3.9,1.1,5,2.3l1.1,1.1
		c1.1,1.1,1.3,2.9,0.2,3.9s-3.2,1.8-4.8,1.6l-23.1-1.6c-1.6-0.1-2-1.1-0.9-2.3l4.1-4.1c1.1-1.1,3.4-2,5-1.9L432.1,604.3z
		 M432.1,669.3c1.6,0.1,3.9,1.1,5,2.3l1.1,1.1c1.1,1.1,1.2,2.9,0.2,3.9s-3.2,1.8-4.8,1.6l-23.1-1.6c-1.6-0.1-2-1.1-0.9-2.3l4.1-4.1
		c1.1-1.1,3.4-2,5-1.9L432.1,669.3z M416.3,751.7c1-1,3.2-1.8,4.8-1.6l13,0.9c1.6,0.1,3.9,1.1,5,2.3l0.2,0.2c1.1,1.1,1.1,3,0,4.2
		L439,758c-1.1,1.1-3.4,2-5,1.9l-11.4-0.8c-1.6-0.1-3.9-1.1-5-2.3l-1.1-1.1C415.4,754.5,415.3,752.7,416.3,751.7z M418.8,827.4
		l13.2,0.9c1.6,0.1,3.9,1.1,5,2.3l1.1,1.1c1.1,1.1,1.2,2.9,0.2,3.9s-3.2,1.8-4.8,1.6l-23.1-1.6c-1.6-0.1-2-1.1-0.9-2.3l4.1-4.1
		C415,828.1,417.2,827.3,418.8,827.4z M409.6,866.2l22.6,1.6c1.6,0.1,3.9,1.1,5,2.3l1.1,1.1c1.1,1.1,1.3,2.9,0.2,3.9
		c-1,1-3.2,1.8-4.8,1.6l-14.6-1c-1.6-0.1-3.9-1.1-5-2.3l-5.4-5.4C407.6,866.9,408,866.1,409.6,866.2z M432.1,905.3
		c1.6,0.1,3.9,1.1,5,2.3l1.1,1.1c1.1,1.1,1.3,2.9,0.2,3.9s-3.2,1.8-4.8,1.6l-23.1-1.6c-1.6-0.1-2-1.1-0.9-2.3l4.1-4.1
		c1.1-1.1,3.4-2,5-1.9L432.1,905.3z M432.7,976.6c1.6,0.1,3.9,1.1,5,2.3l0.8,0.8c1.1,1.1,1.2,3,0.1,4.1s-3.3,1.9-4.9,1.8l-23.1-1.6
		c-1.6-0.1-2-1.1-0.9-2.3l4.1-4.1c1.1-1.1,3.4-2,5-1.9L432.7,976.6z M409.6,1008l22.6,1.6c1.6,0.1,3.9,1.1,5,2.3l1.1,1.1
		c1.1,1.1,1.3,2.9,0.2,3.9c-1,1-3.2,1.8-4.8,1.6l-14.6-1c-1.6-0.1-3.9-1.1-5-2.3l-5.4-5.4C407.6,1008.8,408,1007.9,409.6,1008z
		 M438.2,1024.3c0-1.6,0.9-3.9,2.1-5l0,0c1.1-1.1,3-1.1,4.2,0l0.5,0.5c1.1,1.1,2.1,3.4,2.1,5v3.7c0,1.6-0.9,3.9-2.1,5l-0.5,0.5
		c-1.1,1.1-3,1.1-4.2,0l0,0c-1.1-1.1-2.1-3.4-2.1-5V1024.3z M446.8,983.8c-1.1-1.1-1.2-3-0.1-4.1c1.1-1.1,3.3-1.9,4.9-1.8l16.6,1.2
		c1.6,0.1,3.9,1.1,5,2.3l5.4,5.4c1.1,1.1,0.8,2-0.9,1.9l-25.3-1.8c-1.6-0.1-3.9-1.1-5-2.3L446.8,983.8z M452,915.5
		c-1.6-0.1-3.9-1.1-5-2.3l-0.4-0.4c-1.1-1.1-1.1-3,0-4.2l0.1-0.1c1.1-1.1,3.4-2,5-1.9l16,1.1c1.6,0.1,3.9,1.1,5,2.3l5.4,5.4
		c1.1,1.1,0.8,2-0.9,1.9L452,915.5z M478.5,873.3l-4.1,4.1c-1.1,1.1-3.4,2-5,1.9L452,878c-1.6-0.1-3.9-1.1-5-2.3l-0.4-0.4
		c-1.1-1.1-1.1-3,0-4.2l0.1-0.1c1.1-1.1,3.4-2,5-1.9l25.8,1.8C479.2,871.1,479.6,872.1,478.5,873.3z M475.8,832.1
		c-1.1-1.1-2.1-3.4-2.1-5v-4.9c0-1.6,0.6-3.6,1.4-4.4s1.6-1.7,1.9-2.1c0,0,0,0,0-0.4c0-0.4,0-0.4,0-0.4c-0.2-0.4-1.1-1.3-1.9-2.1
		c-0.8-0.8-1.4-1.8-1.4-3.4v-1.7c0-1.6,0.9-3.9,2.1-5l4.7-4.7c1.1-1.1,2.1-0.8,2.1,0.9v37c0,1.6-0.9,2-2.1,0.9L475.8,832.1z
		 M480.5,677.7l-4.7-4.7c-1.1-1.1-2.1-3.4-2.1-5v-4.9c0-1.6,0.6-3.6,1.4-4.4s1.6-1.7,1.9-2.1c0,0,0,0,0-0.4c0-0.4,0-0.4,0-0.4
		c-0.2-0.4-1.1-1.3-1.9-2.1c-0.8-0.8-1.4-1.8-1.4-3.4v-1.7c0-1.6,0.9-3.9,2.1-5l4.7-4.7c1.1-1.1,2.1-0.8,2.1,0.9v37
		C482.6,678.5,481.6,678.9,480.5,677.7z M480.5,532.7l-4.7-4.7c-1.1-1.1-2.1-3.4-2.1-5v-4.9c0-1.6,0.6-3.6,1.4-4.4s1.6-1.7,1.9-2.1
		c0,0,0,0,0-0.4c0-0.4,0-0.4,0-0.4c-0.2-0.4-1.1-1.3-1.9-2.1c-0.8-0.8-1.4-1.8-1.4-3.4v-1.7c0-1.6,0.9-3.9,2.1-5l4.7-4.7
		c1.1-1.1,2.1-0.8,2.1,0.9v37C482.6,533.5,481.6,533.9,480.5,532.7z M480.5,474.7l-4.7-4.7c-1.1-1.1-2.1-3.4-2.1-5v-4.9
		c0-1.6,0.6-3.6,1.4-4.4s1.6-1.7,1.9-2.1c0,0,0,0,0-0.4c0-0.4,0-0.4,0-0.4c-0.2-0.4-1.1-1.3-1.9-2.1c-0.8-0.8-1.4-1.8-1.4-3.4v-1.7
		c0-1.6,0.9-3.9,2.1-5l4.7-4.7c1.1-1.1,2.1-0.8,2.1,0.9v37C482.6,475.5,481.6,475.9,480.5,474.7z M480.5,407.7l-4.7-4.7
		c-1.1-1.1-2.1-3.4-2.1-5v-4.9c0-1.6,0.6-3.6,1.4-4.4s1.6-1.7,1.9-2.1c0,0,0,0,0-0.4c0-0.4,0-0.4,0-0.4c-0.2-0.4-1.1-1.3-1.9-2.1
		c-0.8-0.8-1.4-1.8-1.4-3.4v-1.7c0-1.6,0.9-3.9,2.1-5l4.7-4.7c1.1-1.1,2.1-0.8,2.1,0.9v37C482.6,408.5,481.6,408.9,480.5,407.7z
		 M480.5,324.7l-4.7-4.7c-1.1-1.1-2.1-3.4-2.1-5v-4.9c0-1.6,0.6-3.6,1.4-4.4s1.6-1.7,1.9-2.1c0,0,0,0,0-0.4c0-0.4,0-0.4,0-0.4
		c-0.2-0.4-1.1-1.3-1.9-2.1c-0.8-0.8-1.4-1.8-1.4-3.4v-1.7c0-1.6,0.9-3.9,2.1-5l4.7-4.7c1.1-1.1,2.1-0.8,2.1,0.9v37
		C482.6,325.5,481.6,325.9,480.5,324.7z M452.6,34.2l9.7-5c1.4-0.7,3.9-1.3,5.6-1.1l10.8,0.8c1.6,0.1,1.8,0.8,0.3,1.6l-19,9.8
		c-1.4,0.7-3.9,1.3-5.6,1.1l-1.5-0.1c-1.6-0.1-2.9-1.5-2.9-3S451.2,34.9,452.6,34.2z M440.4,32.3c1.1-1.1,3-1.1,4.2,0l0.5,0.5
		c1.1,1.1,2.1,3.4,2.1,5v3.7c0,1.6-0.9,3.9-2.1,5l-0.5,0.5c-1.1,1.1-3,1.1-4.2,0l0,0c-1.1-1.1-2.1-3.4-2.1-5v-4.6
		C438.2,35.7,439.2,33.4,440.4,32.3L440.4,32.3z M409.6,21l22.6,1.6c1.6,0.1,3.9,1.1,5,2.3l1.1,1.1c1.1,1.1,1.3,2.9,0.2,3.9
		c-1,1-3.2,1.8-4.8,1.6l-14.6-1c-1.6-0.1-3.9-1.1-5-2.3l-5.4-5.4C407.6,21.8,408,20.9,409.6,21z M405.3,26.6c0-1.6,0.9-2,2.1-0.9
		l4.7,4.7c1.1,1.1,2.1,3.4,2.1,5v2.2c0,1.6-0.9,3.9-2,5c-1.1,1.1-1.1,3,0,4.1c1.1,1.1,2,3.4,2,5v1.9c0,1.6-0.9,3.9-2.1,5l-4.7,4.7
		c-1.1,1.1-2.1,0.8-2.1-0.9V26.6z M405.3,96.9c0-1.6,0.9-2,2.1-0.9l4.7,4.7c1.1,1.1,2.1,3.4,2.1,5v2.2c0,1.6-0.9,3.9-2,5
		s-1.1,3,0,4.1c1.1,1.1,2,3.4,2,5v1.9c0,1.6-0.9,3.9-2.1,5l-4.7,4.7c-1.1,1.1-2.1,0.8-2.1-0.9V96.9z M405.3,153.5
		c0-1.6,0.9-2,2.1-0.9l4.7,4.7c1.1,1.1,2.1,3.4,2.1,5v8.1c0,1.6-0.9,3.9-2,5c-1.1,1.1-1.1,3,0,4.1c1.1,1.1,2,3.4,2,5v7.8
		c0,1.6-0.9,3.9-2.1,5l-4.7,4.7c-1.1,1.1-2.1,0.8-2.1-0.9V153.5z M405.3,226.8c0-1.6,0.9-2,2.1-0.9l4.7,4.7c1.1,1.1,2.1,3.4,2.1,5
		v2.2c0,1.6-0.9,3.9-2,5c-1.1,1.1-1.1,3,0,4.1c1.1,1.1,2,3.4,2,5v1.9c0,1.6-0.9,3.9-2.1,5l-4.7,4.7c-1.1,1.1-2.1,0.8-2.1-0.9V226.8z
		 M405.3,432.9c0-1.6,0.9-2,2.1-0.9l4.7,4.7c1.1,1.1,2.1,3.4,2.1,5v2.2c0,1.6-0.9,3.9-2,5s-1.1,3,0,4.1c1.1,1.1,2,3.4,2,5v1.9
		c0,1.6-0.9,3.9-2.1,5l-4.7,4.7c-1.1,1.1-2.1,0.8-2.1-0.9V432.9z M405.3,570.8c0-1.6,0.9-2,2.1-0.9l4.7,4.7c1.1,1.1,2.1,3.4,2.1,5
		v2.2c0,1.6-0.9,3.9-2,5c-1.1,1.1-1.1,3,0,4.1c1.1,1.1,2,3.4,2,5v1.9c0,1.6-0.9,3.9-2.1,5l-4.7,4.7c-1.1,1.1-2.1,0.8-2.1-0.9V570.8z
		 M405.3,635.9c0-1.6,0.9-2,2.1-0.9l4.7,4.7c1.1,1.1,2.1,3.4,2.1,5v2.2c0,1.6-0.9,3.9-2,5s-1.1,3,0,4.1c1.1,1.1,2,3.4,2,5v1.9
		c0,1.6-0.9,3.9-2.1,5l-4.7,4.7c-1.1,1.1-2.1,0.8-2.1-0.9V635.9z M405.3,729.5c0-1.6,0.9-2,2.1-0.9l4.7,4.7c1.1,1.1,2.1,3.4,2.1,5
		v8.1c0,1.6-0.9,3.9-2,5c-1.1,1.1-1.1,3,0,4.1c1.1,1.1,2,3.4,2,5v7.8c0,1.6-0.9,3.9-2.1,5l-4.7,4.7c-1.1,1.1-2.1,0.8-2.1-0.9V729.5z
		 M405.3,794.9c0-1.6,0.9-2,2.1-0.9l4.7,4.7c1.1,1.1,2.1,3.4,2.1,5v2.2c0,1.6-0.9,3.9-2,5s-1.1,3,0,4.1c1.1,1.1,2,3.4,2,5v1.9
		c0,1.6-0.9,3.9-2.1,5l-4.7,4.7c-1.1,1.1-2.1,0.8-2.1-0.9V794.9z M405.3,871.8c0-1.6,0.9-2,2.1-0.9l4.7,4.7c1.1,1.1,2.1,3.4,2.1,5
		v2.2c0,1.6-0.9,3.9-2,5c-1.1,1.1-1.1,3,0,4.1c1.1,1.1,2,3.4,2,5v1.9c0,1.6-0.9,3.9-2.1,5l-4.7,4.7c-1.1,1.1-2.1,0.8-2.1-0.9V871.8z
		 M405.3,937.8c0-1.6,0.9-2,2.1-0.9l4.7,4.7c1.1,1.1,2.1,3.4,2.1,5v1.4c0,1.6-0.6,3.6-1.4,4.4s-1.9,2.3-1.7,2.7
		c0.2,0.4,0.9,1.4,1.7,2.2s1.4,2.7,1.4,4.4v8.2c0,1.6-0.9,3.9-2.1,5l-4.7,4.7c-1.1,1.1-2.1,0.8-2.1-0.9V937.8z M312.7,47.4
		l33.4-17.3c2.4-1.3,6.7-2.1,9.4-1.9l18.8,1.3c2.7,0.2,3,1.4,0.5,2.6l-33.4,17.3c-2.4,1.3-6.7,2.1-9.4,1.9l-18.8-1.3
		C310.5,49.9,310.2,48.7,312.7,47.4z M302.6,851c-1.7,1.7-5.4,3-8.1,2.8l-24.8-1.7c-2.7-0.2-6.6-1.9-8.5-3.9l-9.1-9.1
		c-1.9-1.9-1.3-3.4,1.5-3.2l38.2,2.7c2.7,0.2,6.6,1.9,8.5,3.9l1.9,1.9C304.1,846.3,304.3,849.3,302.6,851z M302.6,914.6
		c-1.7,1.7-5.4,3-8.1,2.8l-39.2-2.7c-2.7-0.2-3.4-1.9-1.5-3.9l7-7c1.9-1.9,5.8-3.4,8.5-3.2l22.5,1.6c2.7,0.2,6.6,1.9,8.5,3.9
		l1.9,1.9C304.1,909.9,304.3,912.9,302.6,914.6z M302.6,294c-1.7,1.7-5.4,3-8.1,2.8l-24.8-1.7c-2.7-0.2-6.6-1.9-8.5-3.9l-9.1-9.1
		c-1.9-1.9-1.3-3.4,1.5-3.2l38.2,2.7c2.7,0.2,6.6,1.9,8.5,3.9l1.9,1.9C304.1,289.3,304.3,292.3,302.6,294z M302.6,357.6
		c-1.7,1.7-5.4,3-8.1,2.8l-39.2-2.7c-2.7-0.2-3.4-1.9-1.5-3.9l7-7c1.9-1.9,5.8-3.4,8.5-3.2l22.5,1.6c2.7,0.2,6.6,1.9,8.5,3.9
		l1.9,1.9C304.1,352.9,304.3,355.9,302.6,357.6z M302.6,225.7c-1.7,1.7-5.4,3-8.1,2.8l-39.2-2.7c-2.7-0.2-3.4-1.9-1.5-3.9l7-7
		c1.9-1.9,5.8-3.4,8.5-3.2l22.5,1.6c2.7,0.2,6.6,1.9,8.5,3.9l1.9,1.9C304.1,221,304.3,224,302.6,225.7z M317.1,175.3v6.3
		c0,2.8-1.6,6.6-3.5,8.5l-0.8,0.8c-1.9,1.9-5.1,1.9-7.1,0l-0.1-0.1c-1.9-1.9-3.5-5.8-3.5-8.5v-7.7c0-2.8,1.6-6.6,3.5-8.5l0.1-0.1
		c1.9-1.9,5.1-1.9,7.1,0l0.8,0.8C315.5,168.8,317.1,172.6,317.1,175.3z M316.3,86l0.2-0.2c1.9-1.9,5.8-3.4,8.5-3.2l27.1,1.9
		c2.7,0.2,6.6,1.9,8.5,3.9l9.1,9.1c1.9,1.9,1.3,3.4-1.5,3.2l-42.8-3c-2.7-0.2-6.6-1.9-8.5-3.9l-0.7-0.7
		C314.4,91.1,314.4,88,316.3,86z M325.1,215.6l27.1,1.9c2.7,0.2,6.6,1.9,8.5,3.9l9.1,9.1c1.9,1.9,1.3,3.4-1.5,3.2l-42.8-3
		c-2.7-0.2-6.6-1.9-8.5-3.9l-0.7-0.7c-1.9-1.9-1.9-5.1,0-7.1l0.2-0.2C318.5,216.8,322.4,215.4,325.1,215.6z M302.6,162.1
		c-1.7,1.7-5.4,3-8.1,2.8l-24.8-1.7c-2.7-0.2-6.6-1.9-8.5-3.9l-9.1-9.1c-1.9-1.9-1.3-3.4,1.5-3.2l38.3,2.7c2.7,0.2,6.6,1.9,8.5,3.9
		l1.9,1.9C304.1,157.4,304.3,160.4,302.6,162.1z M302.1,208.9c0-1.7,1.6-4.6,3.5-6.5l0.1-0.1c1.9-1.9,5.1-1.9,7.1,0l0.8,0.8
		c1.9,1.9,3.5,4.6,3.5,5.8s-1.6,3.9-3.5,5.8l-0.8,0.8c-1.9,1.9-5.1,1.9-7.1,0l-0.1-0.1C303.7,213.5,302.1,210.5,302.1,208.9z
		 M316.4,448.2l22.1-7.8c2.6-0.9,6.9-1.3,9.7-0.9l11.3,0.4c2.7,0.4,5.4,2.1,5.9,3.8c0.5,1.7-1.2,3.8-3.8,4.7l-27.9,9.7
		c-2.6,0.9-6.9,1.3-9.7,0.9l-9-1.4c-2.7-0.4-4.6-2.3-4.2-4.2C311.4,451.5,313.8,449.1,316.4,448.2z M309.6,468.5l9.1,0.6
		c2.7,0.2,6.9,1.5,9.2,3l17.7,11c2.3,1.5,3.5,3.9,2.6,5.4c-0.9,1.5-3.8,2.6-6.6,2.4l-8.4-0.6c-2.7-0.2-6.9-1.5-9.2-3l-15.2-9.4
		c-2.3-1.5-4.2-4.2-4.2-6.2S306.8,468.3,309.6,468.5z M305.7,566.8l0.4-0.4c1.9-1.9,5.1-1.9,7.1,0l0.4,0.4c1.9,1.9,3.5,5.8,3.5,8.5
		v15c0,2.8-1.6,6.6-3.5,8.5l-0.4,0.4c-1.9,1.9-5.1,1.9-7.1,0l-0.4-0.4c-1.9-1.9-3.5-5.8-3.5-8.5v-15
		C302.1,572.6,303.7,568.7,305.7,566.8z M313.2,623.8c-1.9,1.9-5.1,1.9-7.1,0l-0.4-0.4c-1.9-1.9-3.5-4.7-3.5-6.2
		c0-1.5,1.6-4.2,3.5-6.2l0.4-0.4c1.9-1.9,5.1-1.9,7.1,0l0.4,0.4c1.9,1.9,3.5,4.7,3.5,6.2s-1.6,4.2-3.5,6.2L313.2,623.8z
		 M318.7,693.2l49.5,2.7c2.7,0.2,3.4,1.9,1.5,3.9l-7,7c-1.9,1.9-5.8,3.4-8.5,3.2l-32.8-1.6c-2.7-0.2-6.6-1.9-8.5-3.9l-1.9-1.9
		c-1.9-1.9-2.1-4.9-0.4-6.7S316,693,318.7,693.2z M256,585.9c0.3,0.7,1.6,2.4,2.9,3.7s2.4,4.7,2.4,7.4v13.9c0,2.8-1.6,6.6-3.5,8.5
		l-7.9,7.9c-1.9,1.9-3.5,1.3-3.5-1.5v-69.5c0-2.8,1.6-3.4,3.5-1.5l7.9,7.9c1.9,1.9,3.5,5.8,3.5,8.5v2.5c0,2.8-1.1,6.1-2.4,7.4
		C257.6,582.6,255.7,585.2,256,585.9z M253.6,630.7l7-7c1.9-1.9,5.8-3.4,8.5-3.2l23.6,1.7c2.7,0.2,6.6,1.9,8.5,3.9l1.3,1.3
		c1.9,1.9,2,5.1,0.1,6.9s-5.6,3.2-8.4,3l-39.2-2.7C252.3,634.4,251.7,632.6,253.6,630.7z M302.6,506.3c-1.7,1.7-5.4,3-8.1,2.8
		l-49.5-2.7c-2.7-0.2-3.4-1.9-1.5-3.9l7-7c1.9-1.9,5.8-3.4,8.5-3.2l32.8,1.6c2.7,0.2,6.6,1.9,8.5,3.9l1.9,1.9
		C304.1,501.5,304.3,504.5,302.6,506.3z M244.8,688.1l42.8,3c2.7,0.2,6.6,1.9,8.5,3.9l0.7,0.7c1.9,1.9,1.9,5.1,0,7.1l-0.2,0.2
		c-1.9,1.9-5.8,3.4-8.5,3.2l-27.1-1.9c-2.7-0.2-6.6-1.9-8.5-3.9l-9.1-9.1C241.4,689.3,242.1,687.9,244.8,688.1z M251.5,754l27.9-9.7
		c2.6-0.9,6.9-1.3,9.7-0.9l9,1.4c2.7,0.4,4.6,2.3,4.2,4.2c-0.4,1.9-2.9,4.2-5.5,5.1l-22.1,7.8c-2.6,0.9-6.9,1.3-9.7,0.9l-11.3-0.4
		c-2.7-0.4-5.4-2.1-5.9-3.8C247.2,757,248.9,754.9,251.5,754z M303.6,733.7l-9.1-0.6c-2.7-0.2-6.9-1.5-9.2-3l-17.7-11
		c-2.3-1.5-3.5-3.9-2.6-5.4c0.9-1.5,3.8-2.6,6.6-2.4l8.4,0.6c2.7,0.2,6.9,1.5,9.2,3l15.2,9.4c2.3,1.5,4.2,4.2,4.2,6.2
		C308.6,732.5,306.4,733.9,303.6,733.7z M305.7,984.1c1.9-1.9,5.1-1.9,7.1,0l0.8,0.8c1.9,1.9,3.5,5.8,3.5,8.5v6.3
		c0,2.8-1.6,6.6-3.5,8.5l-0.8,0.8c-1.9,1.9-5.1,1.9-7.1,0l-0.1-0.1c-1.9-1.9-3.5-5.8-3.5-8.5v-7.7
		C302.1,990,303.7,986.1,305.7,984.1L305.7,984.1z M354.9,858l-29.3-2.1c-2.7-0.2-6.6-1.9-8.5-3.9l-0.7-0.7c-1.9-1.9-1.9-5.1,0-7.1
		l0.2-0.2c1.9-1.9,5.8-3.4,8.5-3.2l43.8,3.1c2.7,0.2,3.4,1.9,1.5,3.9l-7,7C361.4,856.8,357.6,858.2,354.9,858z M360.7,910.3l9.1,9.1
		c1.9,1.9,1.3,3.4-1.5,3.2l-42.8-3c-2.7-0.2-6.6-1.9-8.5-3.9l-0.7-0.7c-1.9-1.9-1.9-5.1,0-7.1l0.2-0.2c1.9-1.9,5.8-3.4,8.5-3.2
		l27.1,1.9C354.9,906.6,358.8,908.3,360.7,910.3z M369.1,789.2l-49.3-2.7c-2.7-0.2-6.6-1.9-8.5-3.9l-0.6-0.6c-1.9-1.9-1.9-5.1,0-7.1
		l0.3-0.3c1.9-1.9,5.8-3.4,8.5-3.2l33.5,1.6c2.7,0.2,6.6,1.9,8.5,3.9l9.1,9.1C372.5,788,371.8,789.4,369.1,789.2z M369.3,642.6
		l-42.8-3c-2.7-0.2-6.6-1.9-8.5-3.9l-1.3-1.3c-1.9-1.9-2-5.1-0.1-6.9s5.6-3.2,8.4-3l28.2,2c2.7,0.2,6.6,1.9,8.5,3.9l9.1,9.1
		C372.7,641.3,372.1,642.8,369.3,642.6z M325.5,511.2c-2.7-0.2-6.6-1.9-8.5-3.9l-0.7-0.7c-1.9-1.9-1.9-5.1,0-7.1l0.2-0.2
		c1.9-1.9,5.8-3.4,8.5-3.2l27.1,1.9c2.7,0.2,6.6,1.9,8.5,3.9l9.1,9.1c1.9,1.9,1.3,3.4-1.5,3.2L325.5,511.2z M370.5,424.9l-7,7
		c-1.9,1.9-5.8,3.4-8.5,3.2l-27.9-1.9c-2.7-0.2-6.6-1.9-8.5-3.9l-1.9-1.9c-1.9-1.9-2.1-4.9-0.4-6.6s5.4-3,8.1-2.8l44.7,3.1
		C371.8,421.2,372.5,422.9,370.5,424.9z M368.4,365.6l-42.8-3c-2.7-0.2-6.6-1.9-8.5-3.9l-0.7-0.7c-1.9-1.9-1.9-5.1,0-7.1l0.2-0.2
		c1.9-1.9,5.8-3.4,8.5-3.2l27.1,1.9c2.7,0.2,6.6,1.9,8.5,3.9l9.1,9.1C371.8,364.3,371.1,365.8,368.4,365.6z M354.9,301l-29.3-2.1
		c-2.7-0.2-6.6-1.9-8.5-3.9l-0.7-0.7c-1.9-1.9-1.9-5.1,0-7.1l0.2-0.2c1.9-1.9,5.8-3.4,8.5-3.2l43.8,3.1c2.7,0.2,3.4,1.9,1.5,3.9
		l-7,7C361.4,299.8,357.6,301.2,354.9,301z M371.2,162.8L339,179.5c-2.4,1.3-6.7,2.1-9.4,1.9l-2.5-0.2c-2.7-0.2-5-2.5-5-5.1
		c0-2.6,2-5.7,4.5-7l16.4-8.4c2.4-1.3,6.7-2.1,9.4-1.9l18.3,1.3C373.4,160.4,373.7,161.5,371.2,162.8z M302.1,64.6
		c0-2.8,1.6-6.6,3.5-8.5l0.1-0.1c1.9-1.9,5.1-1.9,7.1,0l0.8,0.8c1.9,1.9,3.5,5.8,3.5,8.5v6.3c0,2.8-1.6,6.6-3.5,8.5l-0.8,0.8
		c-1.9,1.9-5.1,1.9-7.1,0l-0.1-0.1c-1.9-1.9-3.5-5.8-3.5-8.5V64.6z M301.4,84.8c1.9,1.9,2.1,4.9,0.4,6.7s-5.4,3-8.1,2.8l-39.2-2.7
		c-2.7-0.2-3.4-1.9-1.5-3.9l7-7c1.9-1.9,5.8-3.4,8.5-3.2l22.5,1.6c2.7,0.2,6.6,1.9,8.5,3.9L301.4,84.8z M251.3,20.9l9.1,0.6
		c2.7,0.2,6.9,1.5,9.2,3l26.1,16.3c2.3,1.5,3.5,3.9,2.6,5.4c-0.9,1.5-3.8,2.6-6.6,2.4l-8.4-0.6c-2.7-0.2-6.9-1.5-9.2-3l-23.6-14.7
		c-2.3-1.5-4.2-4.2-4.2-6.2S248.6,20.7,251.3,20.9z M246.3,156.4c0-2.8,1.6-3.4,3.5-1.5l7.9,7.9c1.9,1.9,3.5,5.8,3.5,8.5v3.7
		c0,2.8-1.6,6.6-3.5,8.5c-1.9,1.9-1.9,5,0,6.9c1.9,1.9,3.5,5.7,3.5,8.5v3.2c0,2.8-1.6,6.6-3.5,8.5l-7.9,7.9
		c-1.9,1.9-3.5,1.3-3.5-1.5V156.4z M246.3,288.4c0-2.7,1.6-3.4,3.5-1.5l7.9,7.9c1.9,1.9,3.5,5.8,3.5,8.5v3.7c0,2.7-1.6,6.6-3.5,8.5
		c-1.9,1.9-1.9,5,0,6.9c1.9,1.9,3.5,5.7,3.5,8.5v3.2c0,2.7-1.6,6.6-3.5,8.5l-7.9,7.9c-1.9,1.9-3.5,1.3-3.5-1.5V288.4z M244.1,413.1
		l49.3,2.7c2.7,0.2,6.6,1.9,8.5,3.9l0.6,0.6c1.9,1.9,1.9,5.1,0,7.1l-0.3,0.3c-1.9,1.9-5.8,3.4-8.5,3.2l-33.5-1.6
		c-2.7-0.2-6.6-1.9-8.5-3.9l-9.1-9.1C240.7,414.3,241.3,412.9,244.1,413.1z M242.6,777.4l7-7c1.9-1.9,5.8-3.4,8.5-3.2l27.9,1.9
		c2.7,0.2,6.6,1.9,8.5,3.9l1.9,1.9c1.9,1.9,2.1,4.9,0.4,6.6s-5.4,3-8.1,2.8l-44.7-3.1C241.3,781.1,240.7,779.3,242.6,777.4z
		 M246.3,906.2v-60.8c0-2.7,1.6-3.4,3.5-1.5l7.9,7.9c1.9,1.9,3.5,5.8,3.5,8.5v3.7c0,2.7-1.6,6.6-3.5,8.5c-1.9,1.9-1.9,5,0,6.9
		c1.9,1.9,3.5,5.7,3.5,8.5v3.2c0,2.7-1.6,6.6-3.5,8.5l-7.9,7.9C247.9,909.6,246.3,908.9,246.3,906.2z M253.5,965.1l38.3,2.7
		c2.7,0.2,6.6,1.9,8.5,3.9l1.9,1.9c1.9,1.9,2.1,4.9,0.4,6.7c-1.7,1.7-5.4,3-8.1,2.8l-24.8-1.7c-2.7-0.2-6.6-1.9-8.5-3.9l-9.1-9.1
		C250.1,966.3,250.8,964.9,253.5,965.1z M302.6,1043.8c-1.7,1.7-5.4,3-8.1,2.8l-39.2-2.7c-2.7-0.2-3.4-1.9-1.5-3.9l7-7
		c1.9-1.9,5.8-3.4,8.5-3.2l22.5,1.6c2.7,0.2,6.6,1.9,8.5,3.9l1.9,1.9C304.1,1039.1,304.3,1042.1,302.6,1043.8z M312.8,1033.6
		c-1.9,1.9-5.1,1.9-7.1,0l-0.1-0.1c-1.9-1.9-3.5-4.9-3.5-6.5c0-1.7,1.6-4.6,3.5-6.5l0.1-0.1c1.9-1.9,5.1-1.9,7.1,0l0.8,0.8
		c1.9,1.9,3.5,4.6,3.5,5.8c0,1.3-1.6,3.9-3.5,5.8L312.8,1033.6z M368.4,1051.7l-42.8-3c-2.7-0.2-6.6-1.9-8.5-3.9l-0.7-0.7
		c-1.9-1.9-1.9-5.1,0-7.1l0.2-0.2c1.9-1.9,5.8-3.4,8.5-3.2l27.1,1.9c2.7,0.2,6.6,1.9,8.5,3.9l9.1,9.1
		C371.8,1050.5,371.1,1051.9,368.4,1051.7z M370.4,977l-7,7c-1.9,1.9-5.8,3.4-8.5,3.2l-29.3-2.1c-2.7-0.2-6.6-1.9-8.5-3.9l-0.7-0.7
		c-1.9-1.9-1.9-5.1,0-7.1l0.2-0.2c1.9-1.9,5.8-3.4,8.5-3.2l43.8,3.1C371.7,973.3,372.3,975.1,370.4,977z M377.5,915
		c0,2.8-1.6,3.4-3.5,1.5l-7.9-7.9c-1.9-1.9-3.5-5.8-3.5-8.6v-8.3c0-2.8,1.1-6.1,2.4-7.5c1.3-1.3,2.8-3,3.2-3.6c0,0,0,0,0-0.6
		c0-0.6,0-0.6,0-0.6c-0.4-0.6-1.8-2.2-3.2-3.6c-1.3-1.3-2.4-3-2.4-5.8v-2.8c0-2.8,1.6-6.6,3.5-8.6l7.9-7.9c1.9-1.9,3.5-1.3,3.5,1.5
		V915z M377.5,634.1c0,2.8-1.6,3.4-3.5,1.5l-7.9-7.9c-1.9-1.9-3.5-5.8-3.5-8.5v-11.7c0-2.8,1.1-6.1,2.4-7.4c1.3-1.3,2.8-2.9,3.2-3.6
		c0,0,0,0,0-0.6s0-0.6,0-0.6c-0.4-0.6-1.8-2.2-3.2-3.6c-1.3-1.3-2.4-4.7-2.4-7.4v-4.5c0-2.8,1.6-6.6,3.5-8.5l7.9-7.9
		c1.9-1.9,3.5-1.3,3.5,1.5V634.1z M377.5,358c0,2.8-1.6,3.4-3.5,1.5l-7.9-7.9c-1.9-1.9-3.5-5.8-3.5-8.6v-8.3c0-2.8,1.1-6.1,2.4-7.5
		c1.3-1.3,2.8-3,3.2-3.6c0,0,0,0,0-0.6c0-0.6,0-0.6,0-0.6c-0.4-0.6-1.8-2.2-3.2-3.6c-1.3-1.3-2.4-3-2.4-5.8v-2.8
		c0-2.8,1.6-6.6,3.5-8.6l7.9-7.9c1.9-1.9,3.5-1.3,3.5,1.5V358z M405.3,1049.5v-35.9c0-1.6,0.9-2,2.1-0.9l4.7,4.7
		c1.1,1.1,2.1,3.4,2.1,5v2.2c0,1.6-0.9,3.9-2,5c-1.1,1.1-1.1,3,0,4.1c1.1,1.1,2,3.4,2,5v1.9c0,1.6-0.9,3.9-2.1,5l-4.7,4.7
		C406.3,1051.5,405.3,1051.1,405.3,1049.5z M438.5,1054.4c-1,1-3.2,1.8-4.8,1.6l-23.1-1.6c-1.6-0.1-2-1.1-0.9-2.3l4.1-4.1
		c1.1-1.1,3.4-2,5-1.9l13.3,0.9c1.6,0.1,3.9,1.1,5,2.3l1.1,1.1C439.4,1051.7,439.5,1053.4,438.5,1054.4z M444.5,1048.4
		c-1.1,1.1-3,1.1-4.2,0l0,0c-1.1-1.1-2.1-2.9-2.1-3.9c0-1,0.9-2.7,2.1-3.9l0,0c1.1-1.1,3-1.1,4.2,0l0.5,0.5c1.1,1.1,2.1,2.7,2.1,3.4
		s-0.9,2.3-2.1,3.4L444.5,1048.4z M477.3,1059.1l-25.3-1.8c-1.6-0.1-3.9-1.1-5-2.3l-0.4-0.4c-1.1-1.1-1.1-3,0-4.2l0.1-0.1
		c1.1-1.1,3.4-2,5-1.9l16,1.1c1.6,0.1,3.9,1.1,5,2.3l5.4,5.4C479.3,1058.4,478.9,1059.3,477.3,1059.1z M479,1017.4l-19,9.8
		c-1.4,0.7-3.9,1.3-5.6,1.1l-1.5-0.1c-1.6-0.1-2.9-1.5-2.9-3s1.2-3.4,2.6-4.1l9.7-5c1.4-0.7,3.9-1.3,5.6-1.1l10.8,0.8
		C480.3,1015.9,480.4,1016.6,479,1017.4z M482.7,983.6c0,1.6-0.9,2-2.1,0.9l-4.7-4.7c-1.1-1.1-2.1-3.4-2.1-5v-6.9
		c0-1.6,0.6-3.6,1.4-4.4c0.8-0.8,1.6-1.7,1.9-2.1c0,0,0,0,0-0.4c0-0.4,0-0.4,0-0.4c-0.2-0.4-1.1-1.3-1.9-2.1
		c-0.8-0.8-1.4-2.8-1.4-4.4v-2.7c0-1.6,0.9-3.9,2.1-5l4.7-4.7c1.1-1.1,2.1-0.8,2.1,0.9V983.6z"/>
</g>
</svg>
