<?xml version="1.0" encoding="utf-8"?>
<!-- Generator: Adobe Illustrator 25.4.1, SVG Export Plug-In . SVG Version: 6.00 Build 0)  -->
<svg version="1.1" id="Layer_1" xmlns="http://www.w3.org/2000/svg" xmlns:xlink="http://www.w3.org/1999/xlink" x="0px" y="0px"
	 viewBox="0 0 496 1080" style="enable-background:new 0 0 496 1080;" xml:space="preserve">
<g>
	<g>
		<path d="M27.9,1033.5c2.4,1.2,4.7,2.6,7.2,3.7c5,2.3,10.3,1.4,15.5,1.1c5.6-0.3,11.2-1.4,16.7-2.3c3.3-0.6,6.6-1.6,9.9-2.3
			c4-0.8,8-1.6,12-2.2c6.2-1,10.8-4.9,15.6-8.6c4.1-3.1,8.4-6,12.1-9.5c2.9-2.7,5.1-6.1,7.6-9.2c5.2-6.5,10.3-12.9,15.4-19.4
			c2-2.6,3.8-5.5,6.1-7.8c2.9-3,0.8-5.7,0.3-8.6c-0.3-1.9-0.1-3.8,0.2-5.6c0.6,2.4,1,4.9,2,7.1c1.8,4.2,6.2,3.7,9,1.4
			c2.6-2.2,5.2-4.3,7.7-6.6c2.5-2.3,3.6-5.3,4.8-9c-3.5,2-6.4,3.6-9.4,5.3c-0.8-0.4-1.8-0.9-3.5-1.9c1.6-1.4,3-2.6,4.4-3.8
			c0.4-0.3,0.8-0.6,1.2-0.6c5-0.1,7.3-1.9,8.9-7.2c0.5,0.7,0.9,1.3,1.4,2.1c3.4-9.2,7-18.3,3.1-28.2c-2.2-5.6-6.2-6.7-11.2-4.9
			c-1.5,0.5-2.4,2.8-3.6,4.3c0.6,0.5,1.3,1.4,1.9,1.4c0.9-0.1,1.8-0.8,2.5-1.3c2.6-2.1,5-0.9,7.1,0.7c1.8,1.4,2.5,5.5,1.5,7.5
			c-0.6,1.1-1.5,2-2.1,3.1c-0.5,1-0.8,2.1-1.5,3.8c-0.6-2.7-1.1-5.1-1.6-7.5c-3.6,1.9-4.6,5.1-3.6,9.5c0.4,1.6,0.7,3.2,0.9,4.9
			c0.2,1.6,0,3.3,0,5.7c-1.6-2.6-2.8-2.5-4.2-0.7c-0.5,0.6-1.7,0.9-2.5,0.8c-2.6-0.5-4,1.3-3.7,3.1c0.6,3.2-0.9,4.5-3.5,5.5
			c-1.2,0.4-2.3,1.2-4.2,2.1c2-4.2,3.9-7.5,5.2-11.1c0.9-2.4,1.3-5,1.6-7.6c0.4-3.9,0.6-7.7,1-12.2c-3.1-0.1-6.4-0.4-9.6-0.3
			c-5.3,0.1-10.6,0.1-15.9,0.6c-3.7,0.4-4.9-0.5-6.5-4.3c-4.5-10.3-10.1-20.1-15.3-30c-0.5-0.9-1.8-1.7-2.9-2
			c-6.5-1.9-13-3.6-19.5-5.4c-1.3-0.4-2.5-1-3.6-1.8c-4.6-3.3-10-2.8-15.2-3.9c-11-2.3-19.1-9.2-23.3-20c-0.8-2.1-1.3-4.2-1.9-6.4
			c-0.8-2.9-4.4-3.3-7.2-1c-5.7,4.8-9.1,11.2-11.8,17.9c-3.7,9.1-5.9,18.6-7.6,28.2c-0.5,2.6-0.7,5.4,2.7,6.8c1.2,0.5,2,2.2,2.6,3.5
			c3.3,7.5,0.6,13.9-3.6,20.2c-4.5,6.9-8.7,14-12.8,21.1c-1.3,2.2-2,4.8-2.7,7.3c-1.3,4.8,1.1,8.1,6.5,9.2c-1.3-5.5,4.2-6.6,6.6-9.9
			c-3.5-5.3,0.3-9.6,2.7-13.6c4.4-7.3,9.5-14.2,14.3-21.2c1.8-2.5,3.6-5,5.5-7.7c-0.8-0.6-1.8-1.1-2.4-1.9c-0.9-1.3-2.3-3-2.1-4.3
			c0.1-1.3,1.9-3.2,3.1-3.4c4.6-0.5,9.3-0.5,14-0.5c4.3,0,8.5,0.3,12.8,0.3c0.8,0,1.7-0.8,3.2-1.5c-2.4-1.4-4.3-2.4-6.7-3.7
			c5.1-0.3,9.5-0.2,13.4,2.7c5,3.6,10.2,7.1,15.2,10.6c0.4,0.3,0.6,0.7,1.2,1.3c-7.1-1.8-13.8-3.9-20.6-5.2c-6.8-1.3-13.7-2-21,1.6
			c4.7,3.7,10.3,3.1,15.6,5.7c-4.9-0.2-6.6,0.7-7.8,3.9c4.3,1.8,8.7,2.8,13.3,2.3c1.7-0.2,3-0.9,4.2,1c0.4,0.6,1.9,0.5,3.7,0.9
			c-1.1-1.5-1.9-2.4-3-3.8c3.6,1.4,6,3.3,7.6,6.2c0.9,1.7-0.3,2.2-1.9,2.3c-1.2,0-2.3,0.3-3.5,0.4c-4.6,0.6-9.2,1.5-13.8,1.9
			c-3,0.2-4.4-2.4-4.8-4.7c-0.5-3.5-2.6-3.6-5.2-3.6c-3.8,0-5.3-1.7-4.6-5.4c2,0.8,3.9,3.7,6,0.3c-1.7-2.6-4.8-3.5-7.8-2.1
			c-2.2,1-3.8,4.6-2.5,7c1.7,3.2,0.6,3.8-2.5,4c-1.5,0.1-3,1.3-4.3,2.3c-6,4.7-10.3,10.7-11.2,18.5c-0.4,3.7,2.9,7.2,6.4,8.3
			c2.1,0.6,4.2,1.6,6,2.7c2.8,1.7,2.5,4.8,0.7,6.6c-1.6,1.6-4,2.4-6.1,3.6c-0.2-0.2-0.5-0.4-0.7-0.6c0.2-1.6,0.4-3.2,0.7-4.7
			c0.5-2.4-0.6-3.9-3-4c-2.1-0.1-4.2-0.3-6.2,0.1c-1.8,0.3-3.6,1.4-5.3,2.6c3.2,2.9,8.3-0.2,10.9,4.1c-4.3,0.7-8.4,1.4-12.9,2.2
			c4.9,7.5,5.8,10.2,4.7,13.3c-0.9-2.7-1.6-5.5-2.7-8.1c-1.1-2.8-3.3-4.3-6.4-4.8c-2.7-0.4-5.4-1.3-7.7-2.6c-3.4-1.9-4.2-5-3.2-8.7
			c2-7,6-13,9.7-19.1c2.5-4.2,5.4-8.2,8.1-12.4c1.1-1.8,1.3-3.3-1.1-4.4c-3.2-1.5-4.8-3.9-3.7-8.1c1,0.9,1.9,1.6,2.9,2.5
			c2.1-1.9,2.4-3.6,0.5-6c-2.7-3.6-3.3-7.7-2.1-12.2c1.8-7.1,2.9-14.4,5-21.4c1.4-4.6,3.7-8.9,5.9-13.3c2.3-4.7,4.9-9.2,7.6-13.7
			c0.8-1.4,2.1-2.4,3.1-3.7c0.5-0.7,1.1-1.7,1.1-2.5c-0.2-4.2,2.2-7.4,5.4-8.8c9.5-4.2,19.3-8,29.1-11.3c6.8-2.2,14.1-3.4,21.2-4.8
			c2.9-0.6,5.8-0.6,8.8-0.7c6.7-0.3,13.4-0.9,20.1-0.5c13.1,0.9,26.4,0.6,38.9,5.3c5,1.9,9.4,5.2,14,8.2c14,9.2,22.9,22.4,29.6,37.5
			c3.2,7.2,4.1,14.5,4.6,22.1c0.3,6,0.7,12,0.6,18c-0.1,8.4-1.6,16.6-5.2,24.3c-5,10.6-10,21.2-14.9,31.8c-4,8.6-8.1,17.1-11.6,25.8
			c-2.1,5-1.9,10.4-0.6,15.8c1.2,4.6,2,9.3,2.6,14c0.4,3-0.7,5.9-3.1,7.8c-4.6,3.5-9.4,6.8-14.2,10.1c-6.7,4.6-13.3,9.3-20.2,13.6
			c-8,5-16.1,10.1-24.6,14.2c-5.8,2.8-12.5,2.8-18.2-1c-2.1-1.4-3.7-3.9-4.9-6.2c-3.3-6.3-6.1-12.7-9.3-19.1
			c-3.6-7.2-2.7-5.8-10-4.8c-8,1.1-15.9,2.4-23.9,3.4c-3.8,0.5-7.6,0.7-11.4,0.6c-4.6-0.1-8.5-2.3-12.1-5.1
			C28.1,1034.3,28.1,1033.8,27.9,1033.5C28,1033.5,27.9,1033.5,27.9,1033.5z M56.5,857.1c2.5,5.6,4.7,10.7,9.6,14.3
			C65.3,864.7,62.2,859.9,56.5,857.1z M54.4,867.8c0.8,5.2,6.7,10.9,11.7,10.6C61.9,874.6,57.4,870.6,54.4,867.8z M84.5,881.2
			c0-0.2,0-0.4,0-0.6c-5-4.3-9.9-8.6-14.9-13c-0.2,0.2-0.4,0.4-0.7,0.6c3.8,4,7.4,8.1,11.4,12C81.1,881.1,83,880.9,84.5,881.2z
			 M63.9,930.1c3.9,0,7.4,0,11,0c0-0.4,0.1-0.8,0.1-1.3c-3-1.1-6-2.2-9.1-3.1c-0.3-0.1-1.1,0.6-1.3,1.1
			C64.2,927.8,64.2,928.9,63.9,930.1z"/>
		<path d="M26.9,463.2c4.3,3.4,9.4,2.9,14.3,2.4c2-0.2,3.9-1.4,5.9-2c2.6-0.7,4.5,0.3,5.6,3.2c-2,0.9-4,1.8-6.1,2.6
			c-2.4,1.1-4.6,0.5-7-0.6c-3-1.3-6.3-2.1-9.8-3.3c-0.4,4.7-0.7,8.4-1,12.2c-0.2,3.5-0.2,7-0.3,10.4c-0.2,5.2,1.1,7.3,6.3,7.1
			c7.3-0.3,14,2.6,21,2.9c5.5,0.3,11.1-0.7,16.5-1.7c7.7-1.4,15.4-3,22.9-5c13.5-3.5,26.9-7.8,39.9-13.1c4.6-1.8,9.1-3.6,13.6-5.6
			c5.6-2.6,8.2-7.3,9.6-13.3c2.1-9.1,1.1-17.6-2.6-25.9c-0.4-1-1.8-2.1-2.9-2.2c-5-0.5-6.7-4.1-7.1-7.5c-0.2-2.2,0-4.5,0.5-6.9
			c0.1,0.8,0.4,1.7,0.3,2.5c-0.5,3.3,0.8,6.3,3.5,7.7c3.1,1.6,6.3,1.4,8.6-1.4c3.4-4.2,6.4-8.7,9.8-13.3c-4.1-0.5-6.3,5.2-11,2.3
			c2-1.9,3.1-4.3,6.6-4.5c2-0.1,4.6-1.9,5.7-3.7c2.6-4.1,4.7-8.7,6.7-13.2c2.5-5.6,1.6-11.4-0.4-16.8c-2-5.4-9.5-5.1-12.9-2.9
			c-3.1,2.1-6.1,4.6-8.9,7.1c-2,1.8-4,3-7,3c-6.6,0.1-13.1,0.7-19.7,1.1c-2.1,0.1-3.8-1.4-3.9-4.1c-0.4-8.5,0.2-16.9,3.4-25
			c3.3-8.3,6.7-16.7,6.7-26c0-3.5,0.9-7.1,1.6-10.6c1.8-8.7-4.3-17.8-12.9-18.4c-3.5-0.2-7,1.2-10.5,1.7c-6.1,0.8-12.1,1.5-18.2,2.2
			c-12,1.4-23.1-2.8-34.4-5.5c-1.2-0.3-2.1-1.6-3.2-2.5c0.8-0.7,1.5-1.6,2.4-2.1c7-4.4,14.8-6.8,22.8-9.1
			c11.7-3.4,23.5-4.5,35.5-4.6c5.2,0,10.4-0.7,15.7-0.5c18.6,0.6,36.6,4.3,53,13.6c3.1,1.7,5.5,4.7,7.9,7.4
			c4.9,5.3,8.7,11.4,12,17.8c4,7.8,7,15.8,8.5,24.6c1.2,7.1,2.4,14.2,2.3,21.5c-0.1,6.7-1.8,13-4.5,19.1
			c-6.7,15.2-14,30.2-19.9,45.7c-4.3,11.3-7.3,23.3-9.7,35.1c-1.1,5.2,0.7,11,1.3,16.6c0.3,2.7,1,5.3,1.4,8c0.4,2.1-0.8,3.3-2.5,4.5
			c-7.4,5.6-16.1,8.2-24.5,11.8c-4.9,2.1-9.7,4.4-14.5,6.7c-9.8,4.7-19.4,9.6-29.3,14c-4.7,2.1-9.8,3.4-14.8,4.8
			c-3,0.8-6-1.2-7.6-4.6c-3.1-6.6-5.9-13.5-10.7-19.1c-5-5.9-11.2-9.2-19.2-9c-5.8,0.2-11.6,0.2-17.3-2c-3-1.2-6.8-0.3-10.3-0.3
			c-4.8,0-7.4-2.4-7.1-7.2c0.4-6.6,1.3-13.2,1.5-19.8C28.8,467.6,27.5,465.4,26.9,463.2L26.9,463.2z"/>
		<path d="M39.5,64.8C38,58.2,40,52.5,44,47.2c4.8-6.5,11.7-10.1,18.7-12.9c9.4-3.7,19.1-6.8,28.8-9.4c6-1.6,12.3-1.9,18.4-2.7
			c3.7-0.5,7.4-1.2,11-1.1c6.4,0.1,12.9,1,19.3,0.9c7.4-0.1,14.4,1.3,21.2,3.8c12.7,4.8,25.3,10.4,34.4,21c4.6,5.3,7.8,12,11.3,18.2
			c3.9,6.9,4,14.8,5.2,22.5c1.3,9-0.2,17.8-0.7,26.7c-0.1,1.9,0.2,3.2,2,4.4c2.8,1.8,3.7,5,3.9,8.1c0.5,6.8-0.9,13.2-4,19.5
			c-4.3,8.7-9.4,16.9-14.5,25.1c-5.3,8.8-9.9,18-14.7,27.1c-4.3,8.3-9.3,16-16.1,22.4c-9.5,8.8-19.2,17.4-29.2,25.7
			c-8.9,7.3-18.3,14.2-27.5,21.1c-4.7,3.5-7.2,3.3-11-1.2c-3-3.5-5.1-7.7-7.5-11.7c-2.4-4-4.8-8-6.9-12.1c-1.3-2.6-3.2-2.9-5.8-2.9
			c-4.2,0-8.5-0.4-12.7-0.6c-4-0.2-8.1-0.8-12.1-0.5c-7.9,0.7-11.1-1.7-12.5-9.6c-0.8-4.9-1.9-9.9-3-14.8c-0.2-1.1-0.8-2.2-1.3-3.3
			c0.3-0.1,0.7-0.2,1-0.3c0.9,3,1.9,5.9,2.6,9c0.9,4,1.6,8.2,2.4,12.2c0.8,3.7,3.1,5.6,6.8,5.5c2.8-0.1,5.7-0.6,8.5-0.5
			c3.6,0.1,7.2,0.6,10.7,1.2c8.1,1.2,15.7-0.4,22.6-4.6c8.4-5.1,16.7-10.6,24.7-16.3c7.7-5.5,15.1-11.6,22.7-17.3
			c6.1-4.6,12.4-9,18.6-13.5c4-3,8-5.9,11.7-9.2c4.1-3.6,7.1-8,7.9-13.6c0.1-0.6,0.7-1.1,1.4-2.2c0.4,3.8,0.6,6.7,1,9.7
			c0.3,2.2,1,4.2,3.3,5c2.8,1,6.2,1.7,8.3-0.7c3.9-4.4,7.2-9.3,11.1-14.3c-5.1-0.7-8.4,5.2-13.3,1.9c2.3-2.2,4.3-4.2,7.8-4.1
			c3.4,0.1,5.8-2.3,7.8-4.5c0.7-0.3,1.9-0.5,2.1-1c2.6-6.1,6.2-12,6.6-18.8c0.2-3-0.5-6.2-1.3-9.2c-0.9-3.1-5-5.3-8.5-4.9
			c-3.8,0.4-7.6,0.2-11.6,1.5c-5.1,1.7-10.7,1.9-16,2.6c-5,0.7-10,1.2-15.1,1.8c-0.6,0.1-1.1,0-2.1,0c-0.2-3.4-0.2-6.6-0.5-9.8
			c-0.9-7.9-1.6-15.9-2.9-23.8c-0.8-5.1-1.9-10.3-3.7-15.2c-3.3-8.8-9.4-15.4-17.4-20.3c-7.5-4.6-15.8-5.3-24.3-5.9
			c-12.1-0.8-23.3,2.5-34.4,6.5c-7.9,2.9-16,5.7-24.1,8C48.7,67.1,43.9,66.3,39.5,64.8L39.5,64.8z M70.7,48.6
			c-1.6,0.7-2.6,1.3-3.6,1.7c-0.9,0.4-2,0.5-3.4,0.9c-1.2,3.1-0.6,6.9,1.7,8.4c0.3-1.1,0.6-2.2,1-3.7c2.1,3.4,2.2,3.4,8.4-0.4
			c-0.2-1.7-0.4-3.5-0.6-5.7C72.2,51,70.9,51.2,70.7,48.6z M84.5,45.4c-0.9,0.3-2.1,0.4-2.9,0.9c-1.4,0.9-3.4,1.9-3.8,3.3
			c-1.1,3.5,1,5.4,4.6,4.4c0.6-0.2,1.5,0,1.9-0.4c0.7-0.7,1.5-1.7,1.4-2.6C85.5,49.1,84.9,47.1,84.5,45.4z M96.5,44.6
			c-2.3,0-4.5-0.4-6.5,0.2c-0.5,0.2-0.1,3.4-0.1,5.2C96.3,50.1,96.7,49.8,96.5,44.6z M59,51.7c-2.4,2.3-2.6,4.6-0.7,8.1
			C58.5,56.9,58.7,54.5,59,51.7z"/>
		<path d="M24.2,674.4c0,5-0.5,10.1,0.1,15c0.8,6.5,2.2,13,3.8,19.3c2.1,8.8,4.6,17.6,6.8,26.4c1.4,5.5,2,11.2,3.7,16.7
			c2,6.4,6,11.2,12.7,13.4c8.7,2.8,17.6,3.8,26.6,1.4c9.3-2.5,18.5-5.3,27.8-7.8c2.4-0.7,4.9-0.9,7.4-1.2
			c10.8-1.5,21.6-3.6,31.7-7.7c6.6-2.7,10-8.5,12.4-15.1c3.1-8.7,4.4-17.8,5.9-26.9c0.6-3.5,1.6-6.9,3-10.3
			c-0.2,1.2-0.4,2.5-0.6,3.7c-0.8,5.6,2.6,9.6,8.3,10c2.7,0.2,4.8-0.5,6.5-2.7c3-3.9,6.1-7.7,9.1-11.6c-0.1-0.2-0.3-0.5-0.4-0.7
			c-1.7,0.5-3.4,0.9-5,1.6c-3.5,1.4-3.5,1.4-7-0.3c2-1.4,3.7-2.6,5.5-3.9c3.6,1.7,7.6-0.2,10.7-5.3c0.1,0.7,0.3,1.2,0.5,2.4
			c0.9-1.5,1.7-2.5,2.3-3.7c2.3-5,4.7-9.9,6.6-15.1c0.7-1.8,0.1-4,0.3-6c0.3-2.3,1.5-4.7,1-6.7c-0.5-2.2-2.5-4.1-3.9-6.1
			c-0.6,0.4-1.4,0.7-1.6,1.2c-0.9,2.1-2.5,2.4-4.5,2.3c-3.8-0.1-5.4,1.9-5,5.1c2.7-0.1,5.5-0.9,8-0.3c3.2,0.8,4.5,6.9,2.4,9.5
			c-1.6,1.9-3.4,3.6-5.3,5.7c0.3-1.4,0.7-2.6,0.6-3.8c0-1.1-0.6-2.1-0.9-3.2c-0.9,0.5-2,0.8-2.6,1.5c-0.8,0.9-1.2,2.1-1.7,3.3
			c-0.5,1-0.9,1.9-1.5,3.1c1.2,1.5,1.3,7.5-0.2,10c-1.2-2.3-2.5-2.7-4.2-0.6c-0.3,0.3-1.2,0.5-1.6,0.3c-2.6-1.2-4.1,0.3-4.5,2.4
			c-0.6,3-2.3,4.2-5.2,4.6c-1.2,0.1-2.3,0.6-4,1.1c1.6-2.3,3-4,3.9-5.8c0.5-1.1,0.5-2.7,0.2-3.9c-0.7-3.1-3.1-2.1-5.2-1.7
			c-0.9-2.6,0.5-3.9,2.5-4.4c5.1-1.4,8.8-4,10.7-9.3c1-2.9,3.6-5.4,5.8-8.4c-1.5-0.5-2.6-1-3.7-1.1c-10-0.7-19.9-1.2-29.9-1.9
			c-0.8-0.1-2.1-0.9-2.2-1.6c-0.4-2.4-0.5-4.9-0.7-7.3c-1-10.3,2.2-19.8,4.6-29.6c2.1-8.4,2.7-17,1.4-25.6
			c-0.7-4.8-1.3-9.6-1.8-14.5c-0.1-1.4,0.4-2.8,0.7-4.5c-5.8-0.8-11.4-2.2-16.9-2.3c-8.1-0.1-16.3,0.5-24.4,1.1
			c-5,0.3-10.1,0.9-15.1,1.8c-8,1.5-15.9,3.1-23.8,5.1c-6.2,1.6-12.2,3.8-18.2,5.8c-3.8,1.2-7.4,1.6-11.3-0.1
			c-1.3-0.6-3.8,0.8-5.3,1.9c-6.5,4.8-9.7,11.7-11.4,19.2c-2.1,9.2-3.7,18.6-5.4,27.9c-0.2,1.2,0,2.5,0,4.2
			c9.1-1.8,16.8,2.3,24.5,5.2c3.7,1.4,7,4,8.9,8c2.3,4.7-0.5,9.4-5.9,9.5c-0.7-3.5-4.9-6.5-8.3-5.7c-0.6,0.2-1.3,1.3-1.5,2.1
			c-0.7,2.5-2.7,3.8-4.8,4.1c-1.5,0.2-3.2-1-5-1.7c-1.6,1.5-0.2,3.2,3.9,3.6c1.3,0.1,2.6,0,3.9,0.7c-3.2,0.5-6.5,1-10,1.5
			c0,0-0.3-0.4-0.8-1.1c-0.8,1.1-1.4,2.1-2.1,3c-0.2,0-0.4-0.1-0.6-0.1c0-1.3,0.2-2.7,0-4c-0.3-2.4-0.7-4.8-1.4-7
			c-1.2-3.5,0.8-5.9,5.4-6.1c1.9-0.1,3.8,0,6.4,0c-4.9-4.1-9.2-3.8-12.5,0.3c-0.6-0.9-1.5-1.8-1.9-2.9c-0.6-1.6-1.5-3.3-1.3-4.9
			c0.7-4.7,1.9-9.3,2.8-13.9c1.5-7.5,2.9-15,4.2-22.6c0.3-1.9-0.3-3.9-0.6-5.8c-1.6-14.2,2.6-26.1,14.4-34.7c4-2.9,8-5.8,12.2-8.5
			c6.8-4.4,14.5-6.3,22.2-8.2c9.5-2.3,19.2-2.8,28.9-2.3c13.6,0.7,26.6,4.1,39,9.6c0.4,0.2,0.7,0.5,1.8,1.3
			c-5.5-1.8-10.1-3.3-14.8-4.9c2,4.7,4.3,8.6,9.5,9.9c0.4-1,0.8-2.1,1.3-3.2c1.6,0.3,3.5,0.8,5.3,1c0.9,0.1,2.1,0.3,2.6-0.2
			c2-1.7,2.9-0.4,4.1,1c0.4,0.4,1,1,1.5,1c4.8-0.3,8.2,2.9,12.1,4.8c3.4,1.6,6.5,3.9,9.5,6.2c2.1,1.6,3.6,3.9,5.5,5.9
			c0.5,0.6,1.2,1.3,1.9,1.5c7.4,1.7,11.9,7,15.8,12.9c5.6,8.5,8.6,18,10.2,28.1c1.4,8.7,1.6,17.5,0.9,26.2
			c-0.4,5.6-2.5,11.1-3.8,16.6c-0.8,3.4-1.5,6.8-2.6,10.1c-1.4,4.2-3,8.3-4.5,12.5c-3.3,9.5-9.5,17.1-16.1,24.4
			c-4.8,5.3-8.5,11.3-10.8,18.1c-3.6,10.8-9.1,20.2-16.8,28.6c-11.1,12.1-24,21.8-38.1,30.1c-5.7,3.3-11.5,6.4-17,10
			c-7.3,4.8-14.4,3.3-21-0.8c-2.8-1.8-4.1-5.7-6.1-8.7c-4.1-6.3-6.7-13.2-9.1-20.2c-0.3-0.9-1.6-1.7-2.7-2.1
			c-4.6-1.6-9.5-2.6-13.9-4.6c-6.6-3.1-9.4-9-10.7-16c-1.3-7-3.2-13.9-4.9-20.9C29,717,26,706.8,23.8,696.5
			c-1.5-7.3-1.1-14.7-0.4-22.1C23.6,674.4,23.9,674.4,24.2,674.4z M194.3,609.7c0.2,0,0.4,0,0.6,0c-0.1-2.6,0-5.3-0.5-7.9
			c-1.1-5.2-1.3-5.1-5.2-1.5c-0.2,0.2-0.5,0.2-0.3,0.1c-1.7-1.2-3.3-2.3-5-3.5c-2.5,1.4-8.9,0-11.9-3.5c1.5,4.2-0.1,8.5,3.8,11.3
			c0.5-1.1,0.9-2,1.3-3c1.8,0.4,3.6,2.6,4.9-0.4c0,0,0.9,0.2,1.2,0.5c1.9,1.8,3.8,3.1,6.1,1.6C191.1,605.6,192.7,607.7,194.3,609.7z
			 M79.8,568.4c-1.4-4.5-4.4-5.2-7.9-1.6c-0.3,0.3-0.8,0.4-1.3,0.6c-1.1,0.3-2.1,0.5-3.7,0.9c1.6,1.6,1.9,4.6,4.1,2.8
			c2.4-2,3.9-1.1,5.2,0.1C77.4,570.2,78.5,569.4,79.8,568.4z M98.1,564c0,0.3,0,0.6,0.1,1c2.9-0.5,5.9-1,8.8-1.5
			c0.2-0.5,0.5-0.3,0.8,0c0.3,0.3,0.7,0.5,1.1,0.9C108.6,559.6,104.7,559.3,98.1,564z M53.6,575.2c0.7,2.6,1.9,3.4,3.6,2.3
			c0.6-0.4,1.3-1.9,1-2.3C56.4,572,55.5,576.2,53.6,575.2z M96.2,563.6c-2.1-0.2-3.8-0.4-5.7-0.6C91.7,566.7,93.3,566.8,96.2,563.6z
			"/>
		<path d="M66.6,166.5c0-2.4,0.6-4.7-0.1-6.4c-0.8-1.9-8.4-2-9.7-0.3c-0.4,0.5-0.1,1.8,0.3,2.4c0.4,0.7,1.4,1,2,1.6
			c2,1.8,1.6,4.2-0.8,4.2c-4.7,0.1-9.6-0.1-14.2-1c-4.3-0.8-4.4-3.5-0.7-7.6c1.1-1.2,2.4-2.4,3.8-3.2c4.8-2.7,6.3-7.7,7.7-12.3
			c2.4-8.2,6.1-15.6,10.6-22.8c1.4-2.2,2.8-4.9,3-7.4c0.6-8,5.7-11.5,12.6-12.5c11-1.5,21.4-5.1,31.9-8.4c4.5-1.5,8.9-0.9,12.7,2.1
			c2.6,2,4.7,4.6,7.1,6.9c1.8,1.8,3.7,3.4,5.2,5.4c0.6,0.7,0.5,2.3,0.1,3.4c-0.5,1.3-1.5,2.5-2.3,3.7c-1.7,2.4-4.2,2.2-5.8-0.3
			c-1.9-3.1-3.8-6.3-6.2-9c-2.8-3.2-6.9-3.7-10.9-3.2c-4.9,0.6-9.9,1.1-14.6,2.4c-7,2-13.8,4.6-19.1,10c-1.8,1.8-3.3,3.7-2.2,6.7
			c0.7,2.1-0.6,3.7-2.7,4.5c-8,3.1-11.9,9.2-14,17.3c-1.5,5.9,2.1,11.3,7.3,13.6c1.9,0.9,4,1.7,5.5,3c0.7,0.7,0.8,3.1,0.1,3.9
			C71.5,165.7,69,167,66.6,166.5z"/>
		<path d="M63.5,369.1c4.8,0.1,9.8,0,14.3,2.3c6.5,3.2,12.9,6.6,19.3,9.8c0.7,0.3,1.4,0.6,2.1,0.8c-0.1,0.3-0.1,0.6-0.2,0.9
			c-3.2-0.5-6.4-1-9.5-1.6c-6.1-1.2-12-3.4-18.1-3.6c-6.2-0.3-12.8,0.4-18.1,4.3c-4.6,3.4-3.7,9.7-0.1,13c0.4,0.4,1.2,1.2,1.1,1.4
			c-0.4,0.7-1.1,1.8-1.7,1.8c-9,0-11.5,6.5-13.4,13.5c-0.7,2.5-1,5.1-1.3,7.7c-0.3,2.9,1.1,4.9,3.7,6.3c1.6,0.8,3.3,1.7,4.7,2.8
			c3,2.3,2.9,5.9-0.5,7.6c-2.5,1.3-5.4,1.7-8.1,2.6c-1-3.5,3.4-6.4-0.4-8.8c-2.2-1.4-4.8-1-7.7,0.5c1.3,1.6,2.5,3,3.4,4.5
			c0.4,0.6,0.7,1.8,0.4,2.4c-0.3,0.6-1.5,1.3-2,1.1c-1.9-0.7-2.5,0.5-2.8,1.7c-1,3.4-1.7,6.8-2.6,10.2c-0.3-0.1-0.6-0.1-0.9-0.2
			c0.3-1.5,0.6-3.1,1-4.6c0.3-1.2,0.8-2.4,1.2-3.6c0.9-3.2,0.6-3.5-2.6-3.8c-3.4-0.3-6.9-0.8-9.7-1.1c-0.2-1.9-0.4-3.1-0.4-4.3
			c0.1-1.5-0.1-3.7,0.8-4.4c4.4-3.7,6.3-8.7,7.9-13.7c2.5-7.5,6.6-13.9,12.4-19.1c3.8-3.4,5.8-7.4,6.8-12.2
			c1.1-5.5,5.1-7.9,10.7-6.9c4.9,0.9,9.9,1.1,14.7-0.6c0.9-0.3,1.5-1.4,2.2-2.2c-0.7-0.7-1.4-1.5-2.2-2c-1.5-0.7-3-1.1-4.6-1.6
			C63.5,369.6,63.5,369.4,63.5,369.1z"/>
		<path d="M126.2,651c-2.5,3.8-4.9,1.5-7.5,0.3c-2.3-1.1-4.7-2.3-7.2-3c-5.3-1.4-9.9,1-14.6,3.1c11.6-0.6,20.4,6.5,30.5,9.8
			c0,0.4-0.1,0.9-0.1,1.3c-2.4,0-4.8,0.3-7.2,0.1c-2.1-0.2-3.6-0.1-3.4,2.1c-2.9,0.6-5.7,1.1-8.5,1.6c-0.1-0.3-0.2-0.6-0.3-0.9
			c2.1-0.9,4.2-1.8,7-3c-2.5-1.5-4.5-2.8-6.6-3.7c-0.6-0.3-2.1,0.4-2.4,1c-2.7,5.1-6.9,5.6-10.2,1c-0.2-0.2-0.5-0.3-1.4-0.3
			c0.3,1.4,0.7,2.8,1,4.2c-0.1,0.2-0.3,0.5-0.4,0.7c-0.8-0.6-1.6-1.3-2.5-1.9c-0.5-0.3-1.1-0.5-1.6-0.5c-1.1,0-2.1,0.2-2.5-0.4
			c-0.8-1.3-1.2-3-2.3-3.7c-3.1-2.1-6.6-3.7-9.8-5.7c-4.5-2.8-4.1-5.4-0.1-8.5c3.9-2.9,8.2-2,12.3-2.6c6.5-0.9,13.1-0.7,19.6-1.4
			c4.9-0.5,8.4,2.2,11.9,4.7C122.2,646.8,124.1,649.1,126.2,651z"/>
		<path d="M39.4,64.7c-0.1,1.4-0.1,2.9-0.4,4.3c-0.9,5.3-2.2,10.6-2.8,16c-0.9,7.8-4.4,14.3-8.9,20.6c-1.1,1.5-1.6,3.4-2.4,5.1
			c0.2,0.2,0.4,0.3,0.7,0.5c1.9-0.9,3.6-2.1,5.6-2.7c1.3-0.4,3.2-0.4,4.2,0.3c4.6,3.3,9,6.8,13.4,10.3c1,0.9,1.7,2.2,2.5,3.4
			c-0.3,0.4-0.6,0.7-0.9,1.1c-2.5-1.1-5.1-2.1-7.4-3.4c-3.6-2-7.1-4.4-10.7-6.3c-2.7-1.4-4.9,0.6-7.8,1.7c1.3,3.5,2.6,6.8,3.9,10.5
			c2.3-1,4.3-1.5,5.8-2.5c4.8-3.1,9.4-0.9,14,0.4c0.4,0.1,1,1.2,0.9,1.6c-0.3,0.8-0.9,2.1-1.5,2.2c-1.7,0.4-2,1.2-2,2.7
			c0,2.5-4.4,5.7-6.3,4.3c-2.3-1.7-4.4-0.3-6.9-0.8c1.4,4.4-0.1,8.1-1.3,12.1c-1.3,4.3-0.9,9.2-1.2,13.7c-1.3-4.4-1.7-9,0.2-13.6
			c1.5-3.7,2.7-7.5,1.2-11.6c-0.6-1.6-1.4-2.6-3.4-2.5c-1.3,0.1-2.7-0.5-4.7-0.9c1.2-0.9,1.9-1.4,2.5-1.8c-1-0.8-2-1.5-3-2.3
			c0.2-0.3,0.3-0.5,0.5-0.8c1.3,0.1,2.7,0.3,4.8,0.5c-1.2-2.3-2.3-3.8-2.9-5.5c-2.6-6.8-1.9-12.9,2.8-18.8
			c4.1-5.1,6.2-11.3,7.1-17.9c0.7-5.6,1.5-11.2,2.5-16.7C37.6,66.8,38.7,65.8,39.4,64.7C39.5,64.8,39.4,64.7,39.4,64.7z"/>
		<path d="M129.1,124c0.4,2.7-0.5,4-2.8,3.9c-4.1-0.3-8.1-0.9-12.2-1c-2.7-0.1-5.5,0.2-6.7,2.8c-2.7,0-5.2,0.1-7.7,0
			c-1.6-0.1-3.4-0.1-4.9-0.7c-1.4-0.6-2.5-2-3.9-3.1c-2.6,2.4-6.6,2.5-8.8,0.1c0.5-1.8,1-3.3,1.5-4.8c0.8-2.9,6.1-6.8,9.7-7
			c4.3-0.2,8.4,0.5,12.4,2.3c2.7,1.2,5.8,1.8,8.8,2.3c2.4,1.9,4.6,4.4,8.3,4.3c0.3,0,0.9,0.1,1,0.3
			C124.9,126.8,126.8,125.7,129.1,124z M101.4,127.1c3.3-0.6,6.1-1.1,8.8-1.5C103.6,121.1,102.7,121.2,101.4,127.1z"/>
		<path d="M207.2,140.5c-0.2-2.8-0.3-5-0.5-7.2c-0.5-0.1-1.1-0.2-1.6-0.3c-1,2-1.9,4-2.9,5.9c-0.5,1.1-1.2,2-1.9,3.1
			c2.1,1.8,2.7,6.1,1.5,8.6c-2,0.5-3.3,0.7-4.6,1.1c-0.6,0.2-1.4,0.8-1.8,0.6c-3.4-1.2-4.8,0.8-4.9,3.6c0,2.4-1.2,3-3,3.6
			c-1.8,0.6-3.5,1.3-5.6,1.4c0.8-1.1,1.7-2.1,2.2-3.3c0.7-1.7,0.8-3.5,1.5-5.2c0.7-1.7,1.6-3.6,2.9-4.9c2.5-2.5,4.2-5.4,5.2-8.9
			c1.1-3.8,3-7.5,4.6-11.2c0.2-0.5,1-0.9,1.7-1.1c1.2-0.4,2.6-0.4,3.7-0.8c3.1-1.2,5.6-0.9,7.4,1.2c1.4,1.6,1.6,6.5,0.3,8.4
			c-0.7,1-1.5,1.8-2.2,2.7C208.7,138.5,208.1,139.3,207.2,140.5z"/>
		<path d="M170.9,391.1c-0.3-1.7-0.4-3-0.7-4.3c-0.1-0.6-0.6-1.6-1-1.6c-0.6,0-1.5,0.4-1.9,0.9c-1.7,2.3-2.2,4.8-1.7,7.7
			c0.5,3.1,0.8,6.3,1.1,8.5c-1.9,0.5-3.2,1-4.5,1.1c-4.5,0.3-6.2,2.8-7.1,7.1c-0.3,1.5-3.7,2.4-5.7,3.5c-0.2-0.3-0.4-0.6-0.7-0.8
			c0.6-1,1.7-2,1.8-3.1c0.6-7.7,6-13.6,7.3-21c1-5.4,4.6-9.1,9.4-11.5c2.1-1,4.6-1.1,6.5,0.8c1.6,1.6,1.8,6.5,0.5,8.4
			C173.2,388.1,172.2,389.3,170.9,391.1z"/>
		<path d="M92,726.2c-0.8,0.2-1,0.4-1.2,0.4c-8.5,0.2-16.9,0.3-25.4,0.6c-5.9,0.2-11.6-0.3-17.3-2.3c-2-0.7-4.3-0.4-6.4-0.8
			c-1.7-0.3-2.1-1.6-0.7-2.7c2.4-1.8,4.9-3.4,7.5-4.8c0.8-0.4,2.3-0.2,3.1,0.3c2.3,1.7,4.6,1.1,7.2,0.8c2.8-0.3,5.8-0.1,8.5,0.6
			c7.2,1.8,14.3,3.9,21.4,6C89.7,724.7,90.6,725.5,92,726.2z"/>
		<path d="M73.7,398.9c-1.8-2.6-3.6-5.2-5.3-7.7c0,0,0.2,0.6,0,1.1c-0.3,0.8-0.9,1.5-1.4,2.3c-1.6-1.7-3.8-3.2-4.6-5.2
			c-0.7-1.7,0.2-4.1,0.4-6.1c2.1-0.2,4.4-0.8,6.6-0.5c2.6,0.3,5.1,1.3,7.7,2c2.2,0.6,4.4,1.5,6.7,1.8c3.5,0.4,7,0.3,10.4,0.6
			c0.6,0.1,1.6,1.1,1.5,1.7c0,0.7-0.8,1.7-1.4,2c-3.4,1.7-6.9,3.4-10.4,4.9c-2.5,1-4.7,3-7.8,1.8C75.6,397.5,74.8,398.3,73.7,398.9z
			 M75.6,395c2.5,1.1,7.8-0.3,10.3-2.8c-2.8-2.8-7.7-4-10.3-2.6C75.6,391.3,75.6,393,75.6,395z"/>
		<path d="M43.9,686.1c0.7,1,0.9,1.1,0.9,1.3c0.7,6.3,3.2,8.1,9.1,5.8c4-1.6,7.3-1.1,10.5,1.6c1.3,1,2.7,1.9,4.1,2.7
			c3.2,1.6,6,0.1,8.7-1.9c0.8,3.4-1.7,4.9-3.5,6.5c-1.5,1.3-3.2,1-5.1-0.2c-3.8-2.5-8-1.9-12.3-0.9c-3.2,0.7-6.7,0.4-10,0
			c-2.3-0.3-4.7-4-4.4-6.4C42.4,691.8,43.2,689.3,43.9,686.1z"/>
		<path d="M28,1033.5c-3.2-0.5-6.4-4.4-6.1-8.4c0.4-5.1,1.3-10.2,2.1-15.3c0.4-2.5,0.7-4.8-1.8-6.8c-1-0.8-1.6-3.3-1.2-4.7
			c0.9-2.8,2.1-5.4,0.1-8.1c3.8-1.7,7-0.8,10.3,0.5c2.7,1.1,5.8,1.4,8.7,1.9c3.1,0.5,6.2,0.8,9.3,1c1.6,0.1,3.3-0.2,5-0.4
			c0.1,0.3,0.2,0.6,0.3,0.9c-1.5,0.7-2.9,1.4-4.4,2.1c-1.9,1-4.1,1.6-5.5,3.1c-4.8,5.1-10.9,5.1-17.1,5.3c-0.5,0-1,0-1.5,0
			c-0.2,0-0.3,0.1,0,0c-1.1,5.6-2.3,10.9-3.1,16.2C22.3,1025.8,23.4,1030.4,28,1033.5C27.9,1033.5,28,1033.5,28,1033.5z M45.5,995.9
			c-0.4-0.4-0.6-0.7-0.9-0.7c-6.5-0.3-12.9-0.7-19.4-0.6c-2.6,0-2.9,2.7-3,4.6c-0.1,1.1,0.7,2.8,1.5,3.3c1.2,0.6,2.9,0.5,4.4,0.4
			c2.4-0.3,4.8-0.7,7.1-1.2C39.2,1000.7,42.5,998.7,45.5,995.9z"/>
		<path d="M37.6,198c-0.3-2.9,2.3-5.7,5.8-5.9c9-0.5,17.9,0.1,26.8,2.6c3.3,0.9,7.1-0.2,10.7-0.3c0.9,0,1.8,0.4,2.6,0.6
			c-0.5,0.7-1,1.9-1.6,2c-2.4,0.5-5.1,1.4-7.4,0.9c-6.4-1.3-12.7-1.1-19.2,0c-2,0.4-4.4,0-6.3-0.7c-3.6-1.3-6.9-1.7-10.2,0.6
			C38.4,198.1,37.9,197.9,37.6,198z"/>
		<path d="M16.2,415.7c2.7-7.9,6.8-14.9,12-21.3c0.7-0.8,1.3-1.7,2-2.5c2.3-2.9,1.7-4.4-2.1-5c-3.8-0.6-5.2-2.1-5.4-6
			c1.4,0.7,2.7,1.4,4.7,2.3c-1.1-1.7-1.8-2.8-2.1-3.2c0.5-1.9,1.4-3.6,1-4.2c-0.9-1.1-2.3-3.1-4.2-0.9c-2.9-3.3-0.7-6.3,0.4-9.4
			c-0.4,2.2-0.8,4.4-1.2,6.5c5.7,0,8.8,3.6,11.8,7c1.3,1.4,2.2,3.2,3,5c0.3,0.8,0.2,2.3-0.3,2.9C27.8,395.6,21.6,405.4,16.2,415.7z"
			/>
		<path d="M66,737.9c-6.1-2-11.5-1.3-17,1.8c2.8-3.4,6.1-6.6,0.8-10.5c2.7,0.5,5.5,1.4,8.2,1.5c2.8,0.1,5.7-0.7,8.9-1.1
			C66.7,732.4,62.3,734.5,66,737.9z"/>
		<path d="M26.9,463.2c0.1-1.6-0.2-3.4,0.5-4.7c1.1-2.1,1.8-4,0-5.7c12.1-0.6,24-0.6,32.2,10.6c-1.6-1-3.3-1.8-4.7-2.9
			c-4.1-3.4-9.1-3.4-14-4c-2.4-0.3-4.8-0.5-7.3-0.6c-4.2-0.2-4.5,0.1-5.8,4.3C27.4,461.1,27.1,462.2,26.9,463.2
			C26.9,463.2,26.9,463.2,26.9,463.2z"/>
		<path d="M42.7,206.4c10.7,2.7,21,2,31.1-3c0.4,4.2-2.4,4.3-4.4,5.3c-5.8,2.8-11.9,1.2-17.9,1.2c-2.4,0-4.9-0.3-7.3-0.6
			c-0.7-0.1-1.3-1-2-1.5C42.5,207.3,42.6,206.9,42.7,206.4z"/>
		<path d="M71.9,450.8c-4.7-5.6-9.5-11.3-14.2-17.1c-2.8-3.4-2.4-7.4-0.9-11.3c0.3,1.9,0.4,3.9,0.8,5.8c0.9,4.8,4.1,8.3,7.4,11.6
			c3,3,5.6,6.2,6.8,10.4C71.8,450.5,71.9,450.8,71.9,450.8z"/>
		<path d="M31.7,320.7c-4.8,11.8-6.5,24.2-7.5,36.9C24.2,344.7,26,332.3,31.7,320.7z"/>
		<path d="M34.6,175.2C37,182,36.5,190,35.4,198c-0.3,0-0.5,0-0.8,0C34.6,190.1,34.6,182.2,34.6,175.2z"/>
		<path d="M52.5,299.9c-2.9,2.3-5.9,4.6-8.8,6.8c-0.2-0.2-0.3-0.5-0.5-0.7c3-2.3,5.9-4.5,8.9-6.8C52.2,299.5,52.4,299.7,52.5,299.9z
			"/>
	</g>
	<path d="M234,0v1080h262V0H234z M482.7,96.3v37c0,1.6-0.9,2-2.1,0.9l-4.7-4.7c-1.1-1.1-2.1-3.4-2.1-5v-4.9c0-1.6,0.6-3.6,1.4-4.4
		c0.8-0.8,1.6-1.7,1.9-2.1c0,0,0,0,0-0.4s0-0.4,0-0.4c-0.2-0.4-1.1-1.3-1.9-2.1c-0.8-0.8-1.4-1.8-1.4-3.4v-1.7c0-1.6,0.9-3.9,2.1-5
		l4.7-4.7C481.8,94.3,482.7,94.7,482.7,96.3z M440.7,779l-0.3-0.3c-1.1-1.1-2.1-2.8-2.1-3.6c0-0.9,0.9-2.5,2.1-3.6l0.3-0.3
		c1.1-1.1,3-1.1,4.2,0l0.3,0.3c1.1,1.1,2.1,2.8,2.1,3.6c0,0.9-0.9,2.5-2.1,3.6l-0.3,0.3C443.8,780.1,441.9,780.1,440.7,779z
		 M444.7,831.9l0.5,0.5c1.1,1.1,2.1,3.4,2.1,5v3.7c0,1.6-0.9,3.9-2.1,5l-0.5,0.5c-1.1,1.1-3,1.1-4.2,0l0,0c-1.1-1.1-2.1-3.4-2.1-5
		V837c0-1.6,0.9-3.9,2.1-5l0,0C441.7,830.8,443.5,830.8,444.7,831.9z M445.2,764.3l-0.3,0.3c-1.1,1.1-3,1.1-4.2,0l-0.3-0.3
		c-1.1-1.1-2.1-3.4-2.1-5v-8.8c0-1.6,0.9-3.9,2.1-5l0.3-0.3c1.1-1.1,3-1.1,4.2,0l0.3,0.3c1.1,1.1,2.1,3.4,2.1,5v8.8
		C447.2,760.9,446.3,763.1,445.2,764.3z M444.7,573.1c-1.1,1.1-3,1.1-4.2,0l0,0c-1.1-1.1-2.1-2.9-2.1-3.9c0-1,0.9-2.7,2.1-3.9l0,0
		c1.1-1.1,3-1.1,4.2,0l0.5,0.5c1.1,1.1,2.1,2.7,2.1,3.4c0,0.7-0.9,2.3-2.1,3.4L444.7,573.1z M440.5,241.3L440.5,241.3
		c1.2-1.2,3.1-1.2,4.2,0l0.5,0.5c1.1,1.1,2.1,2.7,2.1,3.4c0,0.7-0.9,2.3-2.1,3.4l-0.5,0.5c-1.1,1.1-3,1.1-4.2,0l0,0
		c-1.1-1.1-2.1-2.9-2.1-3.9C438.4,244.2,439.3,242.5,440.5,241.3z M438.4,229.5V225c0-1.6,0.9-3.9,2.1-5l0,0c1.1-1.1,3-1.1,4.2,0
		l0.5,0.5c1.1,1.1,2.1,3.4,2.1,5v3.7c0,1.6-0.9,3.9-2.1,5l-0.5,0.5c-1.1,1.1-3,1.1-4.2,0l0,0C439.3,233.4,438.4,231.2,438.4,229.5z
		 M440.5,543.9c1.1-1.1,3-1.1,4.2,0l0.5,0.5c1.1,1.1,2.1,3.4,2.1,5v3.7c0,1.6-0.9,3.9-2.1,5l-0.5,0.5c-1.1,1.1-3,1.1-4.2,0l0,0
		c-1.1-1.1-2.1-3.4-2.1-5V549C438.4,547.4,439.3,545.1,440.5,543.9L440.5,543.9z M446.8,575.2l0.1-0.1c1.1-1.1,3.4-2,5-1.9l16,1.1
		c1.6,0.1,3.9,1.1,5,2.3l5.4,5.4c1.1,1.1,0.8,2-0.9,1.9l-25.3-1.8c-1.6-0.1-3.9-1.1-5-2.3l-0.4-0.4
		C445.6,578.2,445.6,576.3,446.8,575.2z M478.6,539.7l-4.1,4.1c-1.1,1.1-3.4,2-5,1.9l-17.3-1.2c-1.6-0.1-3.9-1.1-5-2.3l-0.4-0.4
		c-1.1-1.1-1.1-3,0-4.2l0.1-0.1c1.1-1.1,3.4-2,5-1.9l25.8,1.8C479.4,537.5,479.8,538.6,478.6,539.7z M477.3,507.8l-25.2-1.8
		c-1.6-0.1-3.9-1.1-5-2.3l-0.4-0.4c-1.1-1.1-1.1-3,0-4.2l0.1-0.1c1.1-1.1,3.4-2,5-1.9l15.9,1.1c1.6,0.1,3.9,1.1,5,2.3l5.4,5.4
		C479.3,507,478.9,507.9,477.3,507.8z M452.1,452c-1.6-0.1-3.9-1.1-5-2.3l-0.4-0.4c-1.1-1.1-1.1-3,0-4.2l0.1-0.1
		c1.1-1.1,3.4-2,5-1.9l15.9,1.1c1.6,0.1,3.9,1.1,5,2.3l5.4,5.4c1.1,1.1,0.8,2-0.9,1.9L452.1,452z M452.1,389c-1.6-0.1-3.9-1.1-5-2.3
		l-0.4-0.4c-1.1-1.1-1.1-3,0-4.2l0.1-0.1c1.1-1.1,3.4-2,5-1.9l15.9,1.1c1.6,0.1,3.9,1.1,5,2.3l5.4,5.4c1.1,1.1,0.8,2-0.9,1.9
		L452.1,389z M469.4,352.8l-17.3-1.2c-1.6-0.1-3.9-1.1-5-2.3l-0.4-0.4c-1.1-1.1-1.1-3,0-4.2l0.1-0.1c1.1-1.1,3.4-2,5-1.9l25.8,1.8
		c1.6,0.1,2,1.1,0.9,2.3l-4.1,4.1C473.2,352.1,471,352.9,469.4,352.8z M477.3,311.8l-25.2-1.8c-1.6-0.1-3.9-1.1-5-2.3l-0.4-0.4
		c-1.1-1.1-1.1-3,0-4.2l0.1-0.1c1.1-1.1,3.4-2,5-1.9l15.9,1.1c1.6,0.1,3.9,1.1,5,2.3l5.4,5.4C479.3,311,478.9,311.9,477.3,311.8z
		 M452.2,258c-1.6-0.1-3.9-1.1-5-2.3l-0.4-0.4c-1.1-1.1-1.1-3,0-4.2l0.1-0.1c1.1-1.1,3.4-2,5-1.9l16,1.1c1.6,0.1,3.9,1.1,5,2.3
		l5.4,5.4c1.1,1.1,0.8,2-0.9,1.9L452.2,258z M478.6,215.7l-4.1,4.1c-1.1,1.1-3.4,2-5,1.9l-17.3-1.2c-1.6-0.1-3.9-1.1-5-2.3l-0.4-0.4
		c-1.1-1.1-1.1-3,0-4.2l0.1-0.1c1.1-1.1,3.4-2,5-1.9l25.8,1.8C479.4,213.5,479.8,214.6,478.6,215.7z M445.9,169.2
		c1-1,3.2-1.7,4.8-1.6l21.7,1.5c1.6,0.1,3.9,1.1,5,2.3l0.1,0.1c1.1,1.1,1.1,3,0,4.2l-0.4,0.4c-1.1,1.1-3.4,2-5,1.9l-19.8-1.4
		c-1.6-0.1-3.9-1.1-5-2.3l-1.1-1.1C445,172,444.9,170.2,445.9,169.2z M477.3,137.8l-25.2-1.8c-1.6-0.1-3.9-1.1-5-2.3l-0.4-0.4
		c-1.1-1.1-1.1-3,0-4.2l0.1-0.1c1.1-1.1,3.4-2,5-1.9l15.9,1.1c1.6,0.1,3.9,1.1,5,2.3l5.4,5.4C479.3,137,478.9,137.9,477.3,137.8z
		 M469.4,99.8l-17.3-1.2c-1.6-0.1-3.9-1.1-5-2.3l-0.4-0.4c-1.1-1.1-1.1-3,0-4.2l0.1-0.1c1.1-1.1,3.4-2,5-1.9l25.8,1.8
		c1.6,0.1,2,1.1,0.9,2.3l-4.1,4.1C473.2,99.1,471,99.9,469.4,99.8z M477.4,71.6l-25.3-1.8c-1.6-0.1-3.9-1.1-5-2.3l-0.4-0.4
		c-1.1-1.1-1.1-3,0-4.2l0.1-0.1c1.1-1.1,3.4-2,5-1.9l16,1.1c1.6,0.1,3.9,1.1,5,2.3l5.4,5.4C479.5,70.9,479.1,71.7,477.4,71.6z
		 M445.2,60.4l-0.5,0.5c-1.1,1.1-3,1.1-4.2,0l0,0c-1.1-1.1-2.1-2.9-2.1-3.9c0-1,0.9-2.7,2.1-3.9l0,0c1.1-1.1,3-1.1,4.2,0l0.5,0.5
		c1.1,1.1,2.1,2.7,2.1,3.4C447.2,57.7,446.3,59.3,445.2,60.4z M438.4,63c1.1,1.1,1.3,2.9,0.2,3.9s-3.2,1.8-4.8,1.6l-23.1-1.6
		c-1.6-0.1-2-1.1-0.9-2.3l4.1-4.1c1.1-1.1,3.4-2,5-1.9l13.3,0.9c1.6,0.1,3.9,1.1,5,2.3L438.4,63z M409.7,86.8l22.5,1.6
		c1.6,0.1,3.9,1.1,5,2.3l1.1,1.1c1.1,1.1,1.2,2.9,0.2,3.9c-1,1-3.2,1.8-4.8,1.6l-14.6-1c-1.6-0.1-3.9-1.1-5-2.3l-5.4-5.4
		C407.7,87.5,408.1,86.7,409.7,86.8z M432.2,125.8c1.6,0.1,3.9,1.1,5,2.3l1.1,1.1c1.1,1.1,1.2,2.9,0.2,3.9c-1,1-3.2,1.8-4.8,1.6
		l-23.1-1.6c-1.6-0.1-2-1.1-0.9-2.3l4.1-4.1c1.1-1.1,3.4-2,5-1.9L432.2,125.8z M416.5,167.2c1-1,3.2-1.8,4.8-1.6l13,0.9
		c1.6,0.1,3.9,1.1,5,2.3l0.2,0.2c1.1,1.1,1.1,3,0,4.2l-0.3,0.3c-1.1,1.1-3.4,2-5,1.9l-11.4-0.8c-1.6-0.1-3.9-1.1-5-2.3l-1.1-1.1
		C415.5,170,415.4,168.2,416.5,167.2z M432.3,210.2c1.6,0.1,3.9,1.1,5,2.3l1.1,1.1c1.1,1.1,1.3,2.9,0.2,3.9c-1,1-3.2,1.8-4.8,1.6
		l-14.6-1c-1.6-0.1-3.9-1.1-5-2.3l-5.4-5.4c-1.1-1.1-0.8-2,0.9-1.9L432.3,210.2z M432.3,247.8c1.6,0.1,3.9,1.1,5,2.3l1.1,1.1
		c1.1,1.1,1.3,2.9,0.2,3.9c-1,1-3.2,1.8-4.8,1.6l-23.1-1.6c-1.6-0.1-2-1.1-0.9-2.3l4.1-4.1c1.1-1.1,3.4-2,5-1.9L432.3,247.8z
		 M409.9,304.8l4.1-4.1c1.1-1.1,3.4-2,5-1.9l13.2,0.9c1.6,0.1,3.9,1.1,5,2.3l1.1,1.1c1.1,1.1,1.2,2.9,0.2,3.9c-1,1-3.2,1.8-4.8,1.6
		l-23.1-1.6C409.1,307,408.7,306,409.9,304.8z M409.7,339.8l22.5,1.6c1.6,0.1,3.9,1.1,5,2.3l1.1,1.1c1.1,1.1,1.2,2.9,0.2,3.9
		c-1,1-3.2,1.8-4.8,1.6l-14.6-1c-1.6-0.1-3.9-1.1-5-2.3l-5.4-5.4C407.7,340.5,408.1,339.7,409.7,339.8z M409.9,383.8l4.1-4.1
		c1.1-1.1,3.4-2,5-1.9l13.2,0.9c1.6,0.1,3.9,1.1,5,2.3l1.1,1.1c1.1,1.1,1.2,2.9,0.2,3.9c-1,1-3.2,1.8-4.8,1.6l-23.1-1.6
		C409.1,386,408.7,385,409.9,383.8z M432.2,441.8c1.6,0.1,3.9,1.1,5,2.3l1.1,1.1c1.1,1.1,1.2,2.9,0.2,3.9c-1,1-3.2,1.8-4.8,1.6
		l-23.1-1.6c-1.6-0.1-2-1.1-0.9-2.3l4.1-4.1c1.1-1.1,3.4-2,5-1.9L432.2,441.8z M409.9,500.8l4.1-4.1c1.1-1.1,3.4-2,5-1.9l13.2,0.9
		c1.6,0.1,3.9,1.1,5,2.3l1.1,1.1c1.1,1.1,1.2,2.9,0.2,3.9c-1,1-3.2,1.8-4.8,1.6l-23.1-1.6C409.1,503,408.7,502,409.9,500.8z
		 M409.7,532.7l22.6,1.6c1.6,0.1,3.9,1.1,5,2.3l1.1,1.1c1.1,1.1,1.3,2.9,0.2,3.9c-1,1-3.2,1.8-4.8,1.6l-14.6-1
		c-1.6-0.1-3.9-1.1-5-2.3l-5.4-5.4C407.7,533.4,408.1,532.6,409.7,532.7z M432.3,571.8c1.6,0.1,3.9,1.1,5,2.3l1.1,1.1
		c1.1,1.1,1.3,2.9,0.2,3.9c-1,1-3.2,1.8-4.8,1.6l-23.1-1.6c-1.6-0.1-2-1.1-0.9-2.3l4.1-4.1c1.1-1.1,3.4-2,5-1.9L432.3,571.8z
		 M432.2,632.8c1.6,0.1,3.9,1.1,5,2.3l1.1,1.1c1.1,1.1,1.2,2.9,0.2,3.9c-1,1-3.2,1.8-4.8,1.6l-23.1-1.6c-1.6-0.1-2-1.1-0.9-2.3
		l4.1-4.1c1.1-1.1,3.4-2,5-1.9L432.2,632.8z M416.5,707.2c1-1,3.2-1.8,4.8-1.6l13,0.9c1.6,0.1,3.9,1.1,5,2.3l0.2,0.2
		c1.1,1.1,1.1,3,0,4.2l-0.3,0.3c-1.1,1.1-3.4,2-5,1.9l-11.4-0.8c-1.6-0.1-3.9-1.1-5-2.3l-1.1-1.1C415.5,710,415.4,708.2,416.5,707.2
		z M418.9,777.1l13.9,1c1.6,0.1,3.9,1.1,5,2.3l0.8,0.8c1.1,1.1,1.2,3,0.1,4.1s-3.3,1.9-4.9,1.8l-23.1-1.6c-1.6-0.1-2-1.1-0.9-2.3
		l4.1-4.1C415,777.8,417.3,777,418.9,777.1z M437.9,848.9c1.1,1.1,1.3,2.9,0.2,3.9s-3.2,1.8-4.8,1.6l-23.1-1.6
		c-1.6-0.1-2-1.1-0.9-2.3l4.1-4.1c1.1-1.1,3.4-2,5-1.9l13.3,0.9c1.6,0.1,3.9,1.1,5,2.3L437.9,848.9z M432.2,899.8
		c1.6,0.1,3.9,1.1,5,2.3l1.1,1.1c1.1,1.1,1.2,2.9,0.2,3.9c-1,1-3.2,1.8-4.8,1.6l-23.1-1.6c-1.6-0.1-2-1.1-0.9-2.3l4.1-4.1
		c1.1-1.1,3.4-2,5-1.9L432.2,899.8z M409.7,937.8l22.5,1.6c1.6,0.1,3.9,1.1,5,2.3l1.1,1.1c1.1,1.1,1.2,2.9,0.2,3.9
		c-1,1-3.2,1.8-4.8,1.6l-14.6-1c-1.6-0.1-3.9-1.1-5-2.3l-5.4-5.4C407.7,938.5,408.1,937.7,409.7,937.8z M432.2,976.8
		c1.6,0.1,3.9,1.1,5,2.3l1.1,1.1c1.1,1.1,1.2,2.9,0.2,3.9c-1,1-3.2,1.8-4.8,1.6l-23.1-1.6c-1.6-0.1-2-1.1-0.9-2.3l4.1-4.1
		c1.1-1.1,3.4-2,5-1.9L432.2,976.8z M409.7,1009.1l22.6,1.6c1.6,0.1,3.9,1.1,5,2.3l1.1,1.1c1.1,1.1,1.3,2.9,0.2,3.9
		c-1,1-3.2,1.8-4.8,1.6l-14.6-1c-1.6-0.1-3.9-1.1-5-2.3l-5.4-5.4C407.7,1009.8,408.1,1009,409.7,1009.1z M438.4,1025.4
		c0-1.6,0.9-3.9,2.1-5l0,0c1.1-1.1,3-1.1,4.2,0l0.5,0.5c1.1,1.1,2.1,3.4,2.1,5v3.7c0,1.6-0.9,3.9-2.1,5l-0.5,0.5
		c-1.1,1.1-3,1.1-4.2,0l0,0c-1.1-1.1-2.1-3.4-2.1-5V1025.4z M447.1,984.7l-0.4-0.4c-1.1-1.1-1.1-3,0-4.2l0.1-0.1
		c1.1-1.1,3.4-2,5-1.9l15.9,1.1c1.6,0.1,3.9,1.1,5,2.3l5.4,5.4c1.1,1.1,0.8,2-0.9,1.9l-25.2-1.8
		C450.5,986.9,448.2,985.9,447.1,984.7z M469.4,950.8l-17.3-1.2c-1.6-0.1-3.9-1.1-5-2.3l-0.4-0.4c-1.1-1.1-1.1-3,0-4.2l0.1-0.1
		c1.1-1.1,3.4-2,5-1.9l25.8,1.8c1.6,0.1,2,1.1,0.9,2.3l-4.1,4.1C473.2,950.1,471,950.9,469.4,950.8z M477.3,911.8l-25.2-1.8
		c-1.6-0.1-3.9-1.1-5-2.3l-0.4-0.4c-1.1-1.1-1.1-3,0-4.2l0.1-0.1c1.1-1.1,3.4-2,5-1.9l15.9,1.1c1.6,0.1,3.9,1.1,5,2.3l5.4,5.4
		C479.3,911,478.9,911.9,477.3,911.8z M452.2,856.5c-1.6-0.1-3.9-1.1-5-2.3l-0.4-0.4c-1.1-1.1-1.1-3,0-4.2l0.1-0.1
		c1.1-1.1,3.4-2,5-1.9l16,1.1c1.6,0.1,3.9,1.1,5,2.3l5.4,5.4c1.1,1.1,0.8,2-0.9,1.9L452.2,856.5z M461.6,828.1
		c-1.4,0.7-3.9,1.3-5.6,1.1l-11.1-0.8c-1.6-0.1-1.8-0.8-0.3-1.6l19.7-10.2c1.4-0.7,3.9-1.3,5.6-1.1l11.1,0.8
		c1.6,0.1,1.8,0.8,0.3,1.6L461.6,828.1z M478,790.1l-25.3-1.8c-1.6-0.1-3.9-1.1-5-2.3l-0.8-0.8c-1.1-1.1-1.2-3-0.1-4.1
		c1.1-1.1,3.3-1.9,4.9-1.8l16.6,1.2c1.6,0.1,3.9,1.1,5,2.3l5.4,5.4C480,789.3,479.6,790.2,478,790.1z M472.1,718l-19.8-1.4
		c-1.6-0.1-3.9-1.1-5-2.3l-1.1-1.1c-1.1-1.1-1.3-2.9-0.2-3.9s3.2-1.7,4.8-1.6l21.7,1.5c1.6,0.1,3.9,1.1,5,2.3l0.1,0.1
		c1.1,1.1,1.1,3,0,4.2l-0.4,0.4C476,717.2,473.8,718.1,472.1,718z M477.3,644.8l-25.2-1.8c-1.6-0.1-3.9-1.1-5-2.3l-0.4-0.4
		c-1.1-1.1-1.1-3,0-4.2l0.1-0.1c1.1-1.1,3.4-2,5-1.9l15.9,1.1c1.6,0.1,3.9,1.1,5,2.3l5.4,5.4C479.3,644,478.9,644.9,477.3,644.8z
		 M475.9,636.5c-1.1-1.1-2.1-3.4-2.1-5v-4.9c0-1.6,0.6-3.6,1.4-4.4c0.8-0.8,1.6-1.7,1.9-2.1c0,0,0,0,0-0.4s0-0.4,0-0.4
		c-0.2-0.4-1.1-1.3-1.9-2.1c-0.8-0.8-1.4-1.8-1.4-3.4v-1.7c0-1.6,0.9-3.9,2.1-5l4.7-4.7c1.1-1.1,2.1-0.8,2.1,0.9v37
		c0,1.6-0.9,2-2.1,0.9L475.9,636.5z M480.6,504.2l-4.7-4.7c-1.1-1.1-2.1-3.4-2.1-5v-4.9c0-1.6,0.6-3.6,1.4-4.4
		c0.8-0.8,1.6-1.7,1.9-2.1c0,0,0,0,0-0.4s0-0.4,0-0.4c-0.2-0.4-1.1-1.3-1.9-2.1c-0.8-0.8-1.4-1.8-1.4-3.4v-1.7c0-1.6,0.9-3.9,2.1-5
		l4.7-4.7c1.1-1.1,2.1-0.8,2.1,0.9v37C482.7,505,481.8,505.3,480.6,504.2z M480.6,450.2l-4.7-4.7c-1.1-1.1-2.1-3.4-2.1-5v-4.9
		c0-1.6,0.6-3.6,1.4-4.4c0.8-0.8,1.6-1.7,1.9-2.1c0,0,0,0,0-0.4s0-0.4,0-0.4c-0.2-0.4-1.1-1.3-1.9-2.1c-0.8-0.8-1.4-1.8-1.4-3.4
		v-1.7c0-1.6,0.9-3.9,2.1-5l4.7-4.7c1.1-1.1,2.1-0.8,2.1,0.9v37C482.7,451,481.8,451.3,480.6,450.2z M480.6,387.2l-4.7-4.7
		c-1.1-1.1-2.1-3.4-2.1-5v-4.9c0-1.6,0.6-3.6,1.4-4.4c0.8-0.8,1.6-1.7,1.9-2.1c0,0,0,0,0-0.4s0-0.4,0-0.4c-0.2-0.4-1.1-1.3-1.9-2.1
		c-0.8-0.8-1.4-1.8-1.4-3.4v-1.7c0-1.6,0.9-3.9,2.1-5l4.7-4.7c1.1-1.1,2.1-0.8,2.1,0.9v37C482.7,388,481.8,388.3,480.6,387.2z
		 M480.6,308.2l-4.7-4.7c-1.1-1.1-2.1-3.4-2.1-5v-4.9c0-1.6,0.6-3.6,1.4-4.4c0.8-0.8,1.6-1.7,1.9-2.1c0,0,0,0,0-0.4s0-0.4,0-0.4
		c-0.2-0.4-1.1-1.3-1.9-2.1c-0.8-0.8-1.4-1.8-1.4-3.4v-1.7c0-1.6,0.9-3.9,2.1-5l4.7-4.7c1.1-1.1,2.1-0.8,2.1,0.9v37
		C482.7,309,481.8,309.3,480.6,308.2z M452.8,33.6l9.7-5c1.4-0.7,3.9-1.3,5.6-1.1l10.8,0.8c1.6,0.1,1.8,0.8,0.3,1.6l-19,9.8
		c-1.4,0.7-3.9,1.3-5.6,1.1l-1.5-0.1c-1.6-0.1-2.9-1.5-2.9-3C450.2,36.2,451.3,34.4,452.8,33.6z M440.5,31.7c1.1-1.1,3-1.1,4.2,0
		l0.5,0.5c1.1,1.1,2.1,3.4,2.1,5v3.7c0,1.6-0.9,3.9-2.1,5l-0.5,0.5c-1.1,1.1-3,1.1-4.2,0l0,0c-1.1-1.1-2.1-3.4-2.1-5v-4.6
		C438.4,35.2,439.3,32.9,440.5,31.7L440.5,31.7z M409.7,20.5l22.6,1.6c1.6,0.1,3.9,1.1,5,2.3l1.1,1.1c1.1,1.1,1.3,2.9,0.2,3.9
		c-1,1-3.2,1.8-4.8,1.6l-14.6-1c-1.6-0.1-3.9-1.1-5-2.3l-5.4-5.4C407.7,21.2,408.1,20.4,409.7,20.5z M405.5,26.1
		c0-1.6,0.9-2,2.1-0.9l4.7,4.7c1.1,1.1,2.1,3.4,2.1,5v2.2c0,1.6-0.9,3.9-2,5s-1.1,3,0,4.1s2,3.4,2,5v1.9c0,1.6-0.9,3.9-2.1,5
		l-4.7,4.7c-1.1,1.1-2.1,0.8-2.1-0.9V26.1z M405.5,92.3c0-1.6,0.9-2,2.1-0.9l4.7,4.7c1.1,1.1,2.1,3.4,2.1,5v2.2c0,1.6-0.9,3.9-2,5
		c-1.1,1.1-1.1,3,0,4.1c1.1,1.1,2,3.4,2,5v1.9c0,1.6-0.9,3.9-2.1,5l-4.7,4.7c-1.1,1.1-2.1,0.8-2.1-0.9V92.3z M405.5,144.9
		c0-1.6,0.9-2,2.1-0.9l4.7,4.7c1.1,1.1,2.1,3.4,2.1,5v8.1c0,1.6-0.9,3.9-2,5s-1.1,3,0,4.1s2,3.4,2,5v7.8c0,1.6-0.9,3.9-2.1,5
		l-4.7,4.7c-1.1,1.1-2.1,0.8-2.1-0.9V144.9z M405.5,214.3c0-1.6,0.9-2,2.1-0.9l4.7,4.7c1.1,1.1,2.1,3.4,2.1,5v2.2c0,1.6-0.9,3.9-2,5
		c-1.1,1.1-1.1,3,0,4.1s2,3.4,2,5v1.9c0,1.6-0.9,3.9-2.1,5l-4.7,4.7c-1.1,1.1-2.1,0.8-2.1-0.9V214.3z M405.5,408.3
		c0-1.6,0.9-2,2.1-0.9l4.7,4.7c1.1,1.1,2.1,3.4,2.1,5v2.2c0,1.6-0.9,3.9-2,5c-1.1,1.1-1.1,3,0,4.1c1.1,1.1,2,3.4,2,5v1.9
		c0,1.6-0.9,3.9-2.1,5l-4.7,4.7c-1.1,1.1-2.1,0.8-2.1-0.9V408.3z M405.5,538.3c0-1.6,0.9-2,2.1-0.9l4.7,4.7c1.1,1.1,2.1,3.4,2.1,5
		v2.2c0,1.6-0.9,3.9-2,5c-1.1,1.1-1.1,3,0,4.1s2,3.4,2,5v1.9c0,1.6-0.9,3.9-2.1,5l-4.7,4.7c-1.1,1.1-2.1,0.8-2.1-0.9V538.3z
		 M405.5,599.3c0-1.6,0.9-2,2.1-0.9l4.7,4.7c1.1,1.1,2.1,3.4,2.1,5v2.2c0,1.6-0.9,3.9-2,5c-1.1,1.1-1.1,3,0,4.1c1.1,1.1,2,3.4,2,5
		v1.9c0,1.6-0.9,3.9-2.1,5l-4.7,4.7c-1.1,1.1-2.1,0.8-2.1-0.9V599.3z M405.5,684.9c0-1.6,0.9-2,2.1-0.9l4.7,4.7
		c1.1,1.1,2.1,3.4,2.1,5v8.1c0,1.6-0.9,3.9-2,5s-1.1,3,0,4.1s2,3.4,2,5v7.8c0,1.6-0.9,3.9-2.1,5l-4.7,4.7c-1.1,1.1-2.1,0.8-2.1-0.9
		V684.9z M405.5,739.3c0-1.6,0.9-2,2.1-0.9l4.7,4.7c1.1,1.1,2.1,3.4,2.1,5v1.4c0,1.6-0.6,3.6-1.4,4.4s-1.9,2.3-1.7,2.7
		c0.2,0.4,0.9,1.4,1.7,2.2s1.4,2.7,1.4,4.4v8.2c0,1.6-0.9,3.9-2.1,5l-4.7,4.7c-1.1,1.1-2.1,0.8-2.1-0.9V739.3z M408.4,811.2l5.4,0.4
		c1.6,0.1,4.1,0.9,5.4,1.8l15.4,9.6c1.4,0.9,2.1,2.3,1.6,3.2c-0.5,0.9-2.3,1.5-3.9,1.4l-5-0.3c-1.6-0.1-4.1-0.9-5.4-1.8l-13.9-8.7
		c-1.4-0.9-2.5-2.5-2.5-3.7C405.5,812,406.8,811.1,408.4,811.2z M405.5,866.3c0-1.6,0.9-2,2.1-0.9l4.7,4.7c1.1,1.1,2.1,3.4,2.1,5
		v2.2c0,1.6-0.9,3.9-2,5c-1.1,1.1-1.1,3,0,4.1c1.1,1.1,2,3.4,2,5v1.9c0,1.6-0.9,3.9-2.1,5l-4.7,4.7c-1.1,1.1-2.1,0.8-2.1-0.9V866.3z
		 M405.5,943.3c0-1.6,0.9-2,2.1-0.9l4.7,4.7c1.1,1.1,2.1,3.4,2.1,5v2.2c0,1.6-0.9,3.9-2,5c-1.1,1.1-1.1,3,0,4.1c1.1,1.1,2,3.4,2,5
		v1.9c0,1.6-0.9,3.9-2.1,5l-4.7,4.7c-1.1,1.1-2.1,0.8-2.1-0.9V943.3z M312.8,46.9l33.4-17.3c2.4-1.3,6.7-2.1,9.4-1.9l18.8,1.3
		c2.7,0.2,3,1.4,0.5,2.6l-33.4,17.3c-2.4,1.3-6.7,2.1-9.4,1.9l-18.8-1.3C310.6,49.3,310.4,48.1,312.8,46.9z M317.3,169.8v6.3
		c0,2.8-1.6,6.6-3.5,8.5l-0.8,0.8c-1.9,1.9-5.1,1.9-7.1,0l-0.1-0.1c-1.9-1.9-3.5-5.8-3.5-8.5v-7.7c0-2.8,1.6-6.6,3.5-8.5l0.1-0.1
		c1.9-1.9,5.1-1.9,7.1,0l0.8,0.8C315.7,163.2,317.3,167.1,317.3,169.8z M316.5,85.5l0.2-0.2c1.9-1.9,5.8-3.4,8.5-3.2l27.1,1.9
		c2.7,0.2,6.6,1.9,8.5,3.9l9.1,9.1c1.9,1.9,1.3,3.4-1.5,3.2l-42.8-3c-2.7-0.2-6.6-1.9-8.5-3.9l-0.7-0.7
		C314.6,90.6,314.6,87.4,316.5,85.5z M313.8,757.7l-0.8,0.8c-1.9,1.9-5.1,1.9-7.1,0l-0.1-0.1c-1.9-1.9-3.5-5.8-3.5-8.5v-7.7
		c0-2.8,1.6-6.6,3.5-8.5l0.1-0.1c1.9-1.9,5.1-1.9,7.1,0l0.8,0.8c1.9,1.9,3.5,5.8,3.5,8.5v6.3C317.3,751.9,315.7,755.8,313.8,757.7z
		 M317.3,776.4c0,1.3-1.6,3.9-3.5,5.8L313,783c-1.9,1.9-5.1,1.9-7.1,0l-0.1-0.1c-1.9-1.9-3.5-4.9-3.5-6.5c0-1.7,1.6-4.6,3.5-6.5
		l0.1-0.1c1.9-1.9,5.1-1.9,7.1,0l0.8,0.8C315.7,772.6,317.3,775.2,317.3,776.4z M325.3,654.5l27.1,1.9c2.7,0.2,6.6,1.9,8.5,3.9
		l9.1,9.1c1.9,1.9,1.3,3.4-1.5,3.2l-42.8-3c-2.7-0.2-6.6-1.9-8.5-3.9l-0.7-0.7c-1.9-1.9-1.9-5.1,0-7.1l0.2-0.2
		C318.7,655.7,322.5,654.3,325.3,654.5z M317.4,547.7l-1.9-1.9c-1.9-1.9-2.1-4.9-0.4-6.7c1.7-1.7,5.4-3,8.1-2.8l36.8,2.6
		c2.7,0.2,6.6,1.9,8.5,3.9l0.2,0.2c1.9,1.9,1.9,5.1,0,7.1l-0.6,0.6c-1.9,1.9-5.8,3.4-8.5,3.2l-33.6-2.4
		C323.2,551.4,319.3,549.6,317.4,547.7z M368.5,476.7l-42.8-3c-2.7-0.2-6.6-1.9-8.5-3.9l-0.7-0.7c-1.9-1.9-1.9-5.1,0-7.1l0.2-0.2
		c1.9-1.9,5.8-3.4,8.5-3.2l27.1,1.9c2.7,0.2,6.6,1.9,8.5,3.9l9.1,9.1C371.9,475.4,371.3,476.9,368.5,476.7z M361.8,410.8l-27.9,9.7
		c-2.6,0.9-6.9,1.3-9.7,0.9l-9-1.4c-2.7-0.4-4.6-2.3-4.2-4.2c0.4-1.9,2.9-4.2,5.5-5.1l22.1-7.8c2.6-0.9,6.9-1.3,9.7-0.9l11.3,0.4
		c2.7,0.4,5.4,2.1,5.9,3.8C366.1,407.7,364.4,409.9,361.8,410.8z M318.8,431.6c2.7,0.2,6.9,1.5,9.2,3l17.7,11
		c2.3,1.5,3.5,3.9,2.6,5.4c-0.9,1.5-3.8,2.6-6.6,2.4l-8.4-0.6c-2.7-0.2-6.9-1.5-9.2-3l-15.2-9.4c-2.3-1.5-4.2-4.2-4.2-6.2
		c0-2,2.2-3.4,5-3.2L318.8,431.6z M305.9,604.9c1.9-1.9,5.1-1.9,7.1,0l0.8,0.8c1.9,1.9,3.5,5.8,3.5,8.5v6.3c0,2.8-1.6,6.6-3.5,8.5
		l-0.8,0.8c-1.9,1.9-5.1,1.9-7.1,0l-0.1-0.1c-1.9-1.9-3.5-5.8-3.5-8.5v-7.7C302.3,610.8,303.9,606.9,305.9,604.9L305.9,604.9z
		 M305.8,641.2L305.8,641.2c2-2,5.2-2,7.1-0.1l0.8,0.8c1.9,1.9,3.5,4.6,3.5,5.8s-1.6,3.9-3.5,5.8l-0.8,0.8c-1.9,1.9-5.1,1.9-7.1,0
		l-0.1-0.1c-1.9-1.9-3.5-4.9-3.5-6.5C302.3,646.1,303.9,643.2,305.8,641.2z M302.8,729.7c-1.7,1.7-5.4,3-8.1,2.8l-24.8-1.7
		c-2.7-0.2-6.6-1.9-8.5-3.9l-9.1-9.1c-1.9-1.9-1.3-3.4,1.5-3.2l38.3,2.7c2.7,0.2,6.6,1.9,8.5,3.9l1.9,1.9
		C304.3,724.9,304.5,727.9,302.8,729.7z M292,780.8c2.7,0.2,6.6,1.9,8.5,3.9l1.9,1.9c1.9,1.9,2.1,4.9,0.4,6.7s-5.4,3-8.1,2.8
		l-39.2-2.7c-2.7-0.2-3.4-1.9-1.5-3.9l7-7c1.9-1.9,5.8-3.4,8.5-3.2L292,780.8z M253.7,838.4l38.3,2.7c2.7,0.2,6.6,1.9,8.5,3.9
		l1.9,1.9c1.9,1.9,2.1,4.9,0.4,6.7c-1.7,1.7-5.4,3-8.1,2.8l-24.8-1.7c-2.7-0.2-6.6-1.9-8.5-3.9l-9.1-9.1
		C250.3,839.7,251,838.2,253.7,838.4z M302.3,866.1c0-2.8,1.6-6.6,3.5-8.5l0.1-0.1c1.9-1.9,5.1-1.9,7.1,0l0.8,0.8
		c1.9,1.9,3.5,5.8,3.5,8.5v6.3c0,2.8-1.6,6.6-3.5,8.5l-0.8,0.8c-1.9,1.9-5.1,1.9-7.1,0l-0.1-0.1c-1.9-1.9-3.5-5.8-3.5-8.5V866.1z
		 M317.2,794.3l-0.7-0.7c-1.9-1.9-1.9-5.1,0-7.1l0.2-0.2c1.9-1.9,5.8-3.4,8.5-3.2l27.1,1.9c2.7,0.2,6.6,1.9,8.5,3.9l9.1,9.1
		c1.9,1.9,1.3,3.4-1.5,3.2l-42.8-3C323,798,319.1,796.3,317.2,794.3z M370.5,726.5l-7,7c-1.9,1.9-5.8,3.4-8.5,3.2l-29.3-2.1
		c-2.7-0.2-6.6-1.9-8.5-3.9l-0.7-0.7c-1.9-1.9-1.9-5.1,0-7.1l0.2-0.2c1.9-1.9,5.8-3.4,8.5-3.2l43.8,3.1
		C371.8,722.8,372.5,724.5,370.5,726.5z M370.7,387.4l-7,7c-1.9,1.9-5.8,3.4-8.5,3.2l-27.9-1.9c-2.7-0.2-6.6-1.9-8.5-3.9l-1.9-1.9
		c-1.9-1.9-2.1-4.9-0.4-6.6s5.4-3,8.1-2.8l44.7,3.1C372,383.7,372.6,385.4,370.7,387.4z M313.8,319.5l-0.4,0.4
		c-1.9,1.9-5.1,1.9-7.1,0l-0.4-0.4c-1.9-1.9-3.5-4.7-3.5-6.2c0-1.5,1.6-4.2,3.5-6.2l0.4-0.4c1.9-1.9,5.1-1.9,7.1,0l0.4,0.4
		c1.9,1.9,3.5,4.7,3.5,6.2S315.7,317.6,313.8,319.5z M313.8,295l-0.4,0.4c-1.9,1.9-5.1,1.9-7.1,0l-0.4-0.4c-1.9-1.9-3.5-5.8-3.5-8.5
		v-15c0-2.8,1.6-6.6,3.5-8.5l0.4-0.4c1.9-1.9,5.1-1.9,7.1,0l0.4,0.4c1.9,1.9,3.5,5.8,3.5,8.5v15C317.3,289.2,315.7,293.1,313.8,295z
		 M313.8,209.1l-0.8,0.8c-1.9,1.9-5.1,1.9-7.1,0l-0.1-0.1c-1.9-1.9-3.5-4.9-3.5-6.5c0-1.7,1.6-4.6,3.5-6.5l0.1-0.1
		c1.9-1.9,5.1-1.9,7.1,0l0.8,0.8c1.9,1.9,3.5,4.6,3.5,5.8S315.7,207.2,313.8,209.1z M302.8,156.5c-1.7,1.7-5.4,3-8.1,2.8l-24.8-1.7
		c-2.7-0.2-6.6-1.9-8.5-3.9l-9.1-9.1c-1.9-1.9-1.3-3.4,1.5-3.2l38.3,2.7c2.7,0.2,6.6,1.9,8.5,3.9l1.9,1.9
		C304.3,151.8,304.5,154.8,302.8,156.5z M292,207.7c2.7,0.2,6.6,1.9,8.5,3.9l1.9,1.9c1.9,1.9,2.1,4.9,0.4,6.7s-5.4,3-8.1,2.8
		l-39.2-2.7c-2.7-0.2-3.4-1.9-1.5-3.9l7-7c1.9-1.9,5.8-3.4,8.5-3.2L292,207.7z M292.9,318.3c2.7,0.2,6.6,1.9,8.5,3.9l1.3,1.3
		c1.9,1.9,2,5.1,0.1,6.9s-5.6,3.2-8.4,3l-39.2-2.7c-2.7-0.2-3.4-1.9-1.5-3.9l7-7c1.9-1.9,5.8-3.4,8.5-3.2L292.9,318.3z M304.1,545.8
		l-0.5,0.5c-1.9,1.9-5.8,3.4-8.5,3.2l-19.3-1.3c-2.7-0.2-6.6-1.9-8.5-3.9l-1.9-1.9c-1.9-1.9-2.1-5-0.4-6.7c1.7-1.7,5.4-3,8.1-2.8
		l22,1.5c2.7,0.2,6.6,1.9,8.5,3.9l0.4,0.4C306.1,540.6,306.1,543.8,304.1,545.8z M269.4,650.6l22.5,1.6c2.7,0.2,6.6,1.9,8.5,3.9
		l1.9,1.9c1.9,1.9,2.1,4.9,0.4,6.7c-1.7,1.7-5.4,3-8.1,2.8l-39.2-2.7c-2.7-0.2-3.4-1.9-1.5-3.9l7-7
		C262.9,651.8,266.7,650.4,269.4,650.6z M261.5,526.6c0,2.8-1.6,6.6-3.5,8.5c-1.9,1.9-1.9,5,0,6.9c1.9,1.9,3.5,5.7,3.5,8.5v13.2
		c0,2.8-1.6,6.6-3.5,8.5l-7.9,7.9c-1.9,1.9-3.5,1.3-3.5-1.5v-80.8c0-2.8,1.6-3.4,3.5-1.5l7.9,7.9c1.9,1.9,3.5,5.8,3.5,8.5V526.6z
		 M250,593.9l7.9,7.9c1.9,1.9,3.5,5.8,3.5,8.5v3.7c0,2.8-1.6,6.6-3.5,8.5c-1.9,1.9-1.9,5,0,6.9c1.9,1.9,3.5,5.7,3.5,8.5v3.2
		c0,2.8-1.6,6.6-3.5,8.5l-7.9,7.9c-1.9,1.9-3.5,1.3-3.5-1.5v-60.8C246.5,592.6,248.1,591.9,250,593.9z M250,722.5l7.9,7.9
		c1.9,1.9,3.5,5.8,3.5,8.5v3.7c0,2.8-1.6,6.6-3.5,8.5s-1.9,5,0,6.9s3.5,5.7,3.5,8.5v3.2c0,2.8-1.6,6.6-3.5,8.5l-7.9,7.9
		c-1.9,1.9-3.5,1.3-3.5-1.5V724C246.5,721.3,248.1,720.6,250,722.5z M250,846.4l7.9,7.9c1.9,1.9,3.5,5.8,3.5,8.5v3.7
		c0,2.8-1.6,6.6-3.5,8.5s-1.9,5,0,6.9s3.5,5.7,3.5,8.5v3.2c0,2.8-1.6,6.6-3.5,8.5l-7.9,7.9c-1.9,1.9-3.5,1.3-3.5-1.5v-60.8
		C246.5,845.1,248.1,844.5,250,846.4z M253.9,913.3l7-7c1.9-1.9,5.8-3.4,8.5-3.2l22.5,1.6c2.7,0.2,6.6,1.9,8.5,3.9l1.9,1.9
		c1.9,1.9,2.1,4.9,0.4,6.7s-5.4,3-8.1,2.8l-39.2-2.7C252.6,917,252,915.2,253.9,913.3z M302.3,900.3c0-1.7,1.6-4.6,3.5-6.5l0.1-0.1
		c1.9-1.9,5.1-1.9,7.1,0l0.8,0.8c1.9,1.9,3.5,4.6,3.5,5.8s-1.6,3.9-3.5,5.8l-0.8,0.8c-1.9,1.9-5.1,1.9-7.1,0l-0.1-0.1
		C303.9,904.9,302.3,902,302.3,900.3z M316.5,910.5l0.2-0.2c1.9-1.9,5.8-3.4,8.5-3.2l27.1,1.9c2.7,0.2,6.6,1.9,8.5,3.9l9.1,9.1
		c1.9,1.9,1.3,3.4-1.5,3.2l-42.8-3c-2.7-0.2-6.6-1.9-8.5-3.9l-0.7-0.7C314.6,915.6,314.6,912.4,316.5,910.5z M339.1,871
		c-2.4,1.3-6.7,2.1-9.4,1.9l-2.5-0.2c-2.7-0.2-5-2.5-5-5.1c0-2.6,2-5.7,4.5-7l16.4-8.4c2.4-1.3,6.7-2.1,9.4-1.9l18.3,1.3
		c2.7,0.2,3,1.4,0.5,2.6L339.1,871z M369.5,338.7l-42.8-3c-2.7-0.2-6.6-1.9-8.5-3.9l-1.3-1.3c-1.9-1.9-2-5.1-0.1-6.9s5.6-3.2,8.4-3
		l28.2,2c2.7,0.2,6.6,1.9,8.5,3.9l9.1,9.1C372.9,337.5,372.2,338.9,369.5,338.7z M325.7,225.1c-2.7-0.2-6.6-1.9-8.5-3.9l-0.7-0.7
		c-1.9-1.9-1.9-5.1,0-7.1l0.2-0.2c1.9-1.9,5.8-3.4,8.5-3.2l27.1,1.9c2.7,0.2,6.6,1.9,8.5,3.9l9.1,9.1c1.9,1.9,1.3,3.4-1.5,3.2
		L325.7,225.1z M339.1,174c-2.4,1.3-6.7,2.1-9.4,1.9l-2.5-0.2c-2.7-0.2-5-2.5-5-5.1c0-2.6,2-5.7,4.5-7l16.4-8.4
		c2.4-1.3,6.7-2.1,9.4-1.9l18.3,1.3c2.7,0.2,3,1.4,0.5,2.6L339.1,174z M302.3,64.1c0-2.8,1.6-6.6,3.5-8.5l0.1-0.1
		c1.9-1.9,5.1-1.9,7.1,0l0.8,0.8c1.9,1.9,3.5,5.8,3.5,8.5v6.3c0,2.8-1.6,6.6-3.5,8.5l-0.8,0.8c-1.9,1.9-5.1,1.9-7.1,0l-0.1-0.1
		c-1.9-1.9-3.5-5.8-3.5-8.5V64.1z M301.5,84.3c1.9,1.9,2.1,4.9,0.4,6.7c-1.7,1.7-5.4,3-8.1,2.8L254.5,91c-2.7-0.2-3.4-1.9-1.5-3.9
		l7-7c1.9-1.9,5.8-3.4,8.5-3.2l22.5,1.6c2.7,0.2,6.6,1.9,8.5,3.9L301.5,84.3z M251.4,20.3l9.1,0.6c2.7,0.2,6.9,1.5,9.2,3l26.1,16.3
		c2.3,1.5,3.5,3.9,2.6,5.4c-0.9,1.5-3.8,2.6-6.6,2.4l-8.4-0.6c-2.7-0.2-6.9-1.5-9.2-3l-23.6-14.7c-2.3-1.5-4.2-4.2-4.2-6.2
		C246.5,21.6,248.7,20.1,251.4,20.3z M246.5,150.9c0-2.8,1.6-3.4,3.5-1.5l7.9,7.9c1.9,1.9,3.5,5.8,3.5,8.5v3.7
		c0,2.8-1.6,6.6-3.5,8.5c-1.9,1.9-1.9,5,0,6.9c1.9,1.9,3.5,5.7,3.5,8.5v3.2c0,2.8-1.6,6.6-3.5,8.5l-7.9,7.9
		c-1.9,1.9-3.5,1.3-3.5-1.5V150.9z M246.5,252.6c0-2.8,1.6-3.4,3.5-1.5l7.9,7.9c1.9,1.9,3.5,5.8,3.5,8.5v2.5c0,2.8-1.1,6.1-2.4,7.4
		c-1.3,1.3-3.2,4-2.9,4.7c0.3,0.7,1.6,2.4,2.9,3.7s2.4,4.7,2.4,7.4v13.9c0,2.8-1.6,6.6-3.5,8.5l-7.9,7.9c-1.9,1.9-3.5,1.3-3.5-1.5
		V252.6z M244.2,375.5l49.3,2.7c2.7,0.2,6.6,1.9,8.5,3.9l0.6,0.6c1.9,1.9,1.9,5.1,0,7.1l-0.3,0.3c-1.9,1.9-5.8,3.4-8.5,3.2
		l-33.5-1.6c-2.7-0.2-6.6-1.9-8.5-3.9l-9.1-9.1C240.8,376.8,241.5,375.3,244.2,375.5z M243.7,464.9l7-7c1.9-1.9,5.8-3.4,8.5-3.2
		l32.8,1.6c2.7,0.2,6.6,1.9,8.5,3.9l1.9,1.9c1.9,1.9,2.1,4.9,0.4,6.7s-5.4,3-8.1,2.8l-49.5-2.7C242.4,468.6,241.7,466.8,243.7,464.9
		z M246.5,973.1c0-2,2.2-3.4,5-3.2l9.1,0.6c2.7,0.2,6.9,1.5,9.2,3l26.1,16.3c2.3,1.5,3.5,3.9,2.6,5.4c-0.9,1.5-3.8,2.6-6.6,2.4
		l-8.4-0.6c-2.7-0.2-6.9-1.5-9.2-3l-23.6-14.7C248.4,977.8,246.5,975,246.5,973.1z M301.9,1040.5c-1.7,1.7-5.4,3-8.1,2.8l-39.2-2.7
		c-2.7-0.2-3.4-1.9-1.5-3.9l7-7c1.9-1.9,5.8-3.4,8.5-3.2l22.5,1.6c2.7,0.2,6.6,1.9,8.5,3.9l1.9,1.9
		C303.5,1035.8,303.6,1038.8,301.9,1040.5z M313,1029.9c-1.9,1.9-5.1,1.9-7.1,0l-0.1-0.1c-1.9-1.9-3.5-5.8-3.5-8.5v-7.7
		c0-2.8,1.6-6.6,3.5-8.5l0.1-0.1c1.9-1.9,5.1-1.9,7.1,0l0.8,0.8c1.9,1.9,3.5,5.8,3.5,8.5v6.3c0,2.8-1.6,6.6-3.5,8.5L313,1029.9z
		 M368.5,1049.6l-42.8-3c-2.7-0.2-6.6-1.9-8.5-3.9l-0.7-0.7c-1.9-1.9-1.9-5.1,0-7.1l0.2-0.2c1.9-1.9,5.8-3.4,8.5-3.2l27.1,1.9
		c2.7,0.2,6.6,1.9,8.5,3.9l9.1,9.1C371.9,1048.4,371.3,1049.8,368.5,1049.6z M375,981.1l-33.4,17.3c-2.4,1.3-6.7,2.1-9.4,1.9
		l-18.8-1.3c-2.7-0.2-3-1.4-0.5-2.6l33.4-17.3c2.4-1.3,6.7-2.1,9.4-1.9l18.8,1.3C377.2,978.7,377.5,979.8,375,981.1z M377.7,330.2
		c0,2.8-1.6,3.4-3.5,1.5l-7.9-7.9c-1.9-1.9-3.5-5.8-3.5-8.5v-11.7c0-2.8,1.1-6.1,2.4-7.4c1.3-1.3,2.8-2.9,3.2-3.6c0,0,0,0,0-0.6
		s0-0.6,0-0.6c-0.4-0.6-1.8-2.2-3.2-3.6c-1.3-1.3-2.4-4.7-2.4-7.4v-4.5c0-2.8,1.6-6.6,3.5-8.5l7.9-7.9c1.9-1.9,3.5-1.3,3.5,1.5
		V330.2z M405.5,1050.5v-35.9c0-1.6,0.9-2,2.1-0.9l4.7,4.7c1.1,1.1,2.1,3.4,2.1,5v2.2c0,1.6-0.9,3.9-2,5c-1.1,1.1-1.1,3,0,4.1
		s2,3.4,2,5v1.9c0,1.6-0.9,3.9-2.1,5l-4.7,4.7C406.4,1052.6,405.5,1052.2,405.5,1050.5z M438.7,1055.5c-1,1-3.2,1.8-4.8,1.6
		l-23.1-1.6c-1.6-0.1-2-1.1-0.9-2.3l4.1-4.1c1.1-1.1,3.4-2,5-1.9l13.3,0.9c1.6,0.1,3.9,1.1,5,2.3l1.1,1.1
		C439.6,1052.7,439.7,1054.5,438.7,1055.5z M444.7,1049.5c-1.1,1.1-3,1.1-4.2,0l0,0c-1.1-1.1-2.1-2.9-2.1-3.9s0.9-2.7,2.1-3.9l0,0
		c1.1-1.1,3-1.1,4.2,0l0.5,0.5c1.1,1.1,2.1,2.7,2.1,3.4s-0.9,2.3-2.1,3.4L444.7,1049.5z M477.4,1060.2l-25.3-1.8
		c-1.6-0.1-3.9-1.1-5-2.3l-0.4-0.4c-1.1-1.1-1.1-3,0-4.2l0.1-0.1c1.1-1.1,3.4-2,5-1.9l16,1.1c1.6,0.1,3.9,1.1,5,2.3l5.4,5.4
		C479.5,1059.5,479.1,1060.3,477.4,1060.2z M482.7,984.3c0,1.6-0.9,2-2.1,0.9l-4.7-4.7c-1.1-1.1-2.1-3.4-2.1-5v-4.9
		c0-1.6,0.6-3.6,1.4-4.4c0.8-0.8,1.6-1.7,1.9-2.1c0,0,0,0,0-0.4s0-0.4,0-0.4c-0.2-0.4-1.1-1.3-1.9-2.1c-0.8-0.8-1.4-1.8-1.4-3.4
		v-1.7c0-1.6,0.9-3.9,2.1-5l4.7-4.7c1.1-1.1,2.1-0.8,2.1,0.9V984.3z M482.7,907.3c0,1.6-0.9,2-2.1,0.9l-4.7-4.7
		c-1.1-1.1-2.1-3.4-2.1-5v-4.9c0-1.6,0.6-3.6,1.4-4.4c0.8-0.8,1.6-1.7,1.9-2.1c0,0,0,0,0-0.4s0-0.4,0-0.4c-0.2-0.4-1.1-1.3-1.9-2.1
		c-0.8-0.8-1.4-1.8-1.4-3.4v-1.7c0-1.6,0.9-3.9,2.1-5l4.7-4.7c1.1-1.1,2.1-0.8,2.1,0.9V907.3z M482.9,785c0,1.6-0.9,2-2.1,0.9
		l-4.7-4.7c-1.1-1.1-2.1-3.4-2.1-5v-6.9c0-1.6,0.6-3.6,1.4-4.4c0.8-0.8,1.6-1.7,1.9-2.1c0,0,0,0,0-0.4c0-0.4,0-0.4,0-0.4
		c-0.2-0.4-1.1-1.3-1.9-2.1c-0.8-0.8-1.4-2.8-1.4-4.4v-2.7c0-1.6,0.9-3.9,2.1-5l4.7-4.7c1.1-1.1,2.1-0.8,2.1,0.9V785z"/>
</g>
</svg>
