<?xml version="1.0" encoding="utf-8"?>
<!-- Generator: Adobe Illustrator 25.4.1, SVG Export Plug-In . SVG Version: 6.00 Build 0)  -->
<svg version="1.1" id="Layer_1" xmlns="http://www.w3.org/2000/svg" xmlns:xlink="http://www.w3.org/1999/xlink" x="0px" y="0px"
	 viewBox="0 0 224 463" style="enable-background:new 0 0 224 463;" xml:space="preserve">
<style type="text/css">
	.st0{fill:#ABDE5D;}
</style>
<g>
	<path class="st0" d="M223.9,451.7c-0.2-0.9-0.7-1.6-1.6-1.9c-0.2-0.1-0.4-0.2-0.7-0.3c-0.8-0.4-1.9-0.9-3.2-0.9c0,0,0,0,0,0
		c-1.3,0.1-2.6,0.3-3.9,0.5c-1.4,0.2-2.8,0.4-4.1,0.4c-2.4,0-4.8,0.1-7.3,0.3l-0.8-5.4c0-0.3,0-0.6-0.1-0.9c-0.7-4.5-1.4-9-2.2-13.3
		c-1.5-8.5-3-17.3-3.7-25.9c-0.9-9.8-1-19.9-1.2-29.7c-0.1-4-0.1-8.2-0.2-12.3c-0.3-9.2,0.4-17.7,2.1-26.2
		c1.5-7.6,2.9-13.9,5.2-20.1l0.2-0.6c2.2-6.2,4.5-12.7,3.5-20.2c-0.9-6.6-1.4-13.4-1.8-19.9c-0.2-3-0.4-6.1-0.7-9.2
		c-0.2-2.9-0.5-5.9-0.9-8.9c-0.5-4.3,0.4-8.4,1.4-12.8c0.2-0.8,0.3-1.6,0.5-2.4c0.5-2.2,0.3-4.7-0.5-7c-0.6-1.7-1.4-3.3-2.1-4.8
		c-0.7-1.3-1.3-2.6-1.8-3.9c-0.2-0.6-0.4-1.2-0.6-1.7c-1.2-3.3-2.5-6.7-3-10.1c-1.4-8.8-3.3-18-10.3-25.5c-6.9-7.3-14.7-10.4-23.2-9
		c-3.4,0.5-5.1-0.1-7.4-2.7c-5.4-6.1-11.3-8.8-18-8.3c-3.7,0.3-7.5,0.7-11.4,1.2c-0.4,0.1-0.6,0.1-0.8,0.1c0-0.1-0.1-0.2-0.2-0.4
		c-3.7-10.1-10.7-18.2-20.8-24.1c-9.6-5.6-21.8-4-29.7,3.8c-0.2,0.1-0.3,0.2-0.4,0.4l-0.5,0.5c-0.2,0.3-0.5,0.5-0.7,0.7
		c-0.5,0.6-1.1,1.2-1.6,1.8c-0.4-1.2-0.7-2.5-1-3.7c-1.2-5.1-2-10.4-2.7-15.6c-0.4-3-0.9-6-1.4-9c-1-6.1-2.2-12.3-3.2-18.2
		c-1.2-6.5-2.4-13.2-3.5-19.8l-0.1-0.8c-1-5.7-2-11.6-2.4-17.4c-0.5-6.5-0.7-13.3-0.8-19.8L56.2,45c-0.1-3.4-0.1-6.9,0-10.3
		c0-0.9,0-1.8,0-2.7l0.1,0c0.9-0.2,1.6-0.8,1.8-1.7s0.1-1.8-0.5-2.4c-0.4-0.4-0.8-0.8-1.2-1.2c-0.3-0.3-0.8-0.7-0.9-0.9
		c-0.2-1.1-0.3-2.4-0.3-3.7c0-0.9-0.1-1.8-0.2-2.8c-1.3-12.1-8.2-19-18.9-19c-0.1,0-0.3,0-0.4,0C30.9,0.5,26,1.2,22.2,5.5
		c-0.8,0.9-1.3,1.8-1.8,2.7c-0.5,0.8-0.9,1.6-1.4,2.1c-3,3-3.4,6.7-3.8,9.9c-0.1,0.5-0.1,1-0.2,1.5c-0.8,5.9-1.4,12-2.1,17.8l0,0.2
		c-0.1,1.2-0.3,2.4-0.4,3.6c-0.4,3.9-0.9,7.9-1,11.9c-0.1,3.4,0.1,6.8,0.2,10.1c0.1,1.6,0.2,3.1,0.2,4.7c0.1,2.1,0.1,4.1,0.2,6.2
		c0.1,3.9,0.2,7.9,0.4,11.9c0.1,2.8,0.4,5.6,0.6,8.3c0.3,4.3,0.7,8.7,0.7,13.1c0,1.4,0.2,2.8,0.3,4.1c0.5,4.3,0.7,7.1-2.2,9.4
		c-0.8,0.7-1,1.6-1.1,2l0,0.1c-2.2,5-1.8,9.9-1.1,14.5c0.9,6,0.4,12.6-1.2,19.4c-0.5,2-1.3,4.1-2.2,6.2c-0.4,0.9-0.7,1.8-1.1,2.7
		c-0.5,1.2-1,2.5-1.6,3.8c-1.3,2.9-2.6,5.9-3.1,9.2c-1.1,6.9,0,13.9,1.1,19.9c1.5,8.1,2,16.6,2.6,24.8c0.1,2.3,0.3,4.6,0.5,6.8
		c0.1,1.8,0.1,3.7,0,5.7c-0.1,2.8-0.2,5.6,0.3,8.5c1.9,11.4,7.7,21.2,13.2,29.2c8.3,12.2,14,25.9,19.1,37.9c1.4,3.4,3,6.8,4.5,10.2
		c0.4,0.9,0.8,1.8,1.2,2.7c1.3,3,2.7,6.1,4.3,9.1c1.2,2.4,2.5,4.7,3.7,7c1.8,3.4,3.7,6.8,5.3,10.3c3.1,6.7,3.8,14.8,2.2,23.3
		c-1.9,9.8-0.3,19.3,5,29.9c3.3,6.6,4.9,12.5,4.9,18.8l0,1.9c0,2.4,0,4.9,0,7.3c0,0.1,0,0.1,0,0.2c0,1.3,0,2.7,0,4.1
		c0,4.2,0,6.9,0.5,8.5c0.4,1.5,1.8,5.1,4.6,6.5c0.2,0.1,0.5,0.2,0.8,0.3c0.4,0.2,0.7,0.4,1.1,0.6c2.1,0.7,4.1,1.4,6,1.9l0.3,0.1
		c0.1,0,0.2,0.1,0.3,0.1c1.5,0.4,2.8,0.8,4,1c2.3,0.5,4.7,0.9,6.9,1.3c1.9,0.3,3.8,0.6,5.6,1c6,1.3,12.5,2.5,19.2,2.2
		c7.3-0.4,13.7-0.3,19.4,0.2c3,0.2,6.2,0.3,9.3,0c4.1,0.3,7.7,0.4,10.5,0.4c1,0,1.9,0,2.7,0c4.8-0.2,10.3-0.9,14.2-1.5
		c0.5,0,1-0.1,1.5-0.1c2.8-0.3,5.6-0.6,8.5-0.9c5.4-0.6,11-1.2,16.5-1.7c2.8-0.3,5.6-0.5,8.3-0.7c3.5-0.3,7.1-0.6,10.7-0.9
		c1.5-0.2,2.5-1.2,3.2-2c0.2-0.2,0.4-0.4,0.5-0.6C223.8,453.5,224.1,452.6,223.9,451.7z"/>
	<path d="M14.8,223.7c0.3-4.4,0-8.9,1.1-13c1.8-7.2,3.9-14.3,4.5-21.7c0.3-4.1-0.6-8.3-0.3-12.4c0.9-11.1-1.3-21.9-2.6-32.9
		c-0.3-3-0.4-6.1-0.6-9.1c-0.1-2.2-0.3-4.4-0.5-6.9c-3,1.2-2.5,3.5-2.4,5.4c0.2,5.7,0.7,11.4,0.9,17.1c0.4,7.7-3.8,14.2-5.8,21.2
		c-0.4,1.2,0.1,2.7,0.6,4.1c-2.6,3.3-6.3,6.3-4,11.7c1.3-0.4,2.4-0.9,4.4-1.6c-1,1.5-1.4,2.2-1.9,2.9c-1.7,2.6-2,5.1-1.4,8.4
		c1.4,7.5,3.4,14.9,3.1,22.7c-0.4,8.9-0.4,17.8,0.5,26.6c0.5,4.7,3.2,9.4,5.6,13.7c5.5,9.9,11.8,19.3,17.1,29.3
		c3.7,7,6.1,14.6,9.2,21.9c2.6,6.3,5.1,12.7,8,18.8c2.8,5.8,6.5,11.2,9,17.2c2.2,5.1,4.8,10.1,5.7,15.9c1,6.2-0.3,11.8-1.3,17.6
		c-1.6,9.3,1.1,17.8,5.4,25.9c3.3,6.2,4.2,12.7,4.5,19.4c0.2,5,0.6,9.9,0.7,14.9c0,0.8-0.9,1.6-1.4,2.3c-0.6-0.9-1.8-1.7-1.8-2.6
		c-0.2-5.2-0.2-10.4-0.2-15.5c0-7.1-1.9-13.6-5.2-20c-4.5-8.8-6.8-17.9-4.8-28.3c1.6-8.2,1.3-16.9-2.3-24.8
		c-2.7-5.9-6.2-11.6-9.1-17.4c-1.9-3.8-3.6-7.8-5.4-11.7c-1.5-3.4-3-6.7-4.5-10.1c-5.6-13.2-11.2-26.4-19.4-38.4
		c-5.8-8.6-11.1-17.8-12.8-28.2c-0.8-4.5,0.1-9.3-0.3-13.9c-0.8-10.7-1.2-21.4-3.1-31.9c-1.2-6.4-2-12.7-1.1-19
		c0.7-4.3,3-8.3,4.6-12.5c1.1-3,2.5-6,3.3-9.1c1.6-6.7,2.2-13.5,1.3-20.4c-0.6-4.5-1-8.9,1-13.2c0.2-0.4,0.2-0.9,0.4-1.1
		c5.3-4.3,2.8-10.2,2.8-15.5c-0.1-7.1-0.9-14.3-1.3-21.4c-0.3-6-0.4-12-0.6-18c-0.2-4.9-0.6-9.8-0.5-14.6c0.2-5.1,0.9-10.2,1.4-15.3
		c0.6-6,1.3-12,2.1-17.9c0.5-3.5,0.4-7.1,3.3-9.9c1.4-1.4,2.1-3.4,3.4-4.9c3.1-3.5,7.3-4.1,11.7-4.2c11-0.2,15.8,7.4,16.8,16.7
		c0.2,2.3,0.1,4.6,0.6,6.9c0.3,1.1,1.6,2,2.6,3.1c-0.5,0.1-1.4,0.3-2.1,0.5c0,5-0.1,10,0,15C53.9,53,54,61,54.6,68.9
		c0.5,6.1,1.5,12.3,2.6,18.4c2.2,12.7,4.5,25.3,6.7,38c1.4,8.2,2.2,16.6,4.1,24.7c1.3,5.6,3.5,11.1,6.3,16.1c2.6,4.6,1.7,9.3,2.2,14
		c0.4,3.8-0.3,7.6-0.6,11.4c0,0.6-0.3,1.2-0.7,1.7c-0.8,1-1.7,2-2.5,3c-0.6,0.7-1.1,1.5-2.2,2c4.6-7.4,5-14.9,1.3-22.7
		c-1.7,7.9-1.8,16.3-6.6,23.4c0.2-1.4,0.1-3,0.7-4.2c3.1-6.8,3.8-13.7,2.4-21c-0.1-0.6-0.1-1.6,0.3-1.9c2-1.9,0.8-3.6,0.1-5.7
		c-1.8-5.5-3.3-11-4.7-16.6c-0.9-3.4-1.5-6.8-1.9-10.3c-0.5-4.4-0.4-8.9-0.9-13.3c-0.7-6.2-1.6-12.5-2.6-18.6
		c-0.9-5.2-2.6-10.3-3.3-15.5c-1.5-10.4-3.7-20.6-3.2-31.2c0.3-5.4-0.9-10.8-1.1-16.2c-0.2-6.7,0-13.4-0.2-20.1c-0.1-3-0.9-6-1.3-9
		c-0.5,0-1-0.1-1.4-0.1c-0.2,1-0.5,2-0.6,3.1c-0.5,3.3-0.8,6.7-1.4,9.9c-0.2,1-1.2,1.9-2.2,2.5c0.4-4.5,1-8.9,1.2-13.4
		c0.3-5.6-2.5-8-8.2-6.9c-2.2,0.4-4.5,1.1-6.7,1.4c-3.1,0.3-3.7,2.5-3.7,4.9c0.1,3.8,0.1,7.7,1.1,11.3c0.7,2.5,3.2,4.6,4.9,6.7
		c0.5,0.6,1.4,0.8,2.9,1.6c-1.4,0.3-2,0.6-2.4,0.4c-3-1.4-6.6-2-7.6-6c-0.8-3.6-1.6-7.1-2.4-10.7c-0.2-0.8-0.2-1.5-0.3-2.3
		c-0.4,0-0.8-0.1-1.2-0.1c-0.6,3.1-1.5,6.1-1.8,9.3c-1.2,9.8-2.8,19.6-3,29.4c-0.3,12.1,0.6,24.3,1,36.4c0.4,10.9,0.5,21.8,1.1,32.7
		c0.5,8.7,1.7,17.3,2.3,26c0.5,6.6,0.5,13.2,0.9,19.8c0.2,4.4,0.6,8.7,1,13.1c0.5,6-0.8,11.7-2,17.6c-1.3,6-1.9,12.2-3,18.3
		c-0.2,1.4-1.2,2.6-1.9,3.9C15.6,223.9,15.2,223.8,14.8,223.7z M28.3,8.5c6.3,0.1,12.7-2,17.8,3.5c0.6-3.6,0.6-3.6-6.4-5.9
		C34.3,4.3,30.2,5,28.3,8.5z"/>
	<path d="M198.5,449.1c-0.7-0.8-1.7-1.6-1.9-2.5c-1.5-7.4-2.8-14.8-4.1-22.2c-0.9-5.3-1.6-10.6-2.5-16c-0.1-0.8-0.6-1.6-0.9-2.4
		c-1.3,1.3-2.4,3.2-3.5,3.1c-1.1,0-2.2-1.9-3.8-3.4c-0.5,3.8-1,7.1-1.5,10.4c-0.4,0.1-0.9,0.1-1.3,0.2c-0.4-1-1.1-2.1-1-3.1
		c0.3-3.6,1.1-7.1,1.1-10.6c0.1-7.7-0.2-15.5-0.4-23.2c0-1.6-1.2-3.4,1.9-4.3c0.7,5.6,1.5,11.1,2.2,16.6c0.3,0,0.7,0,1,0.1
		c0.4-1.6,1-3.2,1-4.9c0.1-3.8-0.3-7.5-0.2-11.3c0-1.1,0.4-2.8,1.1-3.1c2.3-0.9,1.9-2.7,2-4.4c0.3-7.6,0.8-15.3,1-22.9
		c0-1.5-0.6-3.1-0.9-4.6c-0.8,1.3-1.7,2.5-2.5,3.8c-2.7,4.9-5.3,9.9-8,14.8c-0.5,0.8-1.5,1.4-2.6,2.3c-1-3.9,1.6-6,3.2-8.1
		c6.1-8.7,9.5-18.3,10.7-28.8c0.1-0.9,0.4-1.8,1.2-2.6c0.4,1.1,0.7,2.2,1.1,3.3c0.3,0.2,0.5,0.5,0.8,0.7c0.1-0.5,0.2-1,0.4-1.4
		c3.6-7.9,6.6-16,8.2-24.5c1.1-5.8,0.8-11.9,0.3-17.8c-0.8-8.8-2.6-17.6-3.4-26.4c-0.4-4,0.4-8.3,1.3-12.3c0.8-3.9,1.7-7.4-0.5-11.1
		c-4.9-8.2-6.2-17.7-9.2-26.6c-3.1-9.1-7.8-17-17.6-20.2c-2.4-0.8-5.3-0.5-7.9-0.3c-0.7,0.1-2,2.1-1.8,2.9c1.2,4.6,2.5,9.2,4.4,13.6
		c1.7,4.1,4.3,7.8,6.3,11.8c0.6,1.2,0.5,2.8,0.7,4.2c-0.2,0.2-0.5,0.4-0.7,0.5c-1.1-0.9-2.5-1.5-3.2-2.6c-2.7-4.2-5.1-8.6-7.5-13
		c-0.3-0.5-0.5-1.3-0.2-1.7c2-3.6,0-6.5-1.6-9.4c-3.4-6-7.8-11-13.4-15.1c-5.5-4-15.1-1.8-18.6,0.5c-1.7,1.1-1.8,2.8-0.8,4.4
		c2.8,4.2,5.7,8.4,8.5,12.6c0.8,1.1,1.5,2.3,2.3,3.4c-0.2,0.3-0.4,0.6-0.6,0.9c-1.5-0.7-3.3-1.1-4.5-2.2
		c-6.9-6.2-10.2-14.5-13.6-22.7c-2.8-6.6-4.9-13.6-10.9-18.3c-3-2.4-5.2-5.6-9.3-6.8c-5.8-1.7-10.8-0.6-15.5,2.7
		c-2.3,1.6-4.3,3.6-6.4,5.4c-0.8,0.7-1.6,1.3-2.5,1.9c-0.3-0.1-0.7-0.3-1-0.4c0.3-1.2,0.2-2.7,0.8-3.7c6.8-9.3,19.3-11.9,29.2-6.2
		c9.2,5.3,16,12.7,19.7,22.8c0.7,2,1.8,2.2,3.6,2c3.7-0.5,7.5-0.9,11.3-1.2c6.7-0.5,11.8,2.8,15.9,7.5c2.8,3.1,5.2,4.2,9.7,3.5
		c8.2-1.3,15.2,2.1,21,8.3c6.5,6.9,8.3,15.3,9.7,24.1c0.6,4.2,2.3,8.3,3.8,12.3c1.1,3,2.8,5.7,3.9,8.7c0.6,1.8,0.8,3.9,0.4,5.7
		c-1.1,5.3-2.6,10.5-1.9,16c0.3,2.9,0.6,5.9,0.9,8.8c0.8,9.8,1.1,19.6,2.5,29.3c1,7.1-1.3,13.3-3.6,19.6c-2.4,6.7-3.9,13.5-5.3,20.4
		c-1.8,8.9-2.4,17.8-2.1,26.7c0.4,14,0.2,28.1,1.4,42.1c1.2,13.2,4,26.3,6,39.4c0.2,1.5-0.2,3.2-0.4,4.8
		C199.2,448.9,198.8,449,198.5,449.1z"/>
	<path d="M160.8,456.9c-7.8,2.2-15.5,3.3-23.5,2.7c-6.5-0.5-13.2-0.5-19.7-0.2c-6.4,0.3-12.4-0.8-18.6-2.1
		c-4.2-0.9-8.4-1.4-12.5-2.3c-3.5-0.8-7-1.9-10.4-3c-1.8-0.6-2.1-3.2-0.7-5.4c1.6,1,3,2.3,4.7,2.9c3.4,1.2,6.8,2.2,10.3,2.9
		c6,1.2,12,2.5,18.1,3.1c8.2,0.8,16.4,1.3,24.6,1.5c8.3,0.1,16.6-0.4,24.9-0.6C159,456.4,159.9,456.8,160.8,456.9z"/>
	<path d="M171.7,457.5c1.5-0.5,3-1.2,4.6-1.5c11.3-2.1,22.7-3.7,34.3-3.9c2.7,0,5.4-0.8,8-0.9c0.9-0.1,1.9,0.6,2.8,1
		c-0.8,0.7-1.5,1.9-2.4,2c-6.3,0.7-12.6,1-19,1.6c-8.3,0.8-16.7,1.7-25,2.6c-1,0.1-2.1,0.2-3.1,0.2
		C171.9,458.2,171.8,457.8,171.7,457.5z"/>
	<path d="M129,207.6c-3.8-6.4-8.4-12.4-8.6-20.6c3.9,6.4,12,9.2,14.4,16.8c-0.4,0.4-0.8,0.8-1.3,1.2c-1.2-1.5-2.2-3.2-3.5-4.5
		c-0.8-0.8-2.1-1-3.2-1.5c0.3,1.1,0.4,2.3,0.9,3.3c0.7,1.6,1.7,3,2.6,4.5C129.9,207.1,129.4,207.4,129,207.6z"/>
	<path d="M128.4,227.4c-1.8-6-3.4-11.6-5.2-17.5C127.4,210.5,130.7,222.5,128.4,227.4z"/>
	<path d="M43.3,98.1c-0.8,1.3-1.4,2.5-2.4,4.3c-2.4,0.3-5.5,0.7-8.7,1.1C32.7,99.7,37.3,97.8,43.3,98.1z"/>
	<path d="M128.9,234.7c-4.1,7.2-3.6,14.5-2.9,22.5C122.2,249.8,123.7,236.6,128.9,234.7z"/>
	<path d="M42.9,93.5c-6.8-2.2-12.7,1.7-19.6,3.1C26.5,91.9,39.6,90,42.9,93.5z"/>
	<path d="M39.4,13.9c-3.2,0.4-6.3,0.8-9.5,1.2c-0.1-0.5-0.1-1-0.2-1.5c3.2-0.3,6.4-0.7,9.5-1C39.3,13,39.3,13.5,39.4,13.9z"/>
</g>
</svg>
